<?xml version="1.0" encoding="UTF-8" standalone="no"?>
<svg
   xmlns:dc="http://purl.org/dc/elements/1.1/"
   xmlns:cc="http://creativecommons.org/ns#"
   xmlns:rdf="http://www.w3.org/1999/02/22-rdf-syntax-ns#"
   xmlns:svg="http://www.w3.org/2000/svg"
   xmlns="http://www.w3.org/2000/svg"
   xmlns:sodipodi="http://sodipodi.sourceforge.net/DTD/sodipodi-0.dtd"
   xmlns:inkscape="http://www.inkscape.org/namespaces/inkscape"
   id="svg3632"
   version="1.1"
   inkscape:version="0.48.2 r9819"
   width="761.23499"
   height="245.09019"
   xml:space="preserve"
   sodipodi:docname="dff_logo_neu_redesign2_inkscape.svg"><metadata
     id="metadata3638"><rdf:RDF><cc:Work
         rdf:about=""><dc:format>image/svg+xml</dc:format><dc:type
           rdf:resource="http://purl.org/dc/dcmitype/StillImage" /><dc:title /></cc:Work></rdf:RDF></metadata><defs
     id="defs3636"><clipPath
       clipPathUnits="userSpaceOnUse"
       id="clipPath3650"><path
         d="M 0,0 609,0 609,192 0,192 0,0 z"
         id="path3652"
         inkscape:connector-curvature="0" /></clipPath><clipPath
       clipPathUnits="userSpaceOnUse"
       id="clipPath3654"><path
         d="M 0,0 609,0 609,192 0,192 0,0 z"
         id="path3656"
         inkscape:connector-curvature="0" /></clipPath></defs><sodipodi:namedview
     pagecolor="#ffffff"
     bordercolor="#666666"
     borderopacity="1"
     objecttolerance="10"
     gridtolerance="10"
     guidetolerance="10"
     inkscape:pageopacity="0"
     inkscape:pageshadow="2"
     inkscape:window-width="1920"
     inkscape:window-height="964"
     id="namedview3634"
     showgrid="false"
     showguides="true"
     inkscape:guide-bbox="true"
     fit-margin-top="0"
     fit-margin-left="0"
     fit-margin-right="0"
     fit-margin-bottom="0"
     inkscape:zoom="1.5493948"
     inkscape:cx="328.91895"
     inkscape:cy="92.547542"
     inkscape:window-x="0"
     inkscape:window-y="0"
     inkscape:window-maximized="1"
     inkscape:current-layer="g3644"><sodipodi:guide
       orientation="1,0"
       position="154.93969,121.62423"
       id="guide4627" /><sodipodi:guide
       orientation="0,1"
       position="223.16792,176.62014"
       id="guide4629" /></sodipodi:namedview><g
     id="g3640"
     inkscape:groupmode="layer"
     inkscape:label="dff_logo_neu_redesign"
     transform="matrix(1.25,0,0,-1.25,0,245.0876)"><g
       id="g3642" /><g
       id="g3644"><g
         id="g3648"
         transform="translate(0,-0.291077)" /><g
         clip-path="url(#clipPath3650)"
         id="g3660"
         transform="translate(0,-0.291077)"><g
           id="g3662" /><g
           id="g3664"><g
             id="g3666"><g
               id="g3668" /><g
               id="g3670"><g
                 clip-path="url(#clipPath3654)"
                 id="g3672"><g
                   id="g3674" /><g
                   id="g3676"><path
                     d="m 95.879,148.855 c -0.004,-2.48 -0.109,-4.562 -0.313,-6.253 -0.211,-1.696 -0.539,-3.039 -0.992,-4.028 -0.453,-0.992 -0.969,-1.734 -1.547,-2.226 -0.578,-0.496 -1.242,-0.743 -1.984,-0.743 l -52.434,0 0,-43.093 49.211,0 c 0.743,-0.004 1.407,-0.211 1.985,-0.621 0.578,-0.414 1.093,-1.114 1.547,-2.106 0.453,-0.992 0.781,-2.312 0.992,-3.961 0.203,-1.652 0.308,-3.719 0.312,-6.191 -0.004,-2.481 -0.109,-4.543 -0.312,-6.192 -0.211,-1.652 -0.539,-3.015 -0.992,-4.089 -0.454,-1.075 -0.969,-1.836 -1.547,-2.289 -0.578,-0.454 -1.242,-0.68 -1.985,-0.68 l -49.211,0 0,-59.688 C 38.605,5.781 38.355,4.996 37.863,4.34 37.363,3.676 36.477,3.121 35.199,2.668 33.914,2.215 32.238,1.867 30.176,1.617 28.105,1.375 25.465,1.25 22.246,1.246 19.105,1.25 16.48,1.375 14.371,1.617 12.262,1.867 10.586,2.215 9.352,2.668 8.109,3.121 7.223,3.676 6.688,4.34 6.148,4.996 5.879,5.781 5.883,6.695 l 0,145.254 c -0.004,3.629 0.926,6.25 2.789,7.864 1.855,1.609 4.148,2.417 6.879,2.417 l 75.492,0 c 0.742,0 1.406,-0.23 1.984,-0.683 0.578,-0.457 1.094,-1.199 1.547,-2.231 0.453,-1.035 0.781,-2.418 0.992,-4.148 0.204,-1.734 0.309,-3.84 0.313,-6.313 z"
                     style="fill:#c0c0c0;fill-opacity:1;fill-rule:nonzero;stroke:none"
                     id="path3696"
                     inkscape:connector-curvature="0" /><path
                     d="M 203.516,35.762 C 203.512,30.188 202.691,25.199 201.055,20.801 199.41,16.398 196.996,12.676 193.813,9.633 190.621,6.586 186.684,4.266 182,2.676 177.309,1.082 171.922,0.289 165.832,0.289 160.113,0.289 154.98,1 150.434,2.43 c -4.547,1.425 -8.391,3.593 -11.532,6.5 -3.14,2.902 -5.543,6.519 -7.207,10.851 -1.664,4.328 -2.496,9.399 -2.496,15.207 l 0,55.274 c 0,0.465 0.141,0.886 0.422,1.265 0.281,0.371 0.785,0.676 1.512,0.914 0.726,0.231 1.676,0.418 2.847,0.559 1.172,0.137 2.672,0.207 4.5,0.211 1.782,-0.004 3.258,-0.074 4.43,-0.211 1.172,-0.141 2.11,-0.328 2.813,-0.559 0.703,-0.238 1.207,-0.543 1.511,-0.914 0.305,-0.379 0.457,-0.8 0.457,-1.265 l 0,-53.66 c 0,-3.61 0.446,-6.735 1.336,-9.375 0.891,-2.649 2.168,-4.836 3.832,-6.571 1.664,-1.734 3.657,-3.035 5.977,-3.898 2.32,-0.867 4.91,-1.301 7.769,-1.297 2.903,-0.004 5.5,0.441 7.801,1.332 2.293,0.887 4.239,2.187 5.836,3.898 1.59,1.711 2.821,3.817 3.692,6.325 0.863,2.5 1.296,5.347 1.3,8.535 l 0,54.711 c -0.004,0.465 0.137,0.886 0.422,1.265 0.278,0.371 0.77,0.676 1.477,0.914 0.699,0.231 1.648,0.418 2.847,0.559 1.192,0.137 2.68,0.207 4.465,0.211 1.778,-0.004 3.243,-0.074 4.395,-0.211 1.144,-0.141 2.07,-0.328 2.777,-0.559 0.699,-0.238 1.192,-0.543 1.477,-0.914 0.277,-0.379 0.418,-0.8 0.422,-1.265 l 0,-54.5 z"
                     style="fill:#c0c0c0;fill-opacity:1;fill-rule:nonzero;stroke:none"
                     id="path3698"
                     inkscape:connector-curvature="0" /><path
                     d="m 297.945,85.207 c -0.004,-1.363 -0.062,-2.523 -0.175,-3.48 -0.122,-0.961 -0.297,-1.735 -0.528,-2.317 -0.238,-0.586 -0.531,-1.015 -0.879,-1.297 -0.355,-0.281 -0.742,-0.422 -1.16,-0.422 l -22.777,0 0,-73.257 c 0,-0.473 -0.153,-0.895 -0.457,-1.266 -0.305,-0.375 -0.809,-0.676 -1.512,-0.91 -0.703,-0.235 -1.652,-0.422 -2.848,-0.563 -1.195,-0.14 -2.683,-0.211 -4.464,-0.211 -1.782,0 -3.27,0.071 -4.465,0.211 -1.196,0.141 -2.145,0.328 -2.848,0.563 -0.703,0.234 -1.207,0.535 -1.512,0.91 -0.304,0.371 -0.457,0.793 -0.457,1.266 l 0,73.257 -22.781,0 c -0.469,0 -0.867,0.141 -1.195,0.422 -0.328,0.282 -0.61,0.711 -0.844,1.297 -0.234,0.582 -0.41,1.356 -0.527,2.317 -0.118,0.957 -0.176,2.117 -0.176,3.48 0,1.402 0.058,2.594 0.176,3.578 0.117,0.981 0.293,1.766 0.527,2.356 0.234,0.582 0.516,1.004 0.844,1.265 0.328,0.254 0.726,0.383 1.195,0.387 l 64.121,0 c 0.418,-0.004 0.805,-0.133 1.16,-0.387 0.348,-0.261 0.641,-0.683 0.879,-1.265 0.231,-0.59 0.406,-1.375 0.528,-2.356 0.113,-0.984 0.171,-2.176 0.175,-3.578 z"
                     style="fill:#c0c0c0;fill-opacity:1;fill-rule:nonzero;stroke:none"
                     id="path3700"
                     inkscape:connector-curvature="0" /><path
                     d="m 410.867,35.762 c -0.004,-5.574 -0.824,-10.563 -2.461,-14.961 -1.644,-4.403 -4.058,-8.125 -7.242,-11.168 -3.191,-3.047 -7.129,-5.367 -11.812,-6.957 -4.692,-1.594 -10.079,-2.387 -16.168,-2.387 -5.719,0 -10.852,0.711 -15.399,2.141 -4.547,1.425 -8.39,3.593 -11.531,6.5 -3.141,2.902 -5.543,6.519 -7.207,10.851 -1.664,4.328 -2.496,9.399 -2.496,15.207 l 0,55.274 c 0,0.465 0.14,0.886 0.422,1.265 0.281,0.371 0.785,0.676 1.511,0.914 0.727,0.231 1.676,0.418 2.848,0.559 1.172,0.137 2.672,0.207 4.5,0.211 1.781,-0.004 3.258,-0.074 4.43,-0.211 1.172,-0.141 2.109,-0.328 2.812,-0.559 0.703,-0.238 1.207,-0.543 1.512,-0.914 0.305,-0.379 0.457,-0.8 0.457,-1.265 l 0,-53.66 c 0,-3.61 0.445,-6.735 1.336,-9.375 0.891,-2.649 2.168,-4.836 3.832,-6.571 1.664,-1.734 3.656,-3.035 5.977,-3.898 2.32,-0.867 4.91,-1.301 7.769,-1.297 2.902,-0.004 5.5,0.441 7.801,1.332 2.293,0.887 4.238,2.187 5.836,3.898 1.59,1.711 2.82,3.817 3.691,6.325 0.863,2.5 1.297,5.347 1.301,8.535 l 0,54.711 c -0.004,0.465 0.137,0.886 0.422,1.265 0.277,0.371 0.769,0.676 1.476,0.914 0.7,0.231 1.649,0.418 2.848,0.559 1.191,0.137 2.68,0.207 4.465,0.211 1.777,-0.004 3.242,-0.074 4.394,-0.211 1.145,-0.141 2.071,-0.328 2.778,-0.559 0.699,-0.238 1.191,-0.543 1.476,-0.914 0.278,-0.379 0.418,-0.8 0.422,-1.265 l 0,-54.5 z"
                     style="fill:#c0c0c0;fill-opacity:1;fill-rule:nonzero;stroke:none"
                     id="path3702"
                     inkscape:connector-curvature="0" /><path
                     d="m 512.258,4.293 c -0.004,-0.516 -0.098,-0.945 -0.281,-1.297 -0.192,-0.351 -0.637,-0.644 -1.336,-0.879 -0.707,-0.234 -1.739,-0.398 -3.094,-0.492 -1.363,-0.094 -3.215,-0.141 -5.555,-0.141 -1.972,0 -3.543,0.047 -4.711,0.141 -1.176,0.094 -2.101,0.27 -2.777,0.527 -0.684,0.258 -1.164,0.582 -1.441,0.981 -0.286,0.394 -0.52,0.875 -0.704,1.441 l -8.152,20.301 c -0.984,2.293 -1.945,4.328 -2.883,6.109 -0.937,1.778 -1.98,3.262 -3.129,4.457 -1.148,1.192 -2.472,2.094 -3.972,2.707 -1.5,0.606 -3.235,0.911 -5.203,0.915 l -5.766,0 0,-34.629 c 0,-0.473 -0.152,-0.895 -0.457,-1.266 -0.305,-0.375 -0.809,-0.676 -1.512,-0.91 -0.703,-0.235 -1.64,-0.422 -2.812,-0.563 -1.172,-0.14 -2.672,-0.211 -4.5,-0.211 -1.782,0 -3.27,0.071 -4.465,0.211 -1.195,0.141 -2.145,0.328 -2.848,0.563 -0.703,0.234 -1.195,0.535 -1.476,0.91 -0.282,0.371 -0.422,0.793 -0.422,1.266 l 0,82.527 c 0,2.059 0.527,3.543 1.582,4.461 1.054,0.91 2.355,1.367 3.902,1.371 l 23.555,0 c 2.39,-0.004 4.359,-0.051 5.906,-0.141 1.547,-0.097 2.953,-0.214 4.219,-0.351 3.652,-0.52 6.941,-1.41 9.875,-2.672 2.926,-1.266 5.41,-2.914 7.453,-4.949 2.035,-2.039 3.594,-4.45 4.676,-7.235 1.074,-2.789 1.613,-5.984 1.617,-9.586 -0.004,-3.046 -0.391,-5.824 -1.16,-8.324 -0.778,-2.508 -1.914,-4.742 -3.41,-6.707 -1.504,-1.969 -3.356,-3.68 -5.555,-5.129 -2.207,-1.453 -4.715,-2.621 -7.524,-3.511 1.356,-0.657 2.633,-1.454 3.832,-2.391 1.192,-0.938 2.317,-2.074 3.375,-3.406 1.051,-1.336 2.047,-2.856 2.989,-4.563 0.933,-1.711 1.847,-3.644 2.742,-5.793 l 7.664,-17.91 c 0.699,-1.785 1.168,-3.086 1.406,-3.902 0.231,-0.821 0.348,-1.465 0.352,-1.93 z m -23.836,61.668 c -0.004,2.996 -0.684,5.523 -2.039,7.586 -1.36,2.058 -3.582,3.512 -6.676,4.355 -0.937,0.235 -2.004,0.422 -3.199,0.563 -1.195,0.14 -2.848,0.211 -4.957,0.211 l -8.297,0 0,-25.778 9.422,0 c 2.625,-0.003 4.922,0.313 6.89,0.946 1.969,0.633 3.606,1.519 4.918,2.668 1.309,1.144 2.293,2.515 2.954,4.109 0.652,1.59 0.98,3.371 0.984,5.34 z"
                     style="fill:#c0c0c0;fill-opacity:1;fill-rule:nonzero;stroke:none"
                     id="path3704"
                     inkscape:connector-curvature="0" /><path
                     d="m 608.988,9.141 c -0.004,-1.36 -0.062,-2.496 -0.175,-3.407 -0.122,-0.918 -0.297,-1.656 -0.528,-2.214 -0.238,-0.563 -0.531,-0.969 -0.879,-1.227 -0.355,-0.258 -0.742,-0.387 -1.16,-0.387 l -45.699,0 c -1.547,0 -2.848,0.453 -3.902,1.367 -1.055,0.911 -1.582,2.399 -1.582,4.461 l 0,79.227 c 0,2.059 0.527,3.543 1.582,4.461 1.054,0.91 2.355,1.367 3.902,1.371 l 45.418,0 c 0.418,-0.004 0.793,-0.121 1.125,-0.352 0.324,-0.238 0.605,-0.648 0.844,-1.23 0.23,-0.59 0.406,-1.34 0.527,-2.25 0.113,-0.914 0.172,-2.07 0.176,-3.473 -0.004,-1.316 -0.063,-2.429 -0.176,-3.34 -0.121,-0.914 -0.297,-1.652 -0.527,-2.21 -0.239,-0.567 -0.52,-0.977 -0.844,-1.231 -0.332,-0.258 -0.707,-0.383 -1.125,-0.383 l -32.481,0 0,-22.195 27.489,0 c 0.418,0 0.804,-0.129 1.16,-0.387 0.347,-0.258 0.64,-0.656 0.879,-1.195 0.23,-0.539 0.406,-1.266 0.527,-2.18 0.113,-0.914 0.172,-2.027 0.176,-3.332 -0.004,-1.363 -0.063,-2.488 -0.176,-3.375 -0.121,-0.89 -0.297,-1.601 -0.527,-2.14 -0.239,-0.54 -0.532,-0.926 -0.879,-1.157 -0.356,-0.238 -0.742,-0.355 -1.16,-0.351 l -27.489,0 0,-25.637 32.762,0 c 0.418,-0.004 0.805,-0.133 1.16,-0.387 0.348,-0.261 0.641,-0.672 0.879,-1.23 0.231,-0.563 0.406,-1.297 0.528,-2.211 0.113,-0.914 0.171,-2.051 0.175,-3.406 z"
                     style="fill:#c0c0c0;fill-opacity:1;fill-rule:nonzero;stroke:none"
                     id="path3706"
                     inkscape:connector-curvature="0" /><path
                     d="m 89.996,154.73 c -0.004,-2.48 -0.109,-4.562 -0.312,-6.253 -0.211,-1.696 -0.539,-3.039 -0.993,-4.028 -0.453,-0.992 -0.968,-1.734 -1.546,-2.226 -0.579,-0.496 -1.243,-0.743 -1.985,-0.743 l -52.433,0 0,-43.093 49.211,0 c 0.742,-0.004 1.406,-0.211 1.984,-0.621 0.578,-0.414 1.094,-1.114 1.547,-2.106 0.453,-0.992 0.781,-2.312 0.992,-3.961 0.203,-1.652 0.309,-3.719 0.312,-6.191 C 86.77,83.027 86.664,80.965 86.461,79.316 86.25,77.664 85.922,76.301 85.469,75.227 85.016,74.152 84.5,73.391 83.922,72.938 83.344,72.484 82.68,72.258 81.938,72.258 l -49.211,0 0,-59.688 C 32.723,11.656 32.473,10.871 31.98,10.215 31.48,9.551 30.594,8.996 29.316,8.543 28.031,8.09 26.355,7.742 24.293,7.492 22.223,7.25 19.582,7.125 16.363,7.121 13.223,7.125 10.598,7.25 8.488,7.492 6.379,7.742 4.703,8.09 3.469,8.543 2.227,8.996 1.34,9.551 0.805,10.215 0.266,10.871 -0.004,11.656 0,12.57 l 0,145.254 c -0.004,3.629 0.926,6.25 2.789,7.864 1.856,1.609 4.149,2.417 6.879,2.417 l 75.492,0 c 0.742,0 1.406,-0.23 1.985,-0.683 0.578,-0.457 1.093,-1.199 1.546,-2.231 0.454,-1.035 0.782,-2.418 0.993,-4.148 0.203,-1.734 0.308,-3.84 0.312,-6.313 z"
                     style="fill:#333399;fill-opacity:1;fill-rule:nonzero;stroke:none"
                     id="path3708"
                     inkscape:connector-curvature="0" /><path
                     d="M 198.277,40.996 C 198.273,35.422 197.453,30.434 195.816,26.035 194.172,21.633 191.758,17.91 188.574,14.867 185.383,11.82 181.445,9.5 176.762,7.91 172.07,6.316 166.684,5.523 160.594,5.523 c -5.719,0 -10.852,0.711 -15.399,2.141 -4.547,1.426 -8.39,3.594 -11.531,6.5 -3.141,2.902 -5.543,6.52 -7.207,10.852 -1.664,4.328 -2.496,9.398 -2.496,15.207 l 0,55.273 c 0,0.465 0.141,0.887 0.422,1.266 0.281,0.371 0.785,0.676 1.512,0.914 0.726,0.23 1.675,0.418 2.847,0.558 1.172,0.137 2.672,0.207 4.5,0.211 1.781,-0.004 3.258,-0.074 4.43,-0.211 1.172,-0.14 2.109,-0.328 2.812,-0.558 0.704,-0.238 1.207,-0.543 1.512,-0.914 0.305,-0.379 0.457,-0.801 0.457,-1.266 l 0,-53.66 c 0,-3.609 0.445,-6.734 1.336,-9.375 0.891,-2.648 2.168,-4.836 3.832,-6.57 1.664,-1.735 3.656,-3.036 5.977,-3.899 2.32,-0.867 4.91,-1.301 7.769,-1.297 2.903,-0.004 5.5,0.442 7.801,1.332 2.293,0.887 4.238,2.188 5.836,3.899 1.59,1.711 2.82,3.816 3.691,6.324 0.864,2.5 1.297,5.348 1.301,8.535 l 0,54.711 c -0.004,0.465 0.137,0.887 0.422,1.266 0.277,0.371 0.77,0.676 1.477,0.914 0.699,0.23 1.648,0.418 2.847,0.558 1.192,0.137 2.68,0.207 4.465,0.211 1.777,-0.004 3.242,-0.074 4.395,-0.211 1.144,-0.14 2.07,-0.328 2.777,-0.558 0.699,-0.238 1.191,-0.543 1.476,-0.914 0.278,-0.379 0.418,-0.801 0.422,-1.266 l 0,-54.5 z"
                     style="fill:#333399;fill-opacity:1;fill-rule:nonzero;stroke:none"
                     id="path3710"
                     inkscape:connector-curvature="0" /><path
                     d="m 292.707,90.441 c -0.004,-1.363 -0.062,-2.523 -0.176,-3.48 -0.121,-0.961 -0.297,-1.734 -0.527,-2.316 -0.238,-0.586 -0.531,-1.016 -0.879,-1.297 -0.355,-0.282 -0.742,-0.422 -1.16,-0.422 l -22.777,0 0,-73.258 c 0,-0.473 -0.153,-0.895 -0.458,-1.266 -0.304,-0.375 -0.808,-0.675 -1.511,-0.91 -0.703,-0.234 -1.653,-0.422 -2.848,-0.562 -1.195,-0.141 -2.683,-0.211 -4.465,-0.211 -1.781,0 -3.269,0.07 -4.465,0.211 -1.195,0.14 -2.144,0.328 -2.847,0.562 -0.703,0.235 -1.207,0.535 -1.512,0.91 -0.305,0.371 -0.457,0.793 -0.457,1.266 l 0,73.258 -22.781,0 c -0.469,0 -0.867,0.14 -1.196,0.422 -0.328,0.281 -0.609,0.711 -0.843,1.297 -0.235,0.582 -0.41,1.355 -0.528,2.316 -0.117,0.957 -0.175,2.117 -0.175,3.48 0,1.403 0.058,2.594 0.175,3.579 0.118,0.98 0.293,1.765 0.528,2.355 0.234,0.582 0.515,1.004 0.843,1.266 0.329,0.254 0.727,0.382 1.196,0.386 l 64.121,0 c 0.418,-0.004 0.805,-0.132 1.16,-0.386 0.348,-0.262 0.641,-0.684 0.879,-1.266 0.23,-0.59 0.406,-1.375 0.527,-2.355 0.114,-0.985 0.172,-2.176 0.176,-3.579 z"
                     style="fill:#333399;fill-opacity:1;fill-rule:nonzero;stroke:none"
                     id="path3712"
                     inkscape:connector-curvature="0" /><path
                     d="M 405.629,40.996 C 405.625,35.422 404.805,30.434 403.168,26.035 401.523,21.633 399.109,17.91 395.926,14.867 392.734,11.82 388.797,9.5 384.113,7.91 379.422,6.316 374.035,5.523 367.945,5.523 c -5.718,0 -10.851,0.711 -15.398,2.141 -4.547,1.426 -8.391,3.594 -11.531,6.5 -3.141,2.902 -5.543,6.52 -7.207,10.852 -1.664,4.328 -2.496,9.398 -2.496,15.207 l 0,55.273 c 0,0.465 0.14,0.887 0.421,1.266 0.282,0.371 0.786,0.676 1.512,0.914 0.727,0.23 1.676,0.418 2.848,0.558 1.172,0.137 2.672,0.207 4.5,0.211 1.781,-0.004 3.258,-0.074 4.429,-0.211 1.172,-0.14 2.11,-0.328 2.813,-0.558 0.703,-0.238 1.207,-0.543 1.512,-0.914 0.304,-0.379 0.457,-0.801 0.457,-1.266 l 0,-53.66 c 0,-3.609 0.445,-6.734 1.336,-9.375 0.89,-2.648 2.168,-4.836 3.832,-6.57 1.664,-1.735 3.656,-3.036 5.976,-3.899 2.321,-0.867 4.91,-1.301 7.77,-1.297 2.902,-0.004 5.5,0.442 7.801,1.332 2.293,0.887 4.238,2.188 5.835,3.899 1.59,1.711 2.821,3.816 3.692,6.324 0.863,2.5 1.297,5.348 1.301,8.535 l 0,54.711 c -0.004,0.465 0.136,0.887 0.422,1.266 0.277,0.371 0.769,0.676 1.476,0.914 0.699,0.23 1.649,0.418 2.848,0.558 1.191,0.137 2.679,0.207 4.465,0.211 1.777,-0.004 3.242,-0.074 4.394,-0.211 1.145,-0.14 2.07,-0.328 2.777,-0.558 0.7,-0.238 1.192,-0.543 1.477,-0.914 0.277,-0.379 0.418,-0.801 0.422,-1.266 l 0,-54.5 z"
                     style="fill:#333399;fill-opacity:1;fill-rule:nonzero;stroke:none"
                     id="path3714"
                     inkscape:connector-curvature="0" /><path
                     d="m 507.02,9.527 c -0.004,-0.515 -0.098,-0.945 -0.282,-1.297 -0.191,-0.351 -0.636,-0.644 -1.336,-0.878 -0.707,-0.235 -1.738,-0.399 -3.093,-0.493 -1.364,-0.093 -3.215,-0.14 -5.555,-0.14 -1.973,0 -3.543,0.047 -4.711,0.14 -1.176,0.094 -2.102,0.27 -2.777,0.528 -0.684,0.258 -1.164,0.582 -1.442,0.98 -0.285,0.395 -0.519,0.875 -0.703,1.442 l -8.152,20.3 c -0.985,2.293 -1.946,4.329 -2.883,6.11 -0.938,1.777 -1.981,3.261 -3.129,4.457 -1.148,1.191 -2.473,2.094 -3.973,2.707 -1.5,0.605 -3.234,0.91 -5.203,0.914 l -5.765,0 0,-34.629 c 0,-0.473 -0.153,-0.895 -0.457,-1.266 -0.305,-0.375 -0.809,-0.675 -1.512,-0.91 -0.703,-0.234 -1.641,-0.422 -2.813,-0.562 -1.171,-0.141 -2.671,-0.211 -4.5,-0.211 -1.781,0 -3.269,0.07 -4.464,0.211 -1.196,0.14 -2.145,0.328 -2.848,0.562 -0.703,0.235 -1.195,0.535 -1.477,0.91 -0.281,0.371 -0.422,0.793 -0.422,1.266 l 0,82.527 c 0,2.059 0.528,3.543 1.582,4.461 1.055,0.91 2.356,1.367 3.903,1.371 l 23.555,0 c 2.39,-0.004 4.359,-0.05 5.906,-0.14 1.547,-0.098 2.953,-0.215 4.219,-0.352 3.652,-0.519 6.941,-1.41 9.875,-2.672 2.925,-1.265 5.41,-2.914 7.453,-4.949 2.035,-2.039 3.593,-4.449 4.675,-7.234 1.075,-2.789 1.614,-5.985 1.618,-9.586 -0.004,-3.047 -0.391,-5.824 -1.161,-8.324 -0.777,-2.508 -1.914,-4.743 -3.41,-6.707 -1.504,-1.969 -3.355,-3.68 -5.554,-5.129 -2.207,-1.454 -4.715,-2.621 -7.524,-3.512 1.356,-0.656 2.633,-1.453 3.832,-2.391 1.192,-0.937 2.317,-2.074 3.375,-3.406 1.051,-1.336 2.047,-2.855 2.988,-4.562 0.934,-1.711 1.848,-3.645 2.743,-5.793 l 7.664,-17.911 c 0.699,-1.785 1.168,-3.086 1.406,-3.902 0.23,-0.82 0.348,-1.465 0.352,-1.93 z m -23.836,61.668 c -0.004,2.996 -0.684,5.524 -2.039,7.586 -1.36,2.059 -3.582,3.512 -6.676,4.356 -0.938,0.234 -2.004,0.422 -3.199,0.562 -1.196,0.141 -2.848,0.211 -4.957,0.211 l -8.297,0 0,-25.777 9.422,0 c 2.625,-0.004 4.921,0.312 6.89,0.945 1.969,0.633 3.606,1.52 4.918,2.668 1.309,1.145 2.293,2.516 2.953,4.109 0.653,1.59 0.981,3.372 0.985,5.34 z"
                     style="fill:#333399;fill-opacity:1;fill-rule:nonzero;stroke:none"
                     id="path3716"
                     inkscape:connector-curvature="0" /><path
                     d="m 603.75,14.375 c -0.004,-1.359 -0.062,-2.496 -0.176,-3.406 -0.121,-0.918 -0.297,-1.656 -0.527,-2.215 -0.238,-0.563 -0.531,-0.969 -0.879,-1.227 -0.355,-0.257 -0.742,-0.386 -1.16,-0.386 l -45.699,0 c -1.547,0 -2.848,0.453 -3.903,1.367 -1.054,0.91 -1.582,2.398 -1.582,4.461 l 0,79.226 c 0,2.059 0.528,3.543 1.582,4.461 1.055,0.91 2.356,1.367 3.903,1.371 l 45.418,0 c 0.418,-0.004 0.793,-0.121 1.125,-0.351 0.324,-0.238 0.605,-0.649 0.843,-1.231 0.231,-0.59 0.407,-1.34 0.528,-2.25 0.113,-0.914 0.172,-2.07 0.175,-3.472 -0.003,-1.317 -0.062,-2.43 -0.175,-3.34 -0.121,-0.914 -0.297,-1.653 -0.528,-2.211 -0.238,-0.567 -0.519,-0.977 -0.843,-1.231 -0.332,-0.257 -0.707,-0.382 -1.125,-0.382 l -32.481,0 0,-22.196 27.488,0 c 0.418,0 0.805,-0.129 1.161,-0.386 0.347,-0.258 0.64,-0.657 0.878,-1.196 0.231,-0.539 0.407,-1.265 0.528,-2.179 0.113,-0.914 0.172,-2.028 0.176,-3.332 -0.004,-1.364 -0.063,-2.489 -0.176,-3.375 -0.121,-0.891 -0.297,-1.602 -0.528,-2.141 -0.238,-0.539 -0.531,-0.926 -0.878,-1.156 -0.356,-0.239 -0.743,-0.356 -1.161,-0.352 l -27.488,0 0,-25.637 32.762,0 c 0.418,-0.004 0.805,-0.132 1.16,-0.386 0.348,-0.262 0.641,-0.672 0.879,-1.231 0.23,-0.562 0.406,-1.297 0.527,-2.211 0.114,-0.914 0.172,-2.051 0.176,-3.406 z"
                     style="fill:#333399;fill-opacity:1;fill-rule:nonzero;stroke:none"
                     id="path3718"
                     inkscape:connector-curvature="0" /></g></g></g></g></g></g><path
         inkscape:connector-curvature="0"
         id="path3678-0"
         style="fill:#999999;fill-opacity:1;fill-rule:nonzero;stroke:none"
         d="m 167.18575,168.05104 c -0.004,-4.769 -0.629,-8.847 -1.871,-12.234 -1.25,-3.391 -3.039,-6.156 -5.367,-8.297 -2.336,-2.144 -5.172,-3.719 -8.508,-4.723 -3.344,-1.003 -7.317,-1.503 -11.926,-1.503 l -12.426,0 c -0.89,0 -1.633,0.257 -2.234,0.781 -0.602,0.519 -0.902,1.371 -0.902,2.554 l 0,45.321 c 0,1.176 0.3,2.023 0.902,2.547 0.601,0.519 1.344,0.781 2.234,0.785 l 13.352,0 c 4.64,-0.004 8.574,-0.547 11.805,-1.629 3.23,-1.086 5.953,-2.692 8.164,-4.82 2.211,-2.129 3.89,-4.762 5.046,-7.895 1.149,-3.137 1.727,-6.766 1.731,-10.887 z m -10.938,-0.359 c 0,2.461 -0.289,4.75 -0.867,6.867 -0.578,2.113 -1.504,3.949 -2.773,5.504 -1.278,1.551 -2.914,2.762 -4.906,3.637 -2,0.867 -4.622,1.304 -7.864,1.308 l -5.351,0 0,-35.359 5.511,0 c 2.895,0 5.336,0.375 7.321,1.125 1.984,0.75 3.636,1.879 4.965,3.395 1.324,1.511 2.316,3.394 2.976,5.648 0.656,2.246 0.988,4.871 0.988,7.875 z" /><path
         inkscape:connector-curvature="0"
         id="path3680-8"
         style="fill:#999999;fill-opacity:1;fill-rule:nonzero;stroke:none"
         d="m 208.38475,161.83608 c -0.004,-1.235 -0.277,-2.145 -0.828,-2.731 -0.551,-0.594 -1.309,-0.887 -2.27,-0.883 l -21.839,0 c -0.004,-1.531 0.179,-2.918 0.543,-4.16 0.359,-1.246 0.933,-2.304 1.726,-3.176 0.789,-0.871 1.809,-1.535 3.059,-1.988 1.246,-0.457 2.742,-0.683 4.484,-0.68 1.77,-0.003 3.324,0.125 4.664,0.379 1.34,0.254 2.5,0.536 3.481,0.844 0.976,0.309 1.785,0.59 2.433,0.844 0.641,0.254 1.164,0.379 1.571,0.383 0.234,-0.004 0.437,-0.051 0.601,-0.141 0.16,-0.098 0.293,-0.266 0.402,-0.504 0.106,-0.242 0.18,-0.582 0.219,-1.023 0.039,-0.442 0.059,-0.996 0.063,-1.668 -0.004,-0.59 -0.02,-1.094 -0.043,-1.508 -0.031,-0.418 -0.071,-0.774 -0.121,-1.063 -0.055,-0.296 -0.133,-0.543 -0.239,-0.742 -0.109,-0.203 -0.25,-0.398 -0.421,-0.582 -0.176,-0.191 -0.653,-0.445 -1.43,-0.765 -0.778,-0.325 -1.77,-0.641 -2.977,-0.946 -1.207,-0.308 -2.59,-0.57 -4.14,-0.801 -1.559,-0.226 -3.219,-0.343 -4.989,-0.343 -3.191,0 -5.988,0.402 -8.386,1.207 -2.403,0.804 -4.407,2.023 -6.012,3.656 -1.613,1.633 -2.813,3.691 -3.602,6.184 -0.789,2.488 -1.183,5.41 -1.183,8.761 0,3.184 0.414,6.055 1.246,8.618 0.828,2.554 2.035,4.726 3.617,6.511 1.582,1.778 3.504,3.137 5.773,4.078 2.262,0.934 4.817,1.403 7.665,1.407 3,-0.004 5.566,-0.446 7.699,-1.329 2.129,-0.882 3.879,-2.109 5.25,-3.675 1.363,-1.571 2.371,-3.426 3.015,-5.567 0.645,-2.144 0.965,-4.472 0.969,-6.988 l 0,-1.609 z m -9.816,2.894 c 0.078,2.836 -0.492,5.067 -1.711,6.688 -1.219,1.621 -3.102,2.433 -5.649,2.433 -1.289,0 -2.41,-0.242 -3.359,-0.722 -0.953,-0.485 -1.742,-1.133 -2.371,-1.95 -0.633,-0.82 -1.117,-1.785 -1.449,-2.894 -0.34,-1.113 -0.535,-2.301 -0.582,-3.555 l 15.121,0 z" /><path
         inkscape:connector-curvature="0"
         id="path3682-5"
         style="fill:#999999;fill-opacity:1;fill-rule:nonzero;stroke:none"
         d="m 241.93175,153.00008 c -0.004,-2.039 -0.383,-3.832 -1.145,-5.387 -0.765,-1.555 -1.847,-2.855 -3.238,-3.895 -1.398,-1.046 -3.047,-1.828 -4.945,-2.351 -1.906,-0.524 -3.969,-0.785 -6.195,-0.785 -1.344,0 -2.625,0.101 -3.844,0.304 -1.219,0.204 -2.313,0.457 -3.278,0.762 -0.964,0.305 -1.769,0.617 -2.41,0.942 -0.648,0.32 -1.117,0.621 -1.41,0.906 -0.297,0.277 -0.523,0.719 -0.683,1.324 -0.161,0.602 -0.243,1.496 -0.239,2.676 -0.004,0.773 0.024,1.394 0.078,1.867 0.051,0.465 0.133,0.84 0.243,1.125 0.105,0.277 0.238,0.465 0.402,0.562 0.16,0.09 0.359,0.137 0.602,0.141 0.292,-0.004 0.73,-0.172 1.308,-0.504 0.574,-0.336 1.289,-0.703 2.149,-1.105 0.855,-0.403 1.855,-0.778 3,-1.125 1.136,-0.348 2.433,-0.524 3.882,-0.52 0.911,-0.004 1.719,0.09 2.43,0.281 0.707,0.184 1.324,0.454 1.852,0.801 0.519,0.348 0.914,0.789 1.187,1.328 0.266,0.536 0.402,1.153 0.402,1.848 0,0.805 -0.25,1.492 -0.746,2.07 -0.496,0.571 -1.152,1.075 -1.968,1.504 -0.821,0.43 -1.746,0.832 -2.778,1.207 -1.035,0.375 -2.093,0.789 -3.176,1.246 -1.089,0.453 -2.148,0.977 -3.179,1.567 -1.031,0.586 -1.957,1.308 -2.774,2.168 -0.82,0.855 -1.476,1.886 -1.972,3.093 -0.496,1.204 -0.746,2.649 -0.742,4.34 -0.004,1.711 0.332,3.285 1.003,4.719 0.668,1.434 1.633,2.66 2.899,3.68 1.258,1.015 2.793,1.804 4.605,2.371 1.805,0.558 3.836,0.84 6.094,0.844 1.121,-0.004 2.215,-0.086 3.277,-0.243 1.059,-0.164 2.016,-0.363 2.875,-0.605 0.852,-0.242 1.579,-0.504 2.172,-0.781 0.59,-0.285 1.012,-0.528 1.266,-0.723 0.254,-0.203 0.434,-0.402 0.543,-0.605 0.105,-0.204 0.187,-0.446 0.242,-0.723 0.055,-0.281 0.102,-0.629 0.141,-1.043 0.039,-0.418 0.058,-0.934 0.062,-1.547 -0.004,-0.726 -0.023,-1.316 -0.062,-1.769 -0.039,-0.457 -0.106,-0.817 -0.2,-1.082 -0.093,-0.27 -0.222,-0.454 -0.382,-0.543 -0.164,-0.098 -0.352,-0.145 -0.563,-0.141 -0.246,-0.004 -0.621,0.137 -1.129,0.422 -0.508,0.277 -1.144,0.578 -1.91,0.902 -0.766,0.32 -1.652,0.625 -2.652,0.906 -1.008,0.282 -2.153,0.422 -3.442,0.422 -0.914,0 -1.707,-0.093 -2.371,-0.281 -0.672,-0.187 -1.218,-0.457 -1.648,-0.805 -0.43,-0.351 -0.754,-0.761 -0.969,-1.226 -0.215,-0.473 -0.32,-0.973 -0.32,-1.504 0,-0.832 0.254,-1.527 0.765,-2.09 0.508,-0.562 1.18,-1.059 2.012,-1.488 0.828,-0.43 1.77,-0.832 2.832,-1.203 1.055,-0.379 2.129,-0.789 3.219,-1.227 1.082,-0.445 2.156,-0.961 3.219,-1.547 1.058,-0.594 2.004,-1.316 2.836,-2.172 0.828,-0.859 1.496,-1.883 2.007,-3.074 0.508,-1.191 0.762,-2.605 0.766,-4.234 z" /><path
         inkscape:connector-curvature="0"
         id="path3684-3"
         style="fill:#999999;fill-opacity:1;fill-rule:nonzero;stroke:none"
         d="m 259.67375,142.87508 c -0.004,-0.274 -0.086,-0.508 -0.242,-0.703 -0.164,-0.204 -0.437,-0.372 -0.824,-0.504 -0.391,-0.133 -0.906,-0.231 -1.547,-0.301 -0.645,-0.067 -1.461,-0.098 -2.453,-0.102 -0.992,0.004 -1.813,0.035 -2.457,0.102 -0.645,0.07 -1.16,0.168 -1.547,0.301 -0.391,0.132 -0.664,0.3 -0.824,0.504 -0.164,0.195 -0.246,0.429 -0.243,0.703 l 0,35.758 c -0.003,0.265 0.079,0.5 0.243,0.703 0.16,0.199 0.433,0.371 0.824,0.519 0.387,0.145 0.902,0.258 1.547,0.344 0.644,0.078 1.465,0.121 2.457,0.121 0.992,0 1.808,-0.043 2.453,-0.121 0.641,-0.086 1.156,-0.199 1.547,-0.344 0.387,-0.148 0.66,-0.32 0.824,-0.519 0.156,-0.203 0.238,-0.438 0.242,-0.703 l 0,-35.758 z m 0.766,47.972 c -0.004,-2.039 -0.418,-3.445 -1.25,-4.222 -0.832,-0.778 -2.375,-1.168 -4.625,-1.164 -2.281,-0.004 -3.817,0.371 -4.606,1.125 -0.793,0.746 -1.187,2.101 -1.183,4.058 -0.004,2.035 0.406,3.446 1.226,4.239 0.817,0.789 2.364,1.187 4.645,1.187 2.25,0 3.777,-0.383 4.586,-1.148 0.801,-0.766 1.203,-2.125 1.207,-4.075 z" /><path
         inkscape:connector-curvature="0"
         id="path3686-7"
         style="fill:#999999;fill-opacity:1;fill-rule:nonzero;stroke:none"
         d="m 302.38875,176.22208 c 0,-1.289 -0.148,-2.242 -0.445,-2.855 -0.297,-0.617 -0.66,-0.922 -1.086,-0.922 l -4.223,0 c 0.59,-0.645 1.012,-1.375 1.266,-2.191 0.254,-0.817 0.379,-1.668 0.383,-2.551 -0.004,-2.09 -0.352,-3.945 -1.047,-5.567 -0.7,-1.621 -1.7,-2.988 -2.996,-4.097 -1.305,-1.114 -2.871,-1.957 -4.704,-2.531 -1.839,-0.579 -3.882,-0.864 -6.132,-0.864 -1.157,0 -2.258,0.141 -3.301,0.422 -1.047,0.281 -1.852,0.609 -2.41,0.984 -0.328,-0.347 -0.617,-0.765 -0.867,-1.246 -0.258,-0.484 -0.383,-1.019 -0.383,-1.605 0,-0.781 0.34,-1.418 1.027,-1.91 0.68,-0.5 1.641,-0.774 2.875,-0.821 l 8.727,-0.324 c 2.035,-0.078 3.851,-0.367 5.449,-0.863 1.594,-0.496 2.937,-1.191 4.023,-2.09 1.086,-0.898 1.914,-1.976 2.492,-3.234 0.575,-1.258 0.864,-2.688 0.868,-4.297 -0.004,-1.766 -0.391,-3.434 -1.168,-5 -0.778,-1.567 -1.946,-2.926 -3.5,-4.078 -1.559,-1.153 -3.508,-2.063 -5.852,-2.735 -2.344,-0.664 -5.086,-1 -8.223,-1.004 -3.058,0.004 -5.667,0.247 -7.824,0.723 -2.164,0.484 -3.933,1.152 -5.308,2.008 -1.383,0.859 -2.387,1.883 -3.016,3.074 -0.633,1.195 -0.949,2.504 -0.945,3.918 -0.004,0.887 0.109,1.731 0.34,2.531 0.226,0.805 0.562,1.575 1.007,2.309 0.438,0.738 0.981,1.437 1.629,2.109 0.641,0.668 1.379,1.313 2.211,1.93 -1.156,0.617 -2.047,1.453 -2.676,2.512 -0.628,1.054 -0.945,2.215 -0.941,3.476 -0.004,1.578 0.359,3.016 1.086,4.317 0.723,1.297 1.66,2.468 2.812,3.515 -0.941,0.934 -1.691,2.059 -2.253,3.375 -0.563,1.309 -0.844,2.942 -0.844,4.903 0,2.086 0.367,3.953 1.105,5.601 0.739,1.645 1.766,3.039 3.078,4.18 1.313,1.137 2.879,2.008 4.707,2.613 1.821,0.598 3.832,0.899 6.032,0.903 1.125,-0.004 2.203,-0.071 3.238,-0.2 1.031,-0.136 1.992,-0.324 2.875,-0.562 l 11.383,0 c 0.453,-0.004 0.82,-0.301 1.105,-0.887 0.282,-0.594 0.426,-1.582 0.426,-2.969 z m -12.992,-8.48 c -0.004,1.926 -0.539,3.426 -1.61,4.5 -1.074,1.07 -2.589,1.609 -4.542,1.609 -0.997,0 -1.868,-0.168 -2.618,-0.504 -0.75,-0.336 -1.375,-0.793 -1.871,-1.367 -0.496,-0.578 -0.863,-1.246 -1.105,-2.008 -0.242,-0.765 -0.364,-1.562 -0.36,-2.39 -0.004,-1.821 0.532,-3.262 1.606,-4.321 1.07,-1.058 2.558,-1.586 4.465,-1.586 1.019,0 1.906,0.161 2.656,0.481 0.75,0.32 1.371,0.762 1.867,1.328 0.496,0.559 0.871,1.207 1.129,1.949 0.25,0.735 0.379,1.504 0.383,2.309 z m 2.371,-28.606 c -0.004,1.207 -0.484,2.129 -1.449,2.774 -0.965,0.64 -2.293,0.988 -3.981,1.043 l -7.199,0.203 c -0.695,-0.516 -1.254,-1.004 -1.668,-1.469 -0.422,-0.469 -0.758,-0.914 -1.008,-1.344 -0.258,-0.425 -0.422,-0.839 -0.5,-1.246 -0.082,-0.398 -0.125,-0.816 -0.121,-1.246 -0.004,-1.336 0.676,-2.351 2.031,-3.051 1.352,-0.695 3.262,-1.042 5.731,-1.046 1.527,0.004 2.812,0.156 3.859,0.461 1.043,0.308 1.887,0.718 2.535,1.226 0.641,0.512 1.098,1.078 1.368,1.707 0.265,0.633 0.398,1.297 0.402,1.988 z" /><path
         inkscape:connector-curvature="0"
         id="path3688-9"
         style="fill:#999999;fill-opacity:1;fill-rule:nonzero;stroke:none"
         d="m 343.36175,142.87508 c -0.004,-0.274 -0.082,-0.508 -0.242,-0.703 -0.165,-0.204 -0.434,-0.372 -0.805,-0.504 -0.379,-0.133 -0.895,-0.231 -1.551,-0.301 -0.656,-0.067 -1.469,-0.098 -2.43,-0.102 -0.996,0.004 -1.82,0.035 -2.476,0.102 -0.66,0.07 -1.176,0.168 -1.547,0.301 -0.379,0.132 -0.649,0.3 -0.805,0.504 -0.164,0.195 -0.242,0.429 -0.242,0.703 l 0,20.449 c 0,1.738 -0.129,3.105 -0.383,4.098 -0.254,0.988 -0.621,1.839 -1.105,2.55 -0.485,0.711 -1.11,1.258 -1.871,1.649 -0.766,0.383 -1.657,0.578 -2.672,0.582 -1.289,-0.004 -2.59,-0.473 -3.903,-1.406 -1.316,-0.942 -2.683,-2.309 -4.101,-4.098 l 0,-23.824 c -0.004,-0.274 -0.086,-0.508 -0.242,-0.703 -0.164,-0.204 -0.438,-0.372 -0.825,-0.504 -0.39,-0.133 -0.906,-0.231 -1.546,-0.301 -0.645,-0.067 -1.461,-0.098 -2.454,-0.102 -0.992,0.004 -1.812,0.035 -2.457,0.102 -0.644,0.07 -1.16,0.168 -1.546,0.301 -0.391,0.132 -0.664,0.3 -0.825,0.504 -0.164,0.195 -0.246,0.429 -0.242,0.703 l 0,35.836 c -0.004,0.265 0.063,0.5 0.199,0.703 0.133,0.195 0.375,0.363 0.727,0.5 0.348,0.133 0.797,0.234 1.348,0.304 0.546,0.067 1.238,0.102 2.07,0.102 0.859,0 1.57,-0.035 2.133,-0.102 0.562,-0.07 0.996,-0.171 1.304,-0.304 0.309,-0.137 0.532,-0.305 0.664,-0.5 0.133,-0.203 0.2,-0.438 0.204,-0.703 l 0,-4.137 c 1.98,2.141 3.996,3.75 6.05,4.82 2.047,1.071 4.188,1.606 6.418,1.61 2.438,-0.004 4.496,-0.407 6.172,-1.207 1.676,-0.809 3.028,-1.903 4.063,-3.278 1.031,-1.383 1.777,-2.996 2.234,-4.84 0.453,-1.851 0.68,-4.074 0.684,-6.668 l 0,-22.136 z" /><path
         inkscape:connector-curvature="0"
         id="path3690-6"
         style="fill:#999999;fill-opacity:1;fill-rule:nonzero;stroke:none"
         d="m 401.74775,189.16008 c -0.003,-0.809 -0.035,-1.485 -0.101,-2.031 -0.07,-0.551 -0.18,-0.989 -0.324,-1.309 -0.149,-0.324 -0.317,-0.566 -0.5,-0.723 -0.192,-0.164 -0.407,-0.242 -0.645,-0.238 l -17.012,0 0,-13.98 15.969,0 c 0.235,-0.004 0.449,-0.071 0.641,-0.204 0.183,-0.132 0.351,-0.363 0.504,-0.683 0.144,-0.324 0.25,-0.75 0.32,-1.285 0.062,-0.535 0.098,-1.207 0.102,-2.008 -0.004,-0.809 -0.04,-1.477 -0.102,-2.012 -0.07,-0.535 -0.176,-0.976 -0.32,-1.324 -0.153,-0.348 -0.321,-0.598 -0.504,-0.742 -0.192,-0.153 -0.406,-0.227 -0.641,-0.223 l -15.969,0 0,-19.363 c 0,-0.297 -0.082,-0.551 -0.242,-0.766 -0.164,-0.215 -0.453,-0.398 -0.867,-0.543 -0.418,-0.148 -0.961,-0.258 -1.629,-0.34 -0.672,-0.078 -1.527,-0.117 -2.57,-0.121 -1.02,0.004 -1.871,0.043 -2.555,0.121 -0.683,0.082 -1.226,0.192 -1.629,0.34 -0.402,0.145 -0.691,0.328 -0.863,0.543 -0.176,0.215 -0.262,0.469 -0.262,0.766 l 0,47.129 c 0,1.176 0.301,2.023 0.903,2.547 0.601,0.519 1.343,0.781 2.234,0.785 l 24.492,0 c 0.238,-0.004 0.453,-0.078 0.645,-0.223 0.183,-0.148 0.351,-0.39 0.5,-0.723 0.144,-0.335 0.254,-0.781 0.324,-1.343 0.066,-0.563 0.098,-1.246 0.101,-2.047 z" /><path
         inkscape:connector-curvature="0"
         id="path3692-3"
         style="fill:#999999;fill-opacity:1;fill-rule:nonzero;stroke:none"
         d="m 446.02975,161.15608 c -0.004,-3.059 -0.407,-5.844 -1.207,-8.359 -0.809,-2.52 -2.028,-4.688 -3.661,-6.508 -1.636,-1.821 -3.691,-3.227 -6.156,-4.219 -2.469,-0.992 -5.347,-1.488 -8.644,-1.488 -3.196,0 -5.973,0.441 -8.328,1.324 -2.364,0.883 -4.321,2.168 -5.872,3.859 -1.558,1.684 -2.71,3.758 -3.46,6.227 -0.75,2.461 -1.125,5.273 -1.125,8.437 0,3.051 0.406,5.844 1.226,8.379 0.813,2.528 2.039,4.7 3.68,6.508 1.633,1.805 3.679,3.203 6.137,4.199 2.449,0.989 5.324,1.485 8.625,1.489 3.214,-0.004 6.003,-0.442 8.367,-1.309 2.355,-0.875 4.304,-2.152 5.851,-3.836 1.539,-1.691 2.688,-3.766 3.438,-6.226 0.75,-2.465 1.125,-5.293 1.129,-8.477 z m -10.418,-0.402 c -0.004,1.765 -0.145,3.39 -0.422,4.879 -0.285,1.484 -0.762,2.777 -1.43,3.878 -0.672,1.094 -1.562,1.954 -2.676,2.571 -1.113,0.617 -2.515,0.926 -4.199,0.926 -1.508,0 -2.82,-0.278 -3.945,-0.825 -1.125,-0.554 -2.051,-1.355 -2.774,-2.41 -0.726,-1.058 -1.269,-2.332 -1.629,-3.816 -0.363,-1.489 -0.542,-3.184 -0.542,-5.082 0,-1.774 0.144,-3.399 0.441,-4.883 0.293,-1.488 0.769,-2.781 1.43,-3.879 0.652,-1.098 1.543,-1.949 2.671,-2.551 1.125,-0.605 2.52,-0.906 4.184,-0.902 1.524,-0.004 2.852,0.269 3.981,0.824 1.125,0.547 2.05,1.344 2.777,2.391 0.723,1.039 1.258,2.304 1.609,3.793 0.344,1.484 0.52,3.179 0.524,5.086 z" /><path
         inkscape:connector-curvature="0"
         id="path3694-1"
         style="fill:#999999;fill-opacity:1;fill-rule:nonzero;stroke:none"
         d="m 477.11175,175.37908 c 0,-0.969 -0.028,-1.762 -0.082,-2.375 -0.055,-0.618 -0.137,-1.098 -0.239,-1.446 -0.109,-0.347 -0.25,-0.59 -0.421,-0.722 -0.18,-0.137 -0.399,-0.203 -0.665,-0.2 -0.218,-0.003 -0.46,0.043 -0.726,0.141 -0.27,0.09 -0.574,0.191 -0.906,0.301 -0.336,0.105 -0.703,0.207 -1.106,0.301 -0.402,0.093 -0.844,0.14 -1.324,0.14 -0.566,0 -1.129,-0.117 -1.691,-0.344 -0.563,-0.23 -1.149,-0.582 -1.75,-1.062 -0.606,-0.484 -1.235,-1.129 -1.891,-1.93 -0.66,-0.804 -1.363,-1.797 -2.109,-2.972 l 0,-22.336 c -0.004,-0.274 -0.086,-0.508 -0.243,-0.703 -0.164,-0.204 -0.437,-0.372 -0.824,-0.504 -0.39,-0.133 -0.906,-0.231 -1.547,-0.301 -0.644,-0.067 -1.461,-0.098 -2.453,-0.102 -0.992,0.004 -1.812,0.035 -2.457,0.102 -0.644,0.07 -1.16,0.168 -1.547,0.301 -0.39,0.132 -0.664,0.3 -0.824,0.504 -0.164,0.195 -0.246,0.429 -0.242,0.703 l 0,35.836 c -0.004,0.265 0.062,0.5 0.199,0.703 0.133,0.195 0.375,0.363 0.727,0.5 0.347,0.133 0.796,0.234 1.347,0.304 0.547,0.067 1.239,0.102 2.071,0.102 0.859,0 1.57,-0.035 2.132,-0.102 0.563,-0.07 0.996,-0.171 1.305,-0.304 0.309,-0.137 0.531,-0.305 0.664,-0.5 0.133,-0.203 0.199,-0.438 0.203,-0.703 l 0,-4.457 c 0.934,1.336 1.817,2.441 2.653,3.312 0.828,0.867 1.621,1.555 2.375,2.067 0.746,0.507 1.496,0.863 2.25,1.066 0.75,0.199 1.5,0.301 2.254,0.305 0.343,-0.004 0.718,-0.024 1.125,-0.063 0.398,-0.039 0.816,-0.105 1.246,-0.199 0.429,-0.094 0.804,-0.203 1.129,-0.324 0.32,-0.121 0.554,-0.25 0.703,-0.383 0.144,-0.137 0.25,-0.281 0.32,-0.442 0.062,-0.16 0.125,-0.382 0.184,-0.66 0.05,-0.285 0.089,-0.707 0.121,-1.265 0.023,-0.567 0.039,-1.328 0.039,-2.289 z" /></g></g></svg>