<?xml version="1.0" encoding="UTF-8" standalone="no"?>
<svg
   xmlns:dc="http://purl.org/dc/elements/1.1/"
   xmlns:cc="http://creativecommons.org/ns#"
   xmlns:rdf="http://www.w3.org/1999/02/22-rdf-syntax-ns#"
   xmlns:svg="http://www.w3.org/2000/svg"
   xmlns="http://www.w3.org/2000/svg"
   viewBox="0 0 2980 353.75"
   xml:space="preserve"
   version="1.1"
   width="900px"
   height="95px"
   id="svg2"><metadata
     id="metadata8"><rdf:RDF><cc:Work
         rdf:about=""><dc:format>image/svg+xml</dc:format><dc:type
           rdf:resource="http://purl.org/dc/dcmitype/StillImage" /></cc:Work></rdf:RDF></metadata><defs
     id="defs6"><clipPath
       id="clipPath18"
       clipPathUnits="userSpaceOnUse"><path
         id="path20"
         d="m 2.618182,-0.0908969 2378.618018,0 0,283.0908969 -2378.618018,0 0,-283.0908969 z" /></clipPath><clipPath
       id="clipPath28"
       clipPathUnits="userSpaceOnUse"><path
         id="path30"
         d="m 2086.494,274.8683 265.13,0 0,-94.6562 -265.13,0 0,94.6562 z" /></clipPath><clipPath
       id="clipPath34"
       clipPathUnits="userSpaceOnUse"><path
         id="path36"
         d="m 2086.494,180.2121 265.1299,0 0,94.65617 -265.1299,0 0,-94.65617 z" /></clipPath><clipPath
       id="clipPath44"
       clipPathUnits="userSpaceOnUse"><path
         id="path46"
         d="m 2086.494,274.8683 265.13,0 0,-94.6562 -265.13,0 0,94.6562 z" /></clipPath><clipPath
       id="clipPath50"
       clipPathUnits="userSpaceOnUse"><path
         id="path52"
         d="m 2086.494,272.7922 264.643,0 0,-92.3907 -264.643,0 0,92.3907 z" /></clipPath><clipPath
       id="clipPath56"
       clipPathUnits="userSpaceOnUse"><path
         id="path58"
         d="m 2086.494,180.2121 265.1299,0 0,94.65617 -265.1299,0 0,-94.65617 z" /></clipPath><clipPath
       id="clipPath68"
       clipPathUnits="userSpaceOnUse"><path
         id="path70"
         d="m 28.05867,272.4988 789.65283,0 0,-254.16232 -789.65283,0 0,254.16232 z" /></clipPath><clipPath
       id="clipPath74"
       clipPathUnits="userSpaceOnUse"><path
         id="path76"
         d="m 28.05868,266.8481 789.66852,0 0,-248.88365 -789.66852,0 0,248.88365 z" /></clipPath><clipPath
       id="clipPath80"
       clipPathUnits="userSpaceOnUse"><path
         id="path82"
         d="m 28.05868,18.33647 789.653,0 0,254.1623 -789.653,0 0,-254.1623 z" /></clipPath><clipPath
       id="clipPath86"
       clipPathUnits="userSpaceOnUse"><path
         id="path88"
         d="m 28,18 790,0 0,218 -790,0 0,-218 z" /></clipPath><clipPath
       id="clipPath90"
       clipPathUnits="userSpaceOnUse"><path
         id="path92"
         d="m 28.05868,266.8484 789.66852,0 0,-248.88375 -789.66852,0 0,248.88375 z" /></clipPath><clipPath
       id="clipPath94"
       clipPathUnits="userSpaceOnUse"><path
         id="path96"
         d="m 28.05868,18 789.6685,0 0,249 -789.6685,0 0,-249 z" /></clipPath><clipPath
       id="clipPath98"
       clipPathUnits="userSpaceOnUse"><path
         id="path100"
         d="m 28,18 790,0 0,218 -790,0 0,-218 z" /></clipPath><clipPath
       id="clipPath102"
       clipPathUnits="userSpaceOnUse"><path
         id="path104"
         d="m 28.05868,18 789.6685,0 0,249 -789.6685,0 0,-249 z" /></clipPath><clipPath
       id="clipPath158"
       clipPathUnits="userSpaceOnUse"><path
         id="path160"
         d="m 28.05867,272.4988 789.65283,0 0,-254.16232 -789.65283,0 0,254.16232 z" /></clipPath><clipPath
       id="clipPath164"
       clipPathUnits="userSpaceOnUse"><path
         id="path166"
         d="m 28.05868,18.33647 789.653,0 0,254.1623 -789.653,0 0,-254.1623 z" /></clipPath><clipPath
       id="clipPath190"
       clipPathUnits="userSpaceOnUse"><path
         id="path192"
         d="m 2.618182,-0.0908969 2378.618018,0 0,283.0908969 -2378.618018,0 0,-283.0908969 z" /></clipPath></defs><g
     transform="matrix(1.25,0,0,-1.25,0,353.75)"
     id="g10"><g
       id="g12" /><g
       id="g14"><g
         clip-path="url(#clipPath18)"
         id="g16"><path
           id="path22"
           style="fill:#ffffff;fill-opacity:1;fill-rule:evenodd;stroke:none"
           d="m 2.618181,283 2378.685819,0 0,-282.97072774 -2378.685819,0 0,282.97072774 z" /></g></g><g
       id="g24"><g
         clip-path="url(#clipPath28)"
         id="g26"><g
           clip-path="url(#clipPath34)"
           id="g32"><path
             id="path38"
             style="fill:#2056ae;fill-opacity:1;fill-rule:nonzero;stroke:none"
             d="m 2086.494,181.7803 47.496,0 c 12.559,0 23.47,2.6977 31.206,9.5161 7.736,6.8152 12.48,17.8332 12.49,34.9439 -0.01,18.3759 -4.432,29.5359 -11.799,36.146 -7.366,6.6165 -17.915,8.8378 -30.502,8.8346 l 0,0.003 -48.891,0 0,-19.3162 41.41,0 c 6.275,0.0316 10.565,-2.1929 12.989,-6.4966 2.43,-4.269 3.159,-10.3459 3.169,-18.256 -0.01,-7.6451 -0.676,-13.6526 -3.052,-17.9279 -2.374,-4.2974 -6.635,-6.6007 -12.979,-6.5628 l -9.435,0 0,31.6593 -32.102,0 0,-52.5436" /></g></g></g><g
       id="g40"><g
         clip-path="url(#clipPath44)"
         id="g42"><g
           clip-path="url(#clipPath50)"
           id="g48"><g
             clip-path="url(#clipPath56)"
             id="g54"><path
               id="path60"
               style="fill:#2056ae;fill-opacity:1;fill-rule:nonzero;stroke:none"
               d="m 2184.658,181.7803 32.103,0 0,32.445 39.993,0 0,20.0986 -39.993,0 0,17.584 39.993,0 0,19.3162 -72.096,0 0,-89.4438" /><path
               id="path62"
               style="fill:#2056ae;fill-opacity:1;fill-rule:nonzero;stroke:none"
               d="m 2278.861,261.5123 c -9.485,-7.4999 -15.478,-18.6535 -15.491,-33.7039 0.013,-16.0663 5.782,-27.8762 15.134,-35.7642 9.359,-7.8849 22.385,-11.8321 36.926,-11.8321 13.623,0.003 24.382,1.3757 35.707,4.7328 l 0,41.2701 -27.28,0 0,-24.0363 -0.602,-0.2335 c -2.295,-0.8771 -5.155,-0.8393 -7.572,-0.8519 -7.033,-0.0189 -12.045,2.9217 -15.122,7.4778 -3.081,4.553 -4.321,10.6141 -4.328,17.0161 -0.01,8.5064 2.885,15.1733 8.008,19.6285 5.12,4.4583 12.363,6.6922 20.955,6.6922 8.784,0 15.709,-1.9752 20.633,-4.5719 l 0,22.2537 c -8.112,1.9814 -14.286,3.1962 -30.399,3.2025 l -0.01,0 c -14.03,0 -27.075,-3.7894 -36.563,-11.2799" /></g></g></g></g><g
       id="g64"><g
         clip-path="url(#clipPath68)"
         id="g66"><g
           clip-path="url(#clipPath74)"
           id="g72"><g
             clip-path="url(#clipPath80)"
             id="g78"><g
               id="g84" /><g
               id="g106"><g
                 id="g108"
                 clip-path="url(#clipPath86)"><g
                   id="g110" /><g
                   id="g112"><g
                     id="g114"
                     clip-path="url(#clipPath90)"><g
                       id="g116"
                       clip-path="url(#clipPath94)"><g
                         id="g118" /><g
                         id="g120"><g
                           id="g122"
                           clip-path="url(#clipPath98)"><g
                             id="g124" /><g
                             id="g126"><g
                               id="g128"
                               clip-path="url(#clipPath102)"><path
                                 id="path130"
                                 style="fill:#c0c0c0;fill-opacity:1;fill-rule:nonzero;stroke:none"
                                 d="m 152.3815,210.9156 c -0.005,-3.2095 -0.1413,-5.9084 -0.4058,-8.1017 -0.2736,-2.2023 -0.6989,-3.9393 -1.2863,-5.2252 -0.5874,-1.2807 -1.2565,-2.2439 -2.0059,-2.8816 -0.7495,-0.643 -1.6105,-0.967 -2.5726,-0.967 l -67.98931,0 0,-55.8563 63.81011,0 c 0.9622,-0.005 1.8244,-0.2735 2.5739,-0.805 0.7495,-0.5366 1.4173,-1.4479 2.006,-2.7286 0.5874,-1.2859 1.0126,-2.9983 1.2862,-5.1397 0.2633,-2.1376 0.3994,-4.8208 0.4046,-8.0213 -0.005,-3.22 -0.1413,-5.889 -0.4046,-8.0304 -0.2736,-2.1363 -0.6988,-3.9044 -1.2862,-5.2966 -0.5887,-1.3974 -1.2565,-2.3799 -2.006,-2.9671 -0.7495,-0.5924 -1.6117,-0.8815 -2.5739,-0.8815 l -63.81011,0 0,-77.37562 C 78.1164,25.45319 77.79224,24.4408 77.15427,23.58916 76.50594,22.72843 75.3571,22.0103 73.69996,21.42309 c -1.66621,-0.58851 -3.83942,-1.0435 -6.51315,-1.36757 -2.68538,-0.30851 -6.10858,-0.47054 -10.28254,-0.47573 -4.07282,0.0052 -7.47657,0.16722 -10.21123,0.47573 -2.73467,0.32407 -4.90788,0.77906 -6.50796,1.36757 -1.61175,0.58721 -2.7606,1.30534 -3.45431,2.16607 -0.7002,0.85164 -1.049,1.86403 -1.04382,3.04882 l 0,188.28832 c -0.0052,4.7093 1.20071,8.1017 3.6164,10.1977 2.40531,2.0857 5.37856,3.1292 8.91975,3.1292 l 97.8878,0 c 0.9621,0 1.8231,-0.2929 2.5726,-0.8801 0.7494,-0.5937 1.4185,-1.5555 2.0059,-2.8972 0.5874,-1.3416 1.0127,-3.1344 1.2863,-5.3717 0.2645,-2.2491 0.4007,-4.9777 0.4058,-8.1886 z" /><path
                                 id="path132"
                                 style="fill:#c0c0c0;fill-opacity:1;fill-rule:nonzero;stroke:none"
                                 d="m 291.9506,64.32053 c -0.005,-7.22541 -1.0697,-13.69638 -3.1911,-19.39348 -2.133,-5.71137 -5.2632,-10.53219 -9.3917,-14.47674 -4.1377,-3.94844 -9.2426,-6.95708 -15.3162,-9.01815 -6.0827,-2.06495 -13.0678,-3.0929 -20.9645,-3.0929 -7.4156,0 -14.0714,0.92165 -19.966,2.77402 -5.896,1.8433 -10.8803,4.65361 -14.9532,8.42575 -4.0715,3.76307 -7.1874,8.44649 -9.345,14.06193 -2.1577,5.61026 -3.2365,12.18752 -3.2365,19.71237 l 0,71.65387 c 0,0.6028 0.1828,1.1446 0.5472,1.6359 0.3644,0.4809 1.0179,0.8815 1.9606,1.1848 0.9413,0.3033 2.1732,0.5418 3.6916,0.7298 1.5197,0.1763 3.4646,0.2683 5.8349,0.2735 2.3107,-0.005 4.2246,-0.0972 5.7443,-0.2735 1.5197,-0.188 2.7359,-0.4265 3.6475,-0.7298 0.9115,-0.3033 1.565,-0.7039 1.9593,-1.1848 0.3954,-0.4913 0.5925,-1.0331 0.5925,-1.6359 l 0,-69.55781 c 0,-4.68341 0.5783,-8.73426 1.7324,-12.15252 1.1553,-3.43252 2.8111,-6.26876 4.9688,-8.52167 2.1576,-2.24384 4.7419,-3.92899 7.7502,-5.04897 3.0082,-1.12387 6.3666,-1.68515 10.0737,-1.67997 3.7643,-0.0052 7.1317,0.56647 10.1153,1.72663 2.9732,1.1485 5.4966,2.82976 7.5673,5.04768 2.0617,2.21792 3.6566,4.95175 4.7873,8.20279 1.119,3.24067 1.6805,6.92726 1.6857,11.06366 l 0,70.92018 c -0.005,0.6028 0.1776,1.1446 0.5472,1.6359 0.3604,0.4809 0.9984,0.8815 1.9152,1.1848 0.9063,0.3033 2.1369,0.5418 3.6916,0.7298 1.5456,0.1763 3.475,0.2683 5.7896,0.2735 2.3054,-0.005 4.205,-0.0972 5.6988,-0.2735 1.4834,-0.188 2.6841,-0.4265 3.6008,-0.7298 0.9064,-0.3033 1.5457,-0.7039 1.9152,-1.1848 0.3592,-0.4913 0.542,-1.0331 0.5472,-1.6359 l 0,-70.64667 z" /><path
                                 id="path134"
                                 style="fill:#c0c0c0;fill-opacity:1;fill-rule:nonzero;stroke:none"
                                 d="m 414.3933,128.4159 c -0.005,-1.7681 -0.0803,-3.2718 -0.2269,-4.5124 -0.1582,-1.2457 -0.3851,-2.2529 -0.6846,-3.0021 -0.3086,-0.7648 -0.6886,-1.317 -1.1398,-1.6865 -0.4603,-0.359 -0.9621,-0.547 -1.5041,-0.547 l -29.5341,0 0,-94.9569 c 0,-0.61184 -0.1985,-1.15886 -0.5926,-1.63978 -0.3955,-0.4861 -1.049,-0.88146 -1.9606,-1.1809 -0.9115,-0.30851 -2.142,-0.54573 -3.6929,-0.73369 -1.5495,-0.17758 -3.4789,-0.27351 -5.7883,-0.27351 -2.3107,0 -4.2401,0.09593 -5.7896,0.27351 -1.5508,0.18796 -2.7813,0.42518 -3.6929,0.73369 -0.9116,0.29944 -1.5651,0.6948 -1.9606,1.1809 -0.3941,0.48092 -0.5925,1.02794 -0.5925,1.63978 l 0,94.9569 -29.5393,0 c -0.6082,0 -1.1242,0.188 -1.5496,0.547 -0.4253,0.3695 -0.7909,0.9217 -1.0943,1.6865 -0.3035,0.7492 -0.5317,1.7564 -0.6834,3.0021 -0.153,1.2406 -0.2282,2.7443 -0.2282,4.5124 0,1.8121 0.0752,3.3612 0.2282,4.638 0.1517,1.2704 0.3799,2.2879 0.6834,3.0527 0.3034,0.7545 0.669,1.3015 1.0943,1.6359 0.4254,0.3345 0.9414,0.5017 1.5496,0.5069 l 83.1434,0 c 0.542,-0.005 1.0438,-0.1724 1.5041,-0.5069 0.4512,-0.3344 0.8312,-0.8814 1.1398,-1.6359 0.2995,-0.7648 0.5264,-1.7823 0.6846,-3.0527 0.1466,-1.2768 0.2217,-2.8259 0.2269,-4.638 z" /><path
                                 id="path136"
                                 style="fill:#c0c0c0;fill-opacity:1;fill-rule:nonzero;stroke:none"
                                 d="m 560.8152,64.32053 c -0.005,-7.22541 -1.0684,-13.69638 -3.1911,-19.39348 -2.1317,-5.71137 -5.2618,-10.53219 -9.3904,-14.47674 -4.1376,-3.94844 -9.244,-6.95708 -15.3162,-9.01815 -6.0839,-2.06495 -13.0691,-3.0929 -20.9644,-3.0929 -7.4157,0 -14.0714,0.92165 -19.9674,2.77402 -5.8959,1.8433 -10.879,4.65361 -14.9518,8.42575 -4.0729,3.76307 -7.1874,8.44649 -9.3451,14.06193 -2.1576,5.61026 -3.2364,12.18752 -3.2364,19.71237 l 0,71.65387 c 0,0.6028 0.1815,1.1446 0.5471,1.6359 0.3644,0.4809 1.0179,0.8815 1.9593,1.1848 0.9427,0.3033 2.1732,0.5418 3.6929,0.7298 1.5197,0.1763 3.4647,0.2683 5.835,0.2735 2.3093,-0.005 4.2245,-0.0972 5.7442,-0.2735 1.5197,-0.188 2.7346,-0.4265 3.6462,-0.7298 0.9116,-0.3033 1.5651,-0.7039 1.9606,-1.1848 0.3955,-0.4913 0.5926,-1.0331 0.5926,-1.6359 l 0,-69.55781 c 0,-4.68341 0.577,-8.73426 1.7323,-12.15252 1.1553,-3.43252 2.8112,-6.26876 4.9688,-8.52167 2.1577,-2.24384 4.7406,-3.92899 7.7502,-5.04897 3.0083,-1.12387 6.3666,-1.68515 10.0738,-1.67997 3.7629,-0.0052 7.1316,0.56647 10.1153,1.72663 2.9732,1.1485 5.4952,2.82976 7.5673,5.04768 2.0617,2.21792 3.6566,4.95175 4.786,8.20279 1.119,3.24067 1.6818,6.92726 1.687,11.06366 l 0,70.92018 c -0.005,0.6028 0.1776,1.1446 0.5471,1.6359 0.3592,0.4809 0.9971,0.8815 1.9139,1.1848 0.9077,0.3033 2.1382,0.5418 3.6929,0.7298 1.5443,0.1763 3.4751,0.2683 5.7896,0.2735 2.3041,-0.005 4.2038,-0.0972 5.6975,-0.2735 1.4848,-0.188 2.6854,-0.4265 3.6022,-0.7298 0.9064,-0.3033 1.5443,-0.7039 1.9139,-1.1848 0.3604,-0.4913 0.542,-1.0331 0.5471,-1.6359 l 0,-70.64667 z" /><path
                                 id="path138"
                                 style="fill:#c0c0c0;fill-opacity:1;fill-rule:nonzero;stroke:none"
                                 d="m 692.2853,23.52953 c -0.005,-0.67406 -0.1271,-1.22627 -0.3643,-1.68127 -0.249,-0.45628 -0.826,-0.83609 -1.7324,-1.1446 -0.9167,-0.29944 -2.2548,-0.51203 -4.0118,-0.63258 -1.7674,-0.12703 -4.1688,-0.18796 -7.203,-0.18796 -2.5571,0 -4.5941,0.06093 -6.1086,0.18796 -1.5249,0.12055 -2.7243,0.3487 -3.6009,0.67795 -0.8869,0.33962 -1.5093,0.75443 -1.8698,1.27553 -0.3695,0.50684 -0.6729,1.13423 -0.9115,1.86403 l -10.5704,26.32075 c -1.2759,2.97235 -2.522,5.61026 -3.7383,7.91373 -1.2149,2.30865 -2.5674,4.23361 -4.0572,5.77747 -1.4886,1.54904 -3.2054,2.71958 -5.1504,3.50901 -1.945,0.79071 -4.1947,1.18478 -6.7466,1.18997 l -7.4765,0 0,-44.88852 c 0,-0.61184 -0.1971,-1.15886 -0.5926,-1.63978 -0.3954,-0.4861 -1.0489,-0.88146 -1.9605,-1.1809 -0.9116,-0.30851 -2.1265,-0.54573 -3.6462,-0.73369 -1.5198,-0.17758 -3.4647,-0.27351 -5.8351,-0.27351 -2.3106,0 -4.24,0.09593 -5.7895,0.27351 -1.5509,0.18796 -2.7814,0.42518 -3.693,0.73369 -0.9115,0.29944 -1.5495,0.6948 -1.9138,1.1809 -0.3657,0.48092 -0.5472,1.02794 -0.5472,1.63978 l 0,106.9785 c 0,2.6677 0.6833,4.5927 2.0513,5.7814 1.3667,1.1809 3.0537,1.7733 5.0596,1.7785 l 30.5429,0 c 3.0991,-0.005 5.6522,-0.0713 7.6581,-0.188 2.006,-0.1218 3.829,-0.2735 5.4706,-0.4511 4.7355,-0.6779 9.0002,-1.8277 12.8046,-3.4623 3.7941,-1.6463 7.0149,-3.7787 9.664,-6.4166 2.6388,-2.6431 4.6603,-5.7722 6.0632,-9.3824 1.3927,-3.6153 2.0916,-7.7516 2.0968,-12.426 -0.005,-3.9445 -0.507,-7.54429 -1.5042,-10.78496 -1.0088,-3.25623 -2.4818,-6.14691 -4.4216,-8.69408 -1.9502,-2.55754 -4.3516,-4.77546 -7.203,-6.65375 -2.8617,-1.8783 -6.1137,-3.39234 -9.7561,-4.54731 1.7583,-0.85554 3.4142,-1.88867 4.9688,-3.09809 1.5457,-1.22108 3.0044,-2.68975 4.3763,-4.41639 1.3628,-1.73181 2.6543,-3.70085 3.8757,-5.91358 1.2098,-2.2231 2.395,-4.7249 3.5555,-7.50929 l 9.9376,-23.21618 c 0.9064,-2.31514 1.5145,-4.00029 1.8231,-5.05934 0.2995,-1.06813 0.4513,-1.89904 0.4564,-2.5005 z m -30.9072,79.93837 c -0.005,3.8836 -0.887,7.1541 -2.644,9.8335 -1.7635,2.6625 -4.6446,4.5512 -8.6565,5.64 -1.215,0.3085 -2.5985,0.5471 -4.148,0.7337 -1.5508,0.1776 -3.693,0.2735 -6.4276,0.2735 l -10.7584,0 0,-33.41908 12.2172,0 c 3.4037,0 6.3822,0.41091 8.934,1.23015 2.5531,0.82055 4.6758,1.96515 6.377,3.45845 1.6973,1.47905 2.9732,3.25623 3.8303,5.32766 0.8454,2.06107 1.2708,4.36452 1.276,6.92212 z" /><path
                                 id="path140"
                                 style="fill:#c0c0c0;fill-opacity:1;fill-rule:nonzero;stroke:none"
                                 d="m 817.7117,29.81254 c -0.005,-1.76681 -0.0804,-3.23548 -0.2282,-4.42027 -0.1569,-1.18998 -0.3838,-2.14144 -0.6834,-2.86606 -0.3085,-0.7285 -0.6885,-1.25608 -1.1398,-1.58922 -0.4603,-0.33444 -0.9621,-0.50684 -1.5041,-0.50684 l -59.2563,0 c -2.0059,0 -3.6928,0.58721 -5.0595,1.772 -1.3681,1.18479 -2.0527,3.11364 -2.0527,5.78265 l 0,102.7047 c 0,2.6677 0.6846,4.5927 2.0527,5.7814 1.3667,1.1809 3.0536,1.7733 5.0595,1.7785 l 58.892,0 c 0.542,-0.005 1.0282,-0.1582 1.4586,-0.4615 0.4202,-0.3033 0.7845,-0.8348 1.0945,-1.5892 0.2982,-0.7648 0.5263,-1.737 0.6833,-2.9166 0.1466,-1.1848 0.2231,-2.6846 0.2282,-4.5072 -0.005,-1.702 -0.0816,-3.1447 -0.2282,-4.3295 -0.157,-1.1848 -0.3851,-2.1363 -0.6833,-2.8609 -0.31,-0.7337 -0.6743,-1.2651 -1.0945,-1.5944 -0.4304,-0.3396 -0.9166,-0.5016 -1.4586,-0.5016 l -42.117,0 0,-28.76555 35.644,0 c 0.5421,0 1.0426,-0.16722 1.5042,-0.50685 0.4498,-0.33443 0.8298,-0.84517 1.1397,-1.54385 0.2982,-0.69999 0.5265,-1.64626 0.6833,-2.83106 0.1466,-1.1796 0.223,-2.62365 0.2283,-4.31398 -0.005,-1.76811 -0.0817,-3.22512 -0.2283,-4.37491 -0.1568,-1.15498 -0.3851,-2.07662 -0.6833,-2.77532 -0.3099,-0.70387 -0.6899,-1.20034 -1.1397,-1.50367 -0.4616,-0.30332 -0.9621,-0.45628 -1.5042,-0.4511 l -35.644,0 0,-33.23116 42.4813,0 c 0.542,-0.0052 1.0438,-0.17758 1.5041,-0.50684 0.4513,-0.33444 0.8313,-0.87109 1.1398,-1.59052 0.2996,-0.73369 0.5265,-1.67997 0.6834,-2.86475 0.1478,-1.18609 0.223,-2.65865 0.2282,-4.4164 z" /><path
                                 id="path142"
                                 style="fill:#333399;fill-opacity:1;fill-rule:nonzero;stroke:none"
                                 d="m 144.7533,218.5312 c -0.005,-3.2095 -0.1414,-5.9084 -0.4046,-8.1017 -0.2736,-2.2023 -0.6989,-3.9393 -1.2876,-5.2252 -0.5874,-1.2807 -1.2551,-2.2439 -2.0046,-2.8816 -0.7508,-0.643 -1.6118,-0.9671 -2.5739,-0.9671 l -67.98799,0 0,-55.8562 63.81009,0 c 0.9622,-0.005 1.8232,-0.2735 2.5726,-0.805 0.7495,-0.5366 1.4186,-1.4479 2.006,-2.7286 0.5874,-1.2859 1.0127,-2.9983 1.2863,-5.1397 0.2632,-2.1363 0.4006,-4.8209 0.4045,-8.0214 -0.004,-3.2199 -0.1413,-5.8889 -0.4045,-8.0303 -0.2736,-2.1363 -0.6989,-3.9044 -1.2863,-5.2966 -0.5874,-1.3974 -1.2565,-2.3799 -2.006,-2.9672 -0.7494,-0.5924 -1.6104,-0.8814 -2.5726,-0.8814 l -63.81009,0 0,-77.37564 c -0.0052,-1.18479 -0.32935,-2.19717 -0.96861,-3.04882 -0.64834,-0.86072 -1.79718,-1.57886 -3.45431,-2.16607 -1.66622,-0.58851 -3.83942,-1.0435 -6.51315,-1.36756 -2.68409,-0.30852 -6.10859,-0.47055 -10.28255,-0.47573 -4.07152,0.0052 -7.47527,0.16721 -10.21123,0.47573 -2.73466,0.32406 -4.90787,0.77905 -6.50796,1.36756 -1.61045,0.58721 -2.76059,1.30535 -3.45431,2.16607 -0.6989,0.85165 -1.049,1.86403 -1.04381,3.04882 l 0,188.28834 c -0.0052,4.7093 1.20071,8.1017 3.61639,10.1977 2.40661,2.087 5.37986,3.1292 8.91976,3.1292 l 97.88777,0 c 0.9621,0 1.8231,-0.2929 2.5739,-0.8814 0.7495,-0.5924 1.4172,-1.5543 2.0046,-2.8959 0.5887,-1.3416 1.014,-3.1344 1.2876,-5.3718 0.2632,-2.249 0.3994,-4.9776 0.4046,-8.1885 z" /><path
                                 id="path144"
                                 style="fill:#333399;fill-opacity:1;fill-rule:nonzero;stroke:none"
                                 d="m 285.1574,71.1065 c -0.005,-7.2267 -1.0685,-13.69249 -3.1911,-19.39349 -2.1317,-5.70747 -5.2619,-10.53218 -9.3905,-14.48192 -4.1376,-3.94973 -9.2439,-6.95189 -15.3162,-9.01296 -6.0839,-2.07144 -13.0677,-3.09938 -20.9644,-3.09938 -7.4157,0 -14.0714,0.92165 -19.9673,2.7805 -5.896,1.84718 -10.8791,4.6575 -14.9519,8.42575 -4.0728,3.75659 -7.1874,8.45038 -9.345,14.06582 -2.1577,5.61026 -3.2365,12.18364 -3.2365,19.71237 l 0,71.65001 c 0,0.6027 0.1828,1.1485 0.5472,1.6398 0.3643,0.4809 1.0179,0.8762 1.9605,1.1847 0.9414,0.2943 2.1719,0.5419 3.6916,0.7195 1.5197,0.1827 3.4647,0.2683 5.835,0.2735 2.3094,-0.005 4.2245,-0.0908 5.7442,-0.2735 1.5197,-0.1776 2.7347,-0.4252 3.6463,-0.7195 0.9128,-0.3085 1.565,-0.7038 1.9605,-1.1847 0.3955,-0.4913 0.5926,-1.0371 0.5926,-1.6398 l 0,-69.55783 c 0,-4.67954 0.577,-8.73038 1.7323,-12.15253 1.1553,-3.43382 2.8112,-6.26876 4.9689,-8.51778 2.1576,-2.25292 4.7406,-3.93937 7.7501,-5.05805 3.0083,-1.11868 6.3666,-1.68644 10.0738,-1.68126 3.7642,-0.0052 7.1317,0.57684 10.1153,1.72663 2.9732,1.15498 5.4952,2.84013 7.5673,5.05805 2.0617,2.21791 3.6566,4.94267 4.786,8.1989 1.1203,3.24067 1.6818,6.93116 1.687,11.06366 l 0,70.92021 c -0.005,0.6027 0.1776,1.1485 0.5472,1.6398 0.3591,0.4809 0.9984,0.8762 1.9151,1.1847 0.9064,0.2943 2.1369,0.5419 3.6916,0.7195 1.5456,0.1827 3.4751,0.2683 5.7896,0.2735 2.3042,-0.005 4.2038,-0.0908 5.6989,-0.2735 1.4834,-0.1776 2.6841,-0.4252 3.6008,-0.7195 0.9064,-0.3085 1.5443,-0.7038 1.9139,-1.1847 0.3605,-0.4913 0.542,-1.0371 0.5472,-1.6398 l 0,-70.6467 z" /><path
                                 id="path146"
                                 style="fill:#333399;fill-opacity:1;fill-rule:nonzero;stroke:none"
                                 d="m 407.6014,135.1954 c -0.005,-1.7617 -0.0804,-3.2653 -0.2282,-4.5059 -0.1569,-1.2457 -0.3851,-2.249 -0.6834,-3.0034 -0.3085,-0.7596 -0.6885,-1.3158 -1.1398,-1.6813 -0.4603,-0.3694 -0.962,-0.547 -1.504,-0.547 l -29.5342,0 0,-94.96083 c 0,-0.61832 -0.1984,-1.16534 -0.5939,-1.64626 -0.3941,-0.4861 -1.0476,-0.87109 -1.9592,-1.1796 -0.9116,-0.29944 -2.1434,-0.54703 -3.6929,-0.72462 -1.5495,-0.18148 -3.479,-0.27351 -5.7896,-0.27351 -2.3094,0 -4.2388,0.09203 -5.7896,0.27351 -1.5495,0.17759 -2.7801,0.42518 -3.6916,0.72462 -0.9116,0.30851 -1.5651,0.6935 -1.9606,1.1796 -0.3955,0.48092 -0.5926,1.02794 -0.5926,1.64626 l 0,94.96083 -29.5393,0 c -0.6081,0 -1.1242,0.1776 -1.5508,0.547 -0.4253,0.3655 -0.7897,0.9217 -1.0931,1.6813 -0.3047,0.7544 -0.5316,1.7577 -0.6846,3.0034 -0.1518,1.2406 -0.2269,2.7442 -0.2269,4.5059 0,1.8225 0.0751,3.3677 0.2269,4.6432 0.153,1.2716 0.3799,2.2892 0.6846,3.054 0.3034,0.7544 0.6678,1.3014 1.0931,1.6398 0.4266,0.3292 0.9427,0.4913 1.5508,0.4965 l 83.1435,0 c 0.542,-0.005 1.0437,-0.1673 1.504,-0.4965 0.4513,-0.3384 0.8313,-0.8854 1.1398,-1.6398 0.2983,-0.7648 0.5265,-1.7824 0.6834,-3.054 0.1478,-1.2755 0.223,-2.8207 0.2282,-4.6432 z" /><path
                                 id="path148"
                                 style="fill:#333399;fill-opacity:1;fill-rule:nonzero;stroke:none"
                                 d="m 554.0233,71.1065 c -0.005,-7.2267 -1.0684,-13.69249 -3.1911,-19.39349 -2.133,-5.70747 -5.2632,-10.53218 -9.3904,-14.48192 -4.139,-3.94973 -9.2439,-6.95189 -15.3175,-9.01296 -6.0827,-2.07144 -13.0678,-3.09938 -20.9645,-3.09938 -7.4143,0 -14.0701,0.92165 -19.966,2.7805 -5.896,1.84718 -10.8804,4.6575 -14.9519,8.42575 -4.0727,3.75659 -7.1874,8.45038 -9.345,14.06582 -2.1576,5.61026 -3.2378,12.18364 -3.2378,19.71237 l 0,71.65001 c 0,0.6027 0.1828,1.1485 0.5472,1.6398 0.3657,0.4809 1.0192,0.8762 1.9605,1.1847 0.9428,0.2943 2.1733,0.5419 3.693,0.7195 1.5197,0.1827 3.4647,0.2683 5.835,0.2735 2.3093,-0.005 4.2245,-0.0908 5.7429,-0.2735 1.5197,-0.1776 2.7359,-0.4252 3.6475,-0.7195 0.9115,-0.3085 1.5651,-0.7038 1.9606,-1.1847 0.3941,-0.4913 0.5925,-1.0371 0.5925,-1.6398 l 0,-69.55783 c 0,-4.67954 0.577,-8.73038 1.7324,-12.15253 1.154,-3.43382 2.8112,-6.26876 4.9688,-8.51778 2.1577,-2.25292 4.7406,-3.93937 7.7488,-5.05805 3.0096,-1.11868 6.3667,-1.68644 10.0752,-1.68126 3.7629,-0.0052 7.1316,0.57684 10.1152,1.72663 2.972,1.15498 5.4953,2.84013 7.566,5.05805 2.0617,2.21791 3.6579,4.94267 4.7874,8.1989 1.1189,3.24067 1.6817,6.93116 1.6869,11.06366 l 0,70.92021 c -0.005,0.6027 0.1764,1.1485 0.5471,1.6398 0.3593,0.4809 0.9972,0.8762 1.914,1.1847 0.9063,0.2943 2.1382,0.5419 3.6929,0.7195 1.5443,0.1827 3.4737,0.2683 5.7896,0.2735 2.3042,-0.005 4.2038,-0.0908 5.6975,-0.2735 1.4847,-0.1776 2.6841,-0.4252 3.6008,-0.7195 0.9077,-0.3085 1.5457,-0.7038 1.9152,-1.1847 0.3592,-0.4913 0.542,-1.0371 0.5472,-1.6398 l 0,-70.6467 z" /><path
                                 id="path150"
                                 style="fill:#333399;fill-opacity:1;fill-rule:nonzero;stroke:none"
                                 d="m 685.4933,30.30902 c -0.005,-0.6637 -0.127,-1.21979 -0.3656,-1.68127 -0.2476,-0.4498 -0.8247,-0.82961 -1.7323,-1.13423 -0.9167,-0.30851 -2.2536,-0.51592 -4.0106,-0.64295 -1.7686,-0.11667 -4.1687,-0.17759 -7.2029,-0.17759 -2.5584,0 -4.5941,0.06092 -6.1086,0.17759 -1.5249,0.12703 -2.7256,0.35518 -3.6009,0.68832 -0.8869,0.33444 -1.5093,0.75443 -1.8697,1.26645 -0.3696,0.51592 -0.673,1.13424 -0.9116,1.87311 l -10.5704,26.31038 c -1.2773,2.97235 -2.5233,5.61544 -3.7383,7.9241 -1.2163,2.30476 -2.5687,4.22324 -4.0573,5.77747 -1.4886,1.53997 -3.2066,2.71439 -5.1516,3.509 -1.945,0.78036 -4.1935,1.1809 -6.7466,1.18609 l -7.4752,0 0,-44.88852 c 0,-0.61832 -0.1985,-1.16534 -0.5926,-1.64626 -0.3955,-0.4861 -1.049,-0.87109 -1.9605,-1.1796 -0.9116,-0.29944 -2.1278,-0.54703 -3.6476,-0.72462 -1.5197,-0.18148 -3.4647,-0.27351 -5.835,-0.27351 -2.3093,0 -4.2388,0.09203 -5.7883,0.27351 -1.5508,0.17759 -2.7813,0.42518 -3.6929,0.72462 -0.9115,0.30851 -1.5495,0.6935 -1.9151,1.1796 -0.3644,0.48092 -0.5472,1.02794 -0.5472,1.64626 l 0,106.97203 c 0,2.6742 0.6846,4.5927 2.0512,5.7827 1.368,1.1796 3.055,1.772 5.061,1.7772 l 30.5416,0 c 3.1003,-0.005 5.6535,-0.061 7.6594,-0.1776 2.0059,-0.1258 3.829,-0.2787 5.4706,-0.455 4.7354,-0.6741 9.0002,-1.8278 12.8033,-3.4689 3.794,-1.6358 7.0162,-3.7773 9.6653,-6.41 2.6387,-2.6431 4.6589,-5.7684 6.0619,-9.3785 1.3939,-3.6153 2.0928,-7.7621 2.098,-12.426 -0.005,-3.9485 -0.507,-7.5495 -1.5054,-10.7902 -1.0075,-3.25103 -2.4818,-6.15209 -4.4216,-8.69406 -1.9502,-2.55236 -4.3503,-4.77027 -7.2017,-6.64857 -2.8618,-1.88867 -6.1138,-3.39752 -9.7561,-4.5525 1.7582,-0.85035 3.4141,-1.88348 4.9688,-3.10327 1.5456,-1.21072 3.0044,-2.68327 4.3763,-4.4099 1.3628,-1.73182 2.6542,-3.70215 3.8744,-5.91488 1.2111,-2.21792 2.3962,-4.72361 3.5567,-7.50929 l 9.9377,-23.22137 c 0.9063,-2.31384 1.5144,-4.00029 1.8231,-5.05286 0.2982,-1.06424 0.4512,-1.90422 0.4563,-2.50698 z m -30.9072,79.93838 c -0.005,3.8836 -0.8869,7.1644 -2.6439,9.8335 -1.7634,2.6729 -4.6459,4.5576 -8.6565,5.6504 -1.2162,0.3046 -2.5985,0.547 -4.1481,0.7246 -1.5507,0.1867 -3.6928,0.2787 -6.4288,0.2787 l -10.7571,0 0,-33.41523 12.2171,0 c 3.4025,-0.0039 6.3809,0.40055 8.934,1.22627 2.5532,0.82054 4.6758,1.96904 6.3771,3.45845 1.6973,1.48293 2.9732,3.26011 3.829,5.32121 0.8467,2.061 1.272,4.3749 1.2772,6.9221 z" /><path
                                 id="path152"
                                 style="fill:#333399;fill-opacity:1;fill-rule:nonzero;stroke:none"
                                 d="m 810.9197,36.59851 c -0.005,-1.76292 -0.0803,-3.23548 -0.2282,-4.41638 -0.1569,-1.18998 -0.385,-2.14663 -0.6833,-2.86994 -0.3086,-0.73499 -0.6885,-1.25609 -1.1398,-1.59571 -0.4616,-0.32926 -0.9621,-0.49647 -1.5041,-0.49647 l -59.2563,0 c -2.0059,0 -3.6929,0.5872 -5.0609,1.772 -1.3666,1.1809 -2.0513,3.10456 -2.0513,5.78265 l 0,102.69434 c 0,2.6742 0.6847,4.5927 2.0513,5.7827 1.368,1.1796 3.055,1.772 5.0609,1.7772 l 58.8919,0 c 0.542,-0.005 1.0282,-0.1569 1.4588,-0.4512 0.4201,-0.3085 0.7845,-0.8451 1.0931,-1.5995 0.2995,-0.7648 0.5277,-1.7371 0.6846,-2.9167 0.1465,-1.1847 0.223,-2.678 0.2269,-4.4967 -0.004,-1.7111 -0.0804,-3.1486 -0.2269,-4.3296 -0.1569,-1.1847 -0.3851,-2.1466 -0.6846,-2.866 -0.3086,-0.7389 -0.673,-1.2703 -1.0931,-1.5996 -0.4306,-0.3292 -0.9168,-0.4913 -1.4588,-0.4913 l -42.1169,0 0,-28.77587 35.6426,0 c 0.5421,0 1.0439,-0.16722 1.5055,-0.49646 0.4499,-0.33445 0.8299,-0.85554 1.1385,-1.55423 0.2995,-0.6987 0.5277,-1.6359 0.6846,-2.82068 0.1465,-1.18479 0.2231,-2.63273 0.2283,-4.31918 -0.005,-1.77199 -0.0818,-3.2303 -0.2283,-4.37491 -0.1569,-1.15368 -0.3851,-2.07532 -0.6846,-2.77401 -0.3086,-0.69999 -0.6886,-1.20034 -1.1385,-1.49978 -0.4616,-0.3137 -0.9634,-0.46537 -1.5055,-0.455 l -35.6426,0 0,-33.23764 42.4813,0 c 0.542,-0.0052 1.0425,-0.16722 1.5041,-0.49647 0.4513,-0.33832 0.8312,-0.87109 1.1398,-1.5996 0.2983,-0.72461 0.5264,-1.68126 0.6833,-2.86605 0.1479,-1.18478 0.2231,-2.65865 0.2282,-4.40991 z" /></g></g></g></g></g></g></g></g></g></g></g></g></g><g
       id="g154"><g
         clip-path="url(#clipPath158)"
         id="g156"><g
           clip-path="url(#clipPath164)"
           id="g162"><path
             id="path168"
             style="fill:#999999;fill-opacity:1;fill-rule:nonzero;stroke:none"
             d="m 244.8454,236.1784 c -0.005,-6.1832 -0.8156,-11.4694 -2.4274,-15.8598 -1.6208,-4.3944 -3.9405,-7.9799 -6.9592,-10.7552 -3.029,-2.7792 -6.7063,-4.8195 -11.032,-6.121 -4.3347,-1.3014 -9.4916,-1.9495 -15.4627,-1.9495 l -16.1175,0 c -1.1502,0 -2.1175,0.3344 -2.8929,1.0123 -0.7845,0.6741 -1.1696,1.7772 -1.1696,3.312 l 0,58.7469 c 0,1.5244 0.3851,2.6237 1.1696,3.3016 0.7754,0.6728 1.7427,1.0124 2.8929,1.0176 l 17.3169,0 c 6.0126,-0.005 11.1189,-0.7091 15.3071,-2.1116 4.1895,-1.4078 7.7191,-3.4883 10.586,-6.248 2.8669,-2.7598 5.0401,-6.1729 6.5391,-10.2341 1.4937,-4.0651 2.2445,-8.7692 2.2497,-14.1112 z m -14.1881,-0.4666 c 0,3.1901 -0.3748,6.1572 -1.1242,8.9014 -0.7443,2.7404 -1.9502,5.1203 -3.5918,7.1347 -1.661,2.0105 -3.7785,3.5803 -6.3614,4.7145 -2.5934,1.1239 -5.9971,1.6917 -10.2009,1.6968 l -6.9345,0 0,-45.836 7.142,0 c 3.759,0 6.919,0.4861 9.4967,1.4583 2.5739,0.9722 4.7108,2.4357 6.438,4.4008 1.7168,1.96 3.0044,4.3995 3.855,7.3213 0.8506,2.9115 1.2811,6.3142 1.2811,10.2082 z" /><path
             id="path170"
             style="fill:#999999;fill-opacity:1;fill-rule:nonzero;stroke:none"
             d="m 298.2615,228.1221 c -0.005,-1.6009 -0.3553,-2.7805 -1.0685,-3.5401 -0.7196,-0.7687 -1.7025,-1.1485 -2.9486,-1.1433 l -28.3139,0 c -0.005,-1.9859 0.2282,-3.7825 0.704,-5.3938 0.4668,-1.6151 1.2059,-2.9866 2.2342,-4.1156 1.0231,-1.1304 2.3495,-1.9911 3.9704,-2.5783 1.6156,-0.5924 3.5567,-0.8854 5.8103,-0.8802 2.299,-0.005 4.3101,0.162 6.0477,0.4913 1.7427,0.328 3.2416,0.6935 4.5175,1.0928 1.2617,0.4005 2.3146,0.7647 3.1509,1.094 0.8351,0.3292 1.5093,0.4913 2.041,0.4965 0.3047,-0.005 0.5679,-0.0661 0.7754,-0.1828 0.2075,-0.1257 0.3851,-0.3435 0.5212,-0.6533 0.1427,-0.3137 0.2334,-0.7544 0.284,-1.3261 0.0506,-0.573 0.0804,-1.2911 0.0856,-2.1622 -0.005,-0.7648 -0.0298,-1.4181 -0.0558,-1.9548 -0.0402,-0.5418 -0.0959,-1.002 -0.1569,-1.3766 -0.07,-0.385 -0.1724,-0.7039 -0.3137,-0.9631 -0.1362,-0.2632 -0.3242,-0.5159 -0.5421,-0.7545 -0.2282,-0.2476 -0.8505,-0.5768 -1.8542,-0.9916 -1.0127,-0.42 -2.299,-0.8309 -3.864,-1.2263 -1.5651,-0.3992 -3.3584,-0.7389 -5.3643,-1.037 -2.0202,-0.2942 -4.174,-0.4459 -6.473,-0.4459 -4.1324,0 -7.7592,0.5211 -10.8699,1.5646 -3.1198,1.0435 -5.7183,2.6223 -7.7943,4.7392 -2.0928,2.1168 -3.6527,4.7858 -4.6758,8.0161 -1.023,3.2251 -1.53,7.0128 -1.53,11.3566 0,4.1273 0.5368,7.8489 1.6156,11.1712 1.075,3.3107 2.6401,6.1262 4.6914,8.4401 2.0513,2.3047 4.5435,4.0664 7.4804,5.2874 2.9331,1.2095 6.25,1.8174 9.9428,1.8226 3.89,-0.005 7.2185,-0.5781 9.9831,-1.7214 2.7606,-1.1446 5.0297,-2.7352 6.8075,-4.7651 1.7686,-2.0352 3.0744,-4.4411 3.9055,-7.2164 0.8402,-2.7792 1.2513,-5.7969 1.2565,-9.0583 l 0,-2.0857 z m -12.7242,3.7514 c 0.1012,3.6762 -0.6379,6.5682 -2.2186,8.6695 -1.5793,2.1012 -4.0261,3.1538 -7.3287,3.1538 -1.6714,0 -3.125,-0.3137 -4.3504,-0.9359 -1.237,-0.6287 -2.26,-1.4687 -3.0756,-2.5264 -0.8195,-1.0643 -1.4484,-2.3152 -1.8789,-3.7528 -0.4409,-1.4427 -0.6937,-2.9827 -0.7546,-4.6082 l 19.6068,0 z" /><path
             id="path172"
             style="fill:#999999;fill-opacity:1;fill-rule:nonzero;stroke:none"
             d="m 341.7658,216.6683 c -0.005,-2.6431 -0.5018,-4.9673 -1.4898,-6.983 -0.9881,-2.0157 -2.3911,-3.7009 -4.1986,-5.0477 -1.8089,-1.3572 -3.951,-2.3709 -6.4081,-3.0488 -2.4715,-0.678 -5.1504,-1.0176 -8.0329,-1.0176 -1.7427,0 -3.4037,0.1309 -4.9843,0.3954 -1.5794,0.2631 -3.0031,0.5924 -4.2544,0.9864 -1.2461,0.3954 -2.2886,0.7998 -3.1249,1.2211 -0.8364,0.4148 -1.4484,0.805 -1.8283,1.1744 -0.3851,0.3591 -0.6743,0.932 -0.8818,1.7163 -0.2126,0.7804 -0.319,1.9392 -0.3138,3.4688 -0.005,1.002 0.035,1.807 0.1012,2.4201 0.0661,0.6028 0.1724,1.0889 0.3189,1.4583 0.1375,0.3591 0.3087,0.6028 0.5226,0.7298 0.2074,0.1154 0.4603,0.1763 0.7793,0.1815 0.3747,-0.005 0.9479,-0.2229 1.6973,-0.6533 0.7391,-0.4355 1.6662,-0.9113 2.7853,-1.4324 1.1099,-0.5211 2.4066,-1.0072 3.89,-1.4583 1.4691,-0.4511 3.1509,-0.6792 5.0297,-0.674 1.1852,-0.005 2.2342,0.1166 3.1561,0.3655 0.9167,0.2372 1.7116,0.5872 2.4001,1.037 0.6691,0.4511 1.1852,1.0228 1.5404,1.7227 0.3437,0.6936 0.5161,1.4934 0.5161,2.3943 0,1.0435 -0.3241,1.934 -0.9673,2.6833 -0.6431,0.7401 -1.4886,1.3934 -2.5479,1.9495 -1.0685,0.5574 -2.264,1.0785 -3.606,1.5647 -1.3369,0.486 -2.7101,1.0227 -4.1183,1.6164 -1.4081,0.5872 -2.78,1.2651 -4.1182,2.0299 -1.3368,0.7597 -2.5375,1.6969 -3.6008,2.8104 -1.0581,1.1083 -1.91,2.446 -2.5531,4.0106 -0.6432,1.5594 -0.9673,3.4325 -0.9622,5.6245 -0.005,2.2179 0.4305,4.2596 1.2967,6.1171 0.8662,1.8589 2.1175,3.4481 3.7629,4.7703 1.6312,1.317 3.6216,2.3398 5.9673,3.0734 2.3456,0.7247 4.974,1.0889 7.907,1.0941 1.4484,-0.005 2.8709,-0.1115 4.244,-0.3137 1.3784,-0.2126 2.6193,-0.4718 3.7279,-0.7855 1.11,-0.3137 2.0514,-0.6534 2.8164,-1.0124 0.765,-0.3695 1.3174,-0.6832 1.6468,-0.9372 0.328,-0.2632 0.5614,-0.5211 0.7027,-0.7843 0.1323,-0.2631 0.2386,-0.5781 0.3151,-0.9372 0.07,-0.3642 0.131,-0.8153 0.1815,-1.352 0.0506,-0.5418 0.0714,-1.2094 0.0766,-2.0053 -0.005,-0.9411 -0.026,-1.7059 -0.0766,-2.2931 -0.0505,-0.5924 -0.1413,-1.0591 -0.2632,-1.4026 -0.1167,-0.35 -0.2839,-0.5872 -0.4914,-0.7039 -0.2126,-0.127 -0.4551,-0.1879 -0.7339,-0.1827 -0.3138,-0.005 -0.8001,0.1776 -1.4639,0.547 -0.6587,0.3591 -1.4795,0.7492 -2.4715,1.1692 -0.9984,0.4161 -2.1434,0.8102 -3.44,1.1757 -1.3058,0.3643 -2.7956,0.5458 -4.467,0.5458 -1.1852,0 -2.2134,-0.1206 -3.0744,-0.3643 -0.8714,-0.2424 -1.5755,-0.5924 -2.133,-1.0435 -0.5615,-0.4549 -0.9777,-0.9864 -1.2552,-1.5892 -0.284,-0.6131 -0.4162,-1.2613 -0.4162,-1.9496 0,-1.0785 0.3293,-1.9794 0.988,-2.7092 0.6587,-0.7285 1.5353,-1.3714 2.6141,-1.9288 1.0684,-0.5574 2.2938,-1.0785 3.6669,-1.5594 1.3719,-0.4913 2.7658,-1.0228 4.1779,-1.5906 1.4043,-0.5768 2.7917,-1.2457 4.1739,-2.0053 1.3681,-0.7687 2.5986,-1.7059 3.6774,-2.8155 1.0737,-1.1135 1.9398,-2.4396 2.5985,-3.9847 0.6587,-1.5439 0.9933,-3.3768 0.9984,-5.4884 z" /><path
             id="path174"
             style="fill:#999999;fill-opacity:1;fill-rule:nonzero;stroke:none"
             d="m 364.7661,203.5435 c -0.005,-0.3551 -0.1115,-0.6585 -0.3086,-0.9112 -0.2127,-0.2632 -0.568,-0.4809 -1.0698,-0.6534 -0.5108,-0.1724 -1.1747,-0.2994 -2.0059,-0.3901 -0.8403,-0.0856 -1.8932,-0.1271 -3.1807,-0.1322 -1.2863,0.005 -2.3548,0.0466 -3.1859,0.1322 -0.8403,0.0907 -1.5042,0.2177 -2.006,0.3901 -0.5108,0.1725 -0.8609,0.3902 -1.0684,0.6534 -0.2127,0.2527 -0.319,0.5561 -0.319,0.9112 l 0,46.352 c 0,0.3436 0.1063,0.6482 0.319,0.9113 0.2075,0.258 0.5576,0.481 1.0684,0.6728 0.5018,0.188 1.1657,0.3344 2.006,0.4459 0.8311,0.1011 1.8996,0.1569 3.1859,0.1569 1.2875,0 2.3404,-0.0558 3.1807,-0.1569 0.8312,-0.1115 1.4951,-0.2579 2.0059,-0.4459 0.5018,-0.1918 0.8571,-0.4148 1.0698,-0.6728 0.1971,-0.2631 0.3034,-0.5677 0.3086,-0.9113 l 0,-46.352 z m 0.9971,62.186 c -0.004,-2.6444 -0.542,-4.467 -1.6208,-5.4742 -1.0788,-1.0072 -3.0796,-1.514 -5.9971,-1.5088 -2.9576,-0.005 -4.9532,0.4809 -5.9763,1.4583 -1.0283,0.967 -1.5353,2.7234 -1.5301,5.2602 -0.005,2.6392 0.5278,4.467 1.5858,5.4949 1.0633,1.0228 3.0692,1.5387 6.0269,1.5387 2.9175,0 4.8936,-0.4965 5.9466,-1.4881 1.0386,-0.993 1.5611,-2.7546 1.565,-5.281 z" /><path
             id="path176"
             style="fill:#999999;fill-opacity:1;fill-rule:nonzero;stroke:none"
             d="m 420.1583,246.7715 c 0,-1.6722 -0.1932,-2.9075 -0.5783,-3.7021 -0.3851,-0.7998 -0.8558,-1.1952 -1.4082,-1.1952 l -5.4797,0 c 0.7702,-0.8348 1.3161,-1.7823 1.6455,-2.8401 0.3293,-1.059 0.4914,-2.1622 0.4966,-3.3068 -0.005,-2.7092 -0.4551,-5.1138 -1.3576,-7.215 -0.9116,-2.1026 -2.2083,-3.8746 -3.8848,-5.3121 -1.6909,-1.4428 -3.7228,-2.5368 -6.1034,-3.2809 -2.3807,-0.7492 -5.0298,-1.12 -7.9473,-1.12 -1.5041,0 -2.9278,0.1828 -4.2803,0.5471 -1.3563,0.3655 -2.4053,0.7907 -3.1249,1.2768 -0.4254,-0.4511 -0.8001,-0.993 -1.1242,-1.6152 -0.3346,-0.6287 -0.4967,-1.3222 -0.4967,-2.0818 0,-1.0124 0.4409,-1.8381 1.333,-2.4759 0.8804,-0.6481 2.1265,-1.0032 3.7279,-1.0629 l 11.3147,-0.4213 c 2.6387,-0.1011 4.9896,-0.4757 7.0655,-1.1187 2.0669,-0.6429 3.8044,-1.5438 5.2126,-2.7092 1.4082,-1.164 2.4818,-2.5614 3.2313,-4.1921 0.7495,-1.6307 1.1242,-3.4844 1.1294,-5.5701 -0.005,-2.2892 -0.5057,-4.4513 -1.5145,-6.4813 -1.0127,-2.03 -2.5272,-3.7929 -4.5383,-5.2862 -2.0202,-1.4933 -4.5488,-2.6742 -7.592,-3.544 -3.0394,-0.862 -6.5948,-1.2963 -10.6625,-1.3015 -3.9613,0.005 -7.3443,0.3189 -10.1451,0.936 -2.8059,0.6287 -5.0959,1.4946 -6.8788,2.6029 -1.7933,1.1135 -3.0938,2.4408 -3.9094,3.9847 -0.826,1.5503 -1.2319,3.2459 -1.2267,5.0788 -0.005,1.1498 0.1426,2.2438 0.4409,3.2821 0.2892,1.0422 0.73,2.0404 1.3018,2.9918 0.5719,0.9567 1.276,1.8641 2.1123,2.7339 0.8364,0.8659 1.7882,1.7019 2.8669,2.5018 -1.4937,0.7998 -2.6542,1.8834 -3.4698,3.2562 -0.8104,1.3675 -1.2254,2.8712 -1.215,4.5058 -0.0104,2.0468 0.4603,3.9096 1.4082,5.596 0.9362,1.6813 2.1473,3.2005 3.641,4.5564 -1.215,1.2107 -2.1874,2.669 -2.9175,4.3749 -0.7287,1.6968 -1.0944,3.8136 -1.0944,6.3556 0,2.704 0.4772,5.1242 1.4289,7.2604 0.9622,2.1324 2.2939,3.9394 3.9912,5.4184 1.7077,1.4739 3.7331,2.6029 6.1034,3.3872 2.3651,0.7751 4.9688,1.1653 7.8254,1.1705 1.4587,-0.005 2.8565,-0.092 4.1999,-0.2592 1.3316,-0.1763 2.5777,-0.42 3.7279,-0.7286 l 14.7586,0 c 0.5874,-0.005 1.0645,-0.3901 1.4289,-1.1497 0.3695,-0.7687 0.5576,-2.0507 0.5576,-3.8474 z m -16.8476,-10.9936 c -0.004,2.4966 -0.6989,4.441 -2.0915,5.8332 -1.3926,1.387 -3.3532,2.0857 -5.8856,2.0857 -1.2966,0 -2.426,-0.2178 -3.3985,-0.6521 -0.9725,-0.4355 -1.7829,-1.0279 -2.426,-1.7732 -0.6432,-0.7493 -1.1139,-1.6152 -1.429,-2.6017 -0.3138,-0.9929 -0.4759,-2.026 -0.4707,-3.0993 -0.005,-2.3592 0.6937,-4.2285 2.0863,-5.5999 1.3836,-1.3728 3.313,-2.0559 5.7897,-2.0559 1.3174,0 2.4727,0.2074 3.4452,0.6222 0.9725,0.4148 1.7777,0.9878 2.4157,1.7215 0.6431,0.7246 1.1294,1.5646 1.4691,2.5264 0.3242,0.9527 0.4915,1.9496 0.4953,2.9931 z m 3.0757,-37.0798 c -0.005,1.5646 -0.6289,2.7585 -1.8801,3.5945 -1.2513,0.831 -2.9733,1.2808 -5.166,1.352 l -9.3294,0.2632 c -0.9025,-0.6689 -1.6312,-1.3015 -2.1629,-1.9042 -0.5523,-0.6067 -0.9881,-1.1848 -1.3122,-1.7409 -0.3346,-0.5522 -0.5472,-1.0889 -0.6484,-1.6152 -0.1062,-0.5172 -0.1621,-1.059 -0.1569,-1.6164 -0.005,-1.7318 0.8817,-3.0475 2.6336,-3.9536 1.7583,-0.9022 4.2297,-1.3521 7.4351,-1.3572 1.9761,0.005 3.6423,0.2022 4.9999,0.5976 1.3524,0.3992 2.452,0.9307 3.287,1.5892 0.8364,0.6637 1.429,1.3974 1.7778,2.2127 0.3397,0.8205 0.5174,1.6813 0.5225,2.5783 z" /><path
             id="path178"
             style="fill:#999999;fill-opacity:1;fill-rule:nonzero;stroke:none"
             d="m 473.2852,203.5435 c -0.005,-0.3551 -0.1063,-0.6585 -0.3138,-0.9112 -0.2178,-0.2632 -0.5614,-0.4809 -1.0438,-0.6534 -0.4901,-0.1724 -1.1644,-0.2994 -2.0098,-0.3901 -0.8519,-0.0856 -1.91,-0.1271 -3.1561,-0.1322 -1.2915,0.005 -2.3547,0.0466 -3.2066,0.1322 -0.8559,0.0907 -1.5236,0.2177 -2.006,0.3901 -0.4901,0.1725 -0.8454,0.3902 -1.0477,0.6534 -0.2127,0.2527 -0.3086,0.5561 -0.3086,0.9112 l 0,26.5074 c 0,2.253 -0.1724,4.0263 -0.5018,5.3122 -0.3293,1.2807 -0.8052,2.3851 -1.4289,3.3067 -0.6328,0.9204 -1.4433,1.6295 -2.4261,2.1363 -0.9919,0.4965 -2.1525,0.7492 -3.4647,0.7544 -1.6714,-0.005 -3.357,-0.6131 -5.0648,-1.8225 -1.7012,-1.2211 -3.475,-2.9931 -5.3137,-5.3121 l 0,-30.8824 c -0.004,-0.3551 -0.1102,-0.6585 -0.3138,-0.9112 -0.2126,-0.2632 -0.5718,-0.4809 -1.0736,-0.6534 -0.5018,-0.1724 -1.1748,-0.2994 -2.0008,-0.3901 -0.835,-0.0856 -1.8944,-0.1271 -3.1859,-0.1322 -1.2863,0.005 -2.3443,0.0466 -3.1859,0.1322 -0.8311,0.0907 -1.5041,0.2177 -2.0007,0.3901 -0.5058,0.1725 -0.861,0.3902 -1.0737,0.6534 -0.2126,0.2527 -0.3189,0.5561 -0.3138,0.9112 l 0,46.4532 c -0.005,0.3435 0.0856,0.6481 0.2581,0.9112 0.1724,0.2528 0.4862,0.4706 0.9478,0.6482 0.45,0.1724 1.0322,0.3033 1.7466,0.3953 0.7041,0.0856 1.6053,0.131 2.6854,0.131 1.1087,0 2.0306,-0.0454 2.7645,-0.131 0.7249,-0.092 1.2915,-0.2229 1.687,-0.3953 0.4058,-0.1776 0.6937,-0.3954 0.861,-0.6482 0.1724,-0.2631 0.2632,-0.5677 0.2684,-0.9112 l 0,-5.3627 c 2.5687,2.7753 5.1814,4.861 7.8409,6.248 2.6543,1.3883 5.4343,2.0818 8.322,2.087 3.1651,-0.005 5.8298,-0.5263 8.003,-1.5646 2.1784,-1.0487 3.9302,-2.4668 5.2723,-4.2492 1.3381,-1.7914 2.3054,-3.8836 2.898,-6.2726 0.5822,-2.4007 0.8804,-5.2823 0.8856,-8.6435 l 0,-28.6956 z" /><path
             id="path180"
             style="fill:#999999;fill-opacity:1;fill-rule:nonzero;stroke:none"
             d="m 548.9884,263.5414 c 0,-1.0487 -0.0454,-1.9237 -0.1271,-2.6327 -0.0907,-0.7143 -0.2373,-1.2821 -0.4201,-1.6969 -0.1971,-0.42 -0.415,-0.7337 -0.6484,-0.9359 -0.2528,-0.2139 -0.5316,-0.315 -0.835,-0.3098 l -22.064,0 0,-18.1218 20.7064,0 c 0.3086,-0.005 0.5822,-0.0921 0.835,-0.2632 0.2334,-0.1724 0.4513,-0.4718 0.6535,-0.8866 0.1829,-0.42 0.3242,-0.9722 0.4163,-1.6657 0.0752,-0.6935 0.1257,-1.5646 0.131,-2.6029 -0.005,-1.0487 -0.0558,-1.9133 -0.131,-2.6081 -0.0921,-0.6935 -0.2334,-1.2652 -0.4163,-1.7163 -0.2022,-0.4511 -0.4201,-0.7751 -0.6535,-0.9618 -0.2528,-0.1971 -0.5264,-0.2943 -0.835,-0.2891 l -20.7064,0 0,-25.0997 c 0,-0.385 -0.1063,-0.7142 -0.3138,-0.9929 -0.2127,-0.2774 -0.5823,-0.5159 -1.1191,-0.7039 -0.542,-0.1918 -1.2461,-0.3331 -2.1123,-0.4394 -0.8764,-0.1024 -1.9812,-0.153 -3.3336,-0.1581 -1.3265,0.005 -2.4261,0.0557 -3.3117,0.1581 -0.887,0.1063 -1.5911,0.2476 -2.1175,0.4394 -0.5174,0.188 -0.8921,0.4265 -1.1151,0.7039 -0.2321,0.2787 -0.3436,0.6079 -0.3436,0.9929 l 0,61.0919 c 0,1.5244 0.3955,2.6224 1.1747,3.3016 0.7807,0.6728 1.7376,1.0124 2.8981,1.0176 l 31.7579,0 c 0.3034,-0.005 0.5822,-0.1011 0.835,-0.2891 0.2334,-0.1918 0.4513,-0.5055 0.6484,-0.9359 0.1828,-0.4355 0.3294,-1.0137 0.4201,-1.7421 0.0817,-0.7299 0.1271,-1.6152 0.1271,-2.6535 z" /><path
             id="path182"
             style="fill:#999999;fill-opacity:1;fill-rule:nonzero;stroke:none"
             d="m 606.4112,227.2406 c -0.005,-3.9639 -0.5317,-7.5753 -1.5651,-10.8355 -1.0477,-3.2666 -2.6335,-6.0769 -4.751,-8.4361 -2.1175,-2.3592 -4.7808,-4.1831 -7.9822,-5.469 -3.2015,-1.2859 -6.9295,-1.9288 -11.2046,-1.9288 -4.148,0 -7.7436,0.5717 -10.7986,1.7163 -3.0692,1.1446 -5.6067,2.8103 -7.6179,5.0023 -2.0163,2.1829 -3.51,4.8713 -4.4825,8.0718 -0.9725,3.1901 -1.4588,6.8353 -1.4588,10.9379 0,3.9537 0.5265,7.5742 1.591,10.8602 1.0529,3.277 2.6387,6.0925 4.7704,8.4361 2.1175,2.3398 4.7666,4.152 7.9577,5.4431 3.1754,1.282 6.9034,1.9249 11.1837,1.9301 4.1636,-0.005 7.78,-0.573 10.8492,-1.6968 3.0498,-1.1343 5.577,-2.7896 7.5829,-4.9725 1.9956,-2.192 3.4893,-4.8805 4.4618,-8.0706 0.9725,-3.1953 1.4587,-6.8611 1.464,-10.9885 z m -13.5087,-0.5211 c -0.005,2.288 -0.1919,4.3944 -0.5472,6.3245 -0.3696,1.9237 -0.9868,3.5998 -1.8581,5.0283 -0.8713,1.4168 -2.0215,2.5316 -3.4699,3.3314 -1.438,0.7998 -3.2573,1.2003 -5.4447,1.2003 -1.9553,0 -3.6527,-0.3603 -5.1115,-1.0694 -1.4587,-0.7181 -2.6581,-1.7564 -3.6007,-3.124 -0.9375,-1.3714 -1.6416,-3.0229 -2.1123,-4.9466 -0.4707,-1.9288 -0.6989,-4.1273 -0.6989,-6.5876 0,-2.2996 0.188,-4.406 0.5731,-6.3297 0.3786,-1.9288 0.992,-3.6049 1.8529,-5.0282 0.8467,-1.4233 2.0008,-2.5265 3.4596,-3.3068 1.4586,-0.7843 3.2727,-1.1744 5.4304,-1.1693 1.9748,-0.005 3.6968,0.3501 5.1607,1.0682 1.4587,0.709 2.6542,1.7422 3.6008,3.0994 0.9375,1.3468 1.6312,2.9879 2.0825,4.9167 0.4512,1.9237 0.6781,4.1221 0.6833,6.5928 z" /><path
             id="path184"
             style="fill:#999999;fill-opacity:1;fill-rule:nonzero;stroke:none"
             d="m 646.7141,245.6775 c 0,-1.2561 -0.0402,-2.2841 -0.1063,-3.0787 -0.0701,-0.7998 -0.1764,-1.4233 -0.3139,-1.8744 -0.1361,-0.4498 -0.3241,-0.7635 -0.5419,-0.9359 -0.2334,-0.1776 -0.5161,-0.2631 -0.8662,-0.2579 -0.2788,-0.005 -0.5926,0.0557 -0.9376,0.1815 -0.3539,0.1166 -0.7442,0.2488 -1.1747,0.3901 -0.4357,0.1361 -0.9116,0.2683 -1.438,0.3902 -0.5174,0.1219 -1.0944,0.1815 -1.7116,0.1815 -0.7352,0 -1.4639,-0.1517 -2.1939,-0.4446 -0.7288,-0.2995 -1.4886,-0.7545 -2.2692,-1.378 -0.7845,-0.6274 -1.6053,-1.4635 -2.452,-2.5018 -0.8558,-1.0422 -1.7673,-2.3281 -2.7347,-3.8525 l 0,-28.9535 c -0.005,-0.3551 -0.1115,-0.6585 -0.3189,-0.9112 -0.2127,-0.2632 -0.5628,-0.4809 -1.0685,-0.6534 -0.5018,-0.1724 -1.1709,-0.2994 -2.006,-0.3901 -0.8311,-0.0856 -1.8944,-0.1271 -3.1807,-0.1322 -1.281,0.005 -2.3456,0.0466 -3.1807,0.1322 -0.8363,0.0907 -1.5042,0.2177 -2.0111,0.3901 -0.5018,0.1725 -0.861,0.3902 -1.0632,0.6534 -0.2127,0.2527 -0.3204,0.5561 -0.3152,0.9112 l 0,46.4532 c -0.005,0.3435 0.0766,0.6481 0.2594,0.9112 0.1711,0.2528 0.4862,0.4706 0.9414,0.6482 0.446,0.1724 1.0282,0.3033 1.7427,0.3953 0.7092,0.0856 1.6104,0.131 2.6892,0.131 1.1151,0 2.0358,-0.0454 2.7606,-0.131 0.7339,-0.092 1.2915,-0.2229 1.6974,-0.3953 0.3994,-0.1776 0.6833,-0.3954 0.8558,-0.6482 0.1776,-0.2631 0.2581,-0.5677 0.2632,-0.9112 l 0,-5.7775 c 1.215,1.7318 2.36,3.1642 3.444,4.2932 1.0736,1.1239 2.1019,2.0157 3.0795,2.6794 0.9673,0.6572 1.9399,1.1187 2.9175,1.3818 0.9726,0.258 1.945,0.3902 2.9227,0.3954 0.4409,-0.005 0.9271,-0.0311 1.4587,-0.0817 0.5174,-0.0505 1.0594,-0.1361 1.6157,-0.2579 0.5524,-0.1219 1.0386,-0.2632 1.4639,-0.42 0.4149,-0.1569 0.7145,-0.3241 0.9116,-0.4965 0.1828,-0.1776 0.3241,-0.3642 0.4162,-0.5716 0.0752,-0.2087 0.1621,-0.4965 0.2373,-0.8569 0.0609,-0.3694 0.1115,-0.9164 0.1569,-1.6398 0.0311,-0.7349 0.0506,-1.7214 0.0506,-2.9671 z" /></g></g></g><g
       id="g186"><g
         clip-path="url(#clipPath190)"
         id="g188"><g
           transform="matrix(0.9976663,0,0,0.9976931,875.1451,136.1072)"
           id="g194"><text
             id="text196"
             style="font-variant:normal;font-weight:bold;font-size:68px;font-family:Arial;-inkscape-font-specification:Arial-BoldMT;writing-mode:lr-tb;fill:#000000;fill-opacity:1;fill-rule:nonzero;stroke:none"
             transform="matrix(1,0,0,-1,0,-40.79999)"><tspan
               id="tspan198"
               y="0"
               x="0 49.1096 90.671204 143.58881">DFG </tspan></text>
</g><g
           transform="matrix(0.9976663,0,0,0.9976931,875.1451,136.1072)"
           id="g200"><text
             id="text202"
             style="font-variant:normal;font-weight:bold;font-size:68px;font-family:Arial;-inkscape-font-specification:Arial-BoldMT;writing-mode:lr-tb;fill:#000000;fill-opacity:1;fill-rule:nonzero;stroke:none"
             transform="matrix(1,0,0,-1,162.4297,-40.79999)"><tspan
               id="tspan204"
               y="0"
               x="0 45.355999 71.821602 90.711998 132.2464 158.71201 177.6024 200.2464">Priority</tspan></text>
</g><g
           transform="matrix(0.9976663,0,0,0.9976931,875.1451,136.1072)"
           id="g206"><text
             id="text208"
             style="font-variant:normal;font-weight:bold;font-size:68px;font-family:Arial;-inkscape-font-specification:Arial-BoldMT;writing-mode:lr-tb;fill:#000000;fill-opacity:1;fill-rule:nonzero;stroke:none"
             transform="matrix(1,0,0,-1,419.3865,-40.79999)"><tspan
               id="tspan210"
               y="0"
               x="0 45.355999 71.821602 113.356 154.8904 181.356 219.1776 279.64319 340.1088 377.93039 396.8208 434.6424 472.46399 510.28561 548.10718">Programme 1593 </tspan></text>
</g><g
           transform="matrix(0.9976663,0,0,0.9976931,875.1451,63.27559)"
           id="g212"><text
             id="text214"
             style="font-variant:normal;font-weight:normal;font-size:68px;font-family:Arial;-inkscape-font-specification:ArialMT;writing-mode:lr-tb;fill:#000000;fill-opacity:1;fill-rule:nonzero;stroke:none"
             transform="matrix(1,0,0,-1,0,-40.79999)"><tspan
               id="tspan216"
               y="0"
               x="0 49.1096 86.931198 120.9312 136.0408 173.8624 211.68401">Design </tspan></text>
</g><g
           transform="matrix(0.9976663,0,0,0.9976931,875.1451,63.27559)"
           id="g218"><text
             id="text220"
             style="font-variant:normal;font-weight:normal;font-size:68px;font-family:Arial;-inkscape-font-specification:ArialMT;writing-mode:lr-tb;fill:#000000;fill-opacity:1;fill-rule:nonzero;stroke:none"
             transform="matrix(1,0,0,-1,230.5625,-40.79999)"><tspan
               id="tspan222"
               y="0"
               x="0 41.534401 79.328796">For</tspan></text>
</g><g
           transform="matrix(0.9976663,0,0,0.9976931,875.1451,63.27559)"
           id="g224"><text
             id="text226"
             style="font-variant:normal;font-weight:normal;font-size:68px;font-family:Arial;-inkscape-font-specification:ArialMT;writing-mode:lr-tb;fill:#000000;fill-opacity:1;fill-rule:nonzero;stroke:none"
             transform="matrix(1,0,0,-1,351.4529,-40.79999)"><tspan
               id="tspan228"
               y="0"
               x="0 41.534401 79.356003 98.246399 136.06799 158.71201 196.5336 215.424 238.06799">Future - </tspan></text>
</g><g
           transform="matrix(0.9976663,0,0,0.9976931,875.1451,63.27559)"
           id="g230"><text
             id="text232"
             style="font-variant:normal;font-weight:normal;font-size:68px;font-family:Arial;-inkscape-font-specification:ArialMT;writing-mode:lr-tb;fill:#000000;fill-opacity:1;fill-rule:nonzero;stroke:none"
             transform="matrix(1,0,0,-1,608.4141,-40.79999)"><tspan
               id="tspan234"
               y="0"
               x="0 56.644001 94.465599 132.2872 170.1088 207.9304 245.752">Managed</tspan></text>
</g><g
           transform="matrix(0.9976663,0,0,0.9976931,875.1451,63.27559)"
           id="g236"><text
             id="text238"
             style="font-variant:normal;font-weight:normal;font-size:68px;font-family:Arial;-inkscape-font-specification:ArialMT;writing-mode:lr-tb;fill:#000000;fill-opacity:1;fill-rule:nonzero;stroke:none"
             transform="matrix(1,0,0,-1,910.8592,-40.79999)"><tspan
               id="tspan240"
               y="0"
               x="0 45.355999 83.177597 102.068 120.9584 170.06799 207.8896 230.5336 268.35519 287.24561 332.60159 366.60159 404.42319 419.53281 457.3544 476.24481 491.3544 529.17603 566.99762">Software Evolution </tspan></text>
</g></g></g></g></svg>