<?xml version="1.0" encoding="UTF-8" standalone="no"?>
<svg
   xmlns:dc="http://purl.org/dc/elements/1.1/"
   xmlns:cc="http://creativecommons.org/ns#"
   xmlns:rdf="http://www.w3.org/1999/02/22-rdf-syntax-ns#"
   xmlns:svg="http://www.w3.org/2000/svg"
   xmlns="http://www.w3.org/2000/svg"
   viewBox="0 0 2694.3728 318.26974"
   height="318.26974"
   width="2694.3728"
   xml:space="preserve"
   version="1.1"
   id="svg2"><metadata
     id="metadata8"><rdf:RDF><cc:Work
         rdf:about=""><dc:format>image/svg+xml</dc:format><dc:type
           rdf:resource="http://purl.org/dc/dcmitype/StillImage" /></cc:Work></rdf:RDF></metadata><defs
     id="defs6"><clipPath
       id="clipPath12"
       clipPathUnits="userSpaceOnUse"><path
         id="path14"
         d="m 0,0 2384,0 0,283 L 0,283 0,0 Z" /></clipPath><clipPath
       id="clipPath22"
       clipPathUnits="userSpaceOnUse"><path
         id="path24"
         d="m 0,0 2384,0 0,283 L 0,283 0,0 Z" /></clipPath><clipPath
       id="clipPath32"
       clipPathUnits="userSpaceOnUse"><path
         style="clip-rule:evenodd"
         id="path34"
         d="m 1887,255 0,0 0,-99.4426 270.3,0 0,99.4426" /></clipPath><clipPath
       id="clipPath38"
       clipPathUnits="userSpaceOnUse"><path
         id="path40"
         d="m 1887.25,160 265.75,0 0,94.61802 -265.75,0 0,-94.61802 z" /></clipPath><clipPath
       id="clipPath48"
       clipPathUnits="userSpaceOnUse"><path
         id="path50"
         d="m 1887,254.752 0,0 0,-98.9467 270.3,0 0,98.9467" /></clipPath><clipPath
       id="clipPath54"
       clipPathUnits="userSpaceOnUse"><path
         id="path56"
         d="m 1887.25,160 265.75,0 0,94.61802 -265.75,0 0,-94.61802 z" /></clipPath><clipPath
       id="clipPath66"
       clipPathUnits="userSpaceOnUse"><path
         style="clip-rule:evenodd"
         id="path68"
         d="m -2,249.8024 0,0 0,-251.547978 792.7929,0 0,251.547978" /></clipPath><clipPath
       id="clipPath72"
       clipPathUnits="userSpaceOnUse"><path
         id="path74"
         d="m 0,0.4929945 789.5,0 0,254.5069955 -789.5,0 L 0,0.4929945 Z" /></clipPath><clipPath
       id="clipPath104"
       clipPathUnits="userSpaceOnUse"><path
         id="path106"
         d="m -2,255 0,0 0,-256.745578 792.7929,0 0,256.745578" /></clipPath><clipPath
       id="clipPath110"
       clipPathUnits="userSpaceOnUse"><path
         id="path112"
         d="m 0,0.4929945 789.5,0 0,254.5069955 -789.5,0 L 0,0.4929945 Z" /></clipPath><clipPath
       id="clipPath136"
       clipPathUnits="userSpaceOnUse"><path
         id="path138"
         d="m 787.3751,0 1596.625,0 0,158.5593 -1596.625,0 0,-158.5593 z" /></clipPath></defs><g
     clip-path="url(#clipPath12)"
     transform="matrix(1.25,0,0,-1.25,-0.2171515,318.26975)"
     id="g10"><g
       id="g16" /><g
       id="g18"><g
         clip-path="url(#clipPath22)"
         id="g20"><path
           id="path26"
           style="fill:#ffffff;fill-opacity:1;fill-rule:nonzero;stroke:none"
           d="m 0,0 2384,0 0,283 L 0,283 0,0 Z" /></g></g><g
       id="g28"><g
         clip-path="url(#clipPath32)"
         id="g30"><g
           clip-path="url(#clipPath38)"
           id="g36"><path
             id="path42"
             style="fill:#2056ad;fill-opacity:1;fill-rule:nonzero;stroke:none"
             d="m 1887,159.2772 0,0 48.225,0 c 12.779,0 23.871,2.9758 31.828,9.9194 7.957,7.1916 12.78,18.847 12.78,36.702 0,19.343 -4.581,30.9984 -12.056,37.942 -7.475,6.9436 -18.326,9.1755 -31.105,9.1755 l 0,0 -49.672,0 0,-20.3349 41.956,0 c 6.51,0.248 10.85,-2.2319 13.261,-6.6956 2.653,-4.4638 3.376,-10.9115 3.376,-19.095 0,-7.9356 -0.723,-14.3832 -3.134,-18.847 -2.412,-4.4638 -6.752,-6.9436 -13.262,-6.9436 l -9.645,0 0,33.2302 -32.552,0 0,-55.053 z" /></g></g></g><g
       id="g44"><g
         clip-path="url(#clipPath48)"
         id="g46"><g
           clip-path="url(#clipPath54)"
           id="g52"><path
             id="path58"
             style="fill:#2056ad;fill-opacity:1;fill-rule:nonzero;stroke:none"
             d="m 1986.825,159.2772 0,0 32.793,0 0,33.9741 40.75,0 0,21.0789 -40.75,0 0,18.351 40.75,0 0,20.3349 -73.543,0 0,-93.7389 z" /><path
             id="path60"
             style="fill:#2056ad;fill-opacity:1;fill-rule:nonzero;stroke:none"
             d="m 2082.793,242.8487 0,0 c -9.645,-7.9356 -15.673,-19.591 -15.673,-35.2141 0,-16.8631 5.787,-29.2625 15.432,-37.694 9.404,-8.1836 22.666,-12.3994 37.615,-12.3994 13.744,0.248 24.836,1.488 36.169,4.9598 l 0,43.3976 -27.729,0 0,-25.2946 -0.483,-0.248 c -2.411,-0.7439 -5.304,-0.7439 -7.716,-0.7439 -7.233,0 -12.297,2.9758 -15.432,7.6875 -3.134,4.9598 -4.34,11.1594 -4.34,17.8551 -0.241,8.9275 2.894,15.8711 7.957,20.5829 5.305,4.7117 12.78,6.9436 21.46,6.9436 8.922,0 15.915,-1.9839 20.978,-4.7118 l 0,23.3108 c -8.198,2.2319 -14.467,3.4718 -30.864,3.4718 l 0,0 c -14.467,0 -27.729,-3.9678 -37.374,-11.9033 z" /></g></g></g><g
       id="g62"><g
         clip-path="url(#clipPath66)"
         id="g64"><g
           clip-path="url(#clipPath72)"
           id="g70"><path
             id="path76"
             style="fill:#c0c0c0;fill-opacity:1;fill-rule:nonzero;stroke:none"
             d="m 122.8077,193.3144 0,0 c 0,-3.2363 -0.1953,-5.8842 -0.3905,-8.1397 -0.293,-2.2556 -0.6837,-3.9228 -1.3673,-5.2958 -0.586,-1.2749 -1.1719,-2.2556 -1.9532,-2.844 -0.7812,-0.6865 -1.6602,-0.9807 -2.6368,-0.9807 l -68.26335,0 0,-56.3899 64.06415,0 c 0.9765,0 1.8554,-0.2942 2.6367,-0.7846 0.7813,-0.5883 1.3672,-1.471 2.0509,-2.7459 0.5859,-1.2749 0.9765,-3.0401 1.2695,-5.1976 0.1953,-2.1576 0.3907,-4.9036 0.3907,-8.1398 0,-3.23629 -0.1954,-5.88417 -0.3907,-8.04168 -0.293,-2.15756 -0.6836,-3.92281 -1.2695,-5.39385 -0.6837,-1.37297 -1.2696,-2.35367 -2.0509,-2.94208 -0.7813,-0.58842 -1.6602,-0.88262 -2.6367,-0.88262 l -64.06415,0 0,-78.063227 c 0,-1.176832 -0.29298,-2.255595 -0.97658,-3.040151 C 46.63401,3.550168 45.4621,2.765613 43.80191,2.177196 42.14171,1.588781 39.89556,1.196503 37.25878,0.8042255 34.52434,0.5100173 31.10629,0.3138786 26.90697,0.3138786 c -4.10167,0 -7.51972,0.1961387 -10.25417,0.4903469 C 13.91836,1.196503 11.76987,1.588781 10.10967,2.177196 8.547131,2.765613 7.375235,3.550168 6.69162,4.432792 5.910352,5.217348 5.617376,6.296111 5.617376,7.472943 l 0,189.960357 c 0,4.7073 1.171903,8.1398 3.613369,10.2973 2.441465,2.0594 5.371225,3.1382 8.984595,3.1382 l 98.24456,0 c 0.9766,0 1.8556,-0.2941 2.6368,-0.8826 0.7813,-0.5884 1.3672,-1.5691 1.9532,-2.9421 0.6836,-1.373 1.0743,-3.1382 1.3673,-5.3938 0.1952,-2.3536 0.3905,-5.0996 0.3905,-8.3359 l 0,0 z m 0,0 0,0 z" /><path
             id="path78"
             style="fill:#c0c0c0;fill-opacity:1;fill-rule:nonzero;stroke:none"
             d="m 262.948,45.42579 0,0 c 0,-7.25713 -1.0743,-13.72972 -3.2228,-19.5158 -2.1485,-5.78609 -5.2736,-10.5915 -9.3753,-14.61234 -4.1992,-4.020846 -9.2775,-6.962927 -15.43,-9.120454 -6.0549,-2.0594562 -13.0862,-3.0401499 -20.9966,-3.0401499 -7.5197,0 -14.1605,0.88262438 -20.1177,2.7459429 -5.8595,1.863318 -10.9378,4.707329 -14.9418,8.532041 -4.1016,3.72663 -7.2267,8.53203 -9.4728,14.12198 -2.1486,5.68803 -3.2228,12.35675 -3.2228,19.90809 l 0,72.2771 c 0,0.5884 0.1953,1.1769 0.586,1.6672 0.3906,0.4903 0.9765,0.8826 1.9531,1.1768 0.9767,0.2943 2.1486,0.5884 3.711,0.7846 1.5626,0.0981 3.5158,0.1961 5.8596,0.1961 2.3438,0 4.1993,-0.098 5.7618,-0.1961 1.5626,-0.1962 2.7345,-0.4903 3.6135,-0.7846 0.9765,-0.2942 1.6601,-0.6865 2.0508,-1.1768 0.3906,-0.4903 0.5859,-1.0788 0.5859,-1.6672 l 0,-70.11957 c 0,-4.70733 0.5859,-8.82625 1.7578,-12.25868 1.0743,-3.5305 2.7345,-6.37451 4.9806,-8.6301 2.1485,-2.2556 4.6876,-3.92278 7.7151,-5.09961 3.0274,-1.07876 6.4454,-1.66718 10.1565,-1.66718 3.8086,0 7.1291,0.58842 10.1565,1.76524 2.9297,1.07877 5.4689,2.84402 7.6173,5.09961 2.0509,2.15753 3.6134,4.90348 4.7854,8.23783 1.0742,3.23629 1.6601,6.96293 1.6601,11.17991 l 0,71.49255 c 0,0.5884 0.1953,1.1769 0.586,1.6672 0.3906,0.4903 0.9766,0.8826 1.9531,1.1768 0.879,0.2943 2.1486,0.5884 3.711,0.7846 1.4649,0.0981 3.4182,0.1961 5.762,0.1961 2.3437,0 4.1993,-0.098 5.7618,-0.1961 1.4649,-0.1962 2.6368,-0.4903 3.6133,-0.7846 0.879,-0.2942 1.5626,-0.6865 1.8556,-1.1768 0.3906,-0.4903 0.586,-1.0788 0.586,-1.6672 l 0,-71.29641 z m 0,0 0,0 z" /><path
             id="path80"
             style="fill:#c0c0c0;fill-opacity:1;fill-rule:nonzero;stroke:none"
             d="m 385.9002,110.1516 0,0 c 0,-1.7653 -0.0977,-3.3343 -0.1954,-4.6092 -0.1952,-1.1769 -0.3905,-2.2557 -0.6835,-3.0402 -0.293,-0.6865 -0.6836,-1.275 -1.1719,-1.6672 -0.4884,-0.3923 -0.9766,-0.4904 -1.4649,-0.4904 l -29.6883,0 0,-95.813738 c 0,-0.686486 -0.1953,-1.176833 -0.5859,-1.66718 -0.3907,-0.490347 -1.0742,-0.882624 -1.9532,-1.176832 -0.9766,-0.294208 -2.1485,-0.588417 -3.711,-0.7845551 -1.5626,-0.1961388 -3.5157,-0.2942082 -5.8595,-0.2942082 -2.3438,0 -4.297,0.0980694 -5.7619,0.2942082 -1.5625,0.1961381 -2.8321,0.4903471 -3.711,0.7845551 -0.9766,0.294208 -1.6603,0.686485 -2.0508,1.176832 -0.3907,0.490347 -0.586,0.980694 -0.586,1.66718 l 0,95.813738 -29.5906,0 c -0.6836,0 -1.1719,0.0981 -1.5625,0.4904 -0.4883,0.3922 -0.7813,0.9807 -1.1719,1.6672 -0.293,0.7845 -0.4883,1.8633 -0.6836,3.0402 -0.0977,1.2749 -0.1954,2.8439 -0.1954,4.6092 0,1.7652 0.0977,3.3343 0.1954,4.6092 0.1953,1.373 0.3906,2.3537 0.6836,3.1383 0.3906,0.7845 0.6836,1.2749 1.1719,1.6671 0.3906,0.2943 0.8789,0.4904 1.5625,0.4904 l 83.4982,0 c 0.4883,0 0.9765,-0.1961 1.4649,-0.4904 0.4883,-0.3922 0.8789,-0.8826 1.1719,-1.6671 0.293,-0.7846 0.4883,-1.7653 0.6835,-3.1383 0.0977,-1.2749 0.1954,-2.844 0.1954,-4.6092 l 0,0 z m 0,0 0,0 z" /><path
             id="path82"
             style="fill:#c0c0c0;fill-opacity:1;fill-rule:nonzero;stroke:none"
             d="m 532.9741,45.42579 0,0 c 0,-7.25713 -1.0742,-13.72972 -3.2227,-19.5158 -2.1485,-5.78609 -5.2736,-10.5915 -9.4729,-14.61234 -4.1017,-4.020846 -9.2776,-6.962927 -15.3324,-9.120454 -6.1525,-2.0594562 -13.184,-3.0401499 -21.0942,-3.0401499 -7.4222,0 -14.0629,0.88262438 -20.0201,2.7459429 -5.9572,1.863318 -10.9378,4.707329 -15.0394,8.532041 -4.1017,3.72663 -7.2268,8.53203 -9.3753,14.12198 -2.1485,5.68803 -3.2227,12.35675 -3.2227,19.90809 l 0,72.2771 c 0,0.5884 0.1953,1.1769 0.4883,1.6672 0.3906,0.4903 1.0743,0.8826 2.0508,1.1768 0.8789,0.2943 2.1485,0.5884 3.711,0.7846 1.4649,0.0981 3.4181,0.1961 5.8595,0.1961 2.2462,0 4.1994,-0.098 5.7619,-0.1961 1.4649,-0.1962 2.7345,-0.4903 3.6134,-0.7846 0.9766,-0.2942 1.5625,-0.6865 1.9532,-1.1768 0.3906,-0.4903 0.5859,-1.0788 0.5859,-1.6672 l 0,-70.11957 c 0,-4.70733 0.586,-8.82625 1.7579,-12.25868 1.1719,-3.5305 2.8321,-6.37451 4.9806,-8.6301 2.1484,-2.2556 4.7852,-3.92278 7.8127,-5.09961 3.0273,-1.07876 6.3478,-1.66718 10.1565,-1.66718 3.711,0 7.129,0.58842 10.1565,1.76524 2.9298,1.07877 5.4689,2.84402 7.5197,5.09961 2.1484,2.15753 3.711,4.90348 4.8829,8.23783 1.0742,3.23629 1.6602,6.96293 1.6602,11.17991 l 0,71.49255 c 0,0.5884 0.1954,1.1769 0.5859,1.6672 0.293,0.4903 0.9767,0.8826 1.8556,1.1768 0.9766,0.2943 2.1484,0.5884 3.711,0.7846 1.5626,0.0981 3.5157,0.1961 5.8595,0.1961 2.2462,0 4.1993,-0.098 5.6642,-0.1961 1.5626,-0.1962 2.7345,-0.4903 3.6134,-0.7846 0.9765,-0.2942 1.5625,-0.6865 1.9532,-1.1768 0.3906,-0.4903 0.5859,-1.0788 0.5859,-1.6672 l 0,-71.29641 z m 0,0 0,0 z" /><path
             id="path84"
             style="fill:#c0c0c0;fill-opacity:1;fill-rule:nonzero;stroke:none"
             d="m 665.0086,4.334723 0,0 c 0,-0.686485 -0.1953,-1.274902 -0.3906,-1.667179 -0.293,-0.490348 -0.8789,-0.882625 -1.7579,-1.176833 -0.8789,-0.294208 -2.2461,-0.490346 -4.0039,-0.6864855 -1.7579,-0.0980694 -4.1994,-0.1961388 -7.2268,-0.1961388 -2.6368,0 -4.6876,0.0980694 -6.1525,0.1961388 -1.5626,0.1961395 -2.7345,0.3922775 -3.6134,0.6864855 -0.8789,0.392278 -1.5625,0.784555 -1.8555,1.274902 -0.3906,0.588416 -0.6836,1.176832 -0.9766,1.961388 L 628.4843,31.20573 c -1.3673,3.04015 -2.5392,5.68803 -3.8087,8.04169 -1.1719,2.2556 -2.5392,4.21698 -4.1016,5.78609 -1.4649,1.56912 -3.2228,2.74594 -5.1759,3.5305 -1.9533,0.78455 -4.1994,1.17683 -6.7385,1.27491 l -7.5197,0 0,-45.308058 c 0,-0.686486 -0.1953,-1.176833 -0.586,-1.66718 -0.3906,-0.490347 -1.0742,-0.882624 -1.9531,-1.176832 -0.879,-0.294208 -2.1486,-0.588417 -3.7111,-0.7845551 -1.4649,-0.1961388 -3.4181,-0.2942082 -5.8595,-0.2942082 -2.2462,0 -4.1993,0.0980694 -5.7618,0.2942082 -1.5626,0.1961381 -2.8322,0.4903471 -3.7111,0.7845551 -0.879,0.294208 -1.5625,0.686485 -1.9532,1.176832 -0.293,0.490347 -0.4882,0.980694 -0.4882,1.66718 l 0,107.876338 c 0,2.7459 0.6835,4.6093 2.0508,5.8842 1.3672,1.1767 3.0274,1.7652 5.0782,1.7652 l 30.6648,0 c 3.1252,0 5.6643,-0.0981 7.7151,-0.1961 1.9531,-0.0981 3.8087,-0.2943 5.4689,-0.4904 4.7852,-0.6865 8.9846,-1.7652 12.8909,-3.4324 3.8087,-1.6672 7.0314,-3.8248 9.6682,-6.4727 2.6368,-2.6477 4.6876,-5.884 6.0548,-9.51267 1.4649,-3.62853 2.1486,-7.84552 2.1486,-12.55285 0,-3.92277 -0.4884,-7.55134 -1.5626,-10.88569 -0.9766,-3.23629 -2.4414,-6.17838 -4.3947,-8.72818 -1.9531,-2.54981 -4.3946,-4.8054 -7.2267,-6.66872 -2.9298,-1.96139 -6.1525,-3.43243 -9.8635,-4.60926 1.8555,-0.88262 3.5157,-1.96138 5.0783,-3.13822 1.4649,-1.2749 2.9297,-2.74595 4.3946,-4.41312 1.3672,-1.76525 2.6367,-3.82471 3.8086,-5.98223 1.2696,-2.2556 2.4415,-4.8054 3.6134,-7.64942 l 9.9613,-23.3405 c 0.8789,-2.35367 1.5624,-4.02085 1.8554,-5.099613 0.293,-1.078763 0.4883,-1.961388 0.4883,-2.549804 l 0,0 z m -31.0554,80.613027 0,0 c 0,3.92277 -0.8789,7.25714 -2.6368,9.90503 -1.8555,2.74593 -4.6876,4.60927 -8.6916,5.68802 -1.2696,0.2942 -2.6368,0.5884 -4.1994,0.7845 -1.5625,0.1962 -3.711,0.2943 -6.4455,0.2943 l -10.84,0 0,-33.73592 12.3049,0 c 3.4181,0 6.3479,0.39227 8.9846,1.2749 2.5392,0.78455 4.6876,1.96139 6.3479,3.43242 1.7578,1.47105 3.0274,3.33437 3.9063,5.39383 0.7812,2.05945 1.2696,4.41312 1.2696,6.96292 l 0,0 z m 0,0 0,0 z" /><path
             id="path86"
             style="fill:#c0c0c0;fill-opacity:1;fill-rule:nonzero;stroke:none"
             d="m 790.8906,10.70923 0,0 c 0,-1.863316 0,-3.334356 -0.1953,-4.511189 C 790.5,5.021208 790.3047,4.040515 790.0117,3.354029 789.7187,2.569475 789.3281,2.079128 788.8398,1.68685 788.4492,1.392642 787.8633,1.196503 787.3749,1.196503 l -59.5717,0 c -1.9532,0 -3.711,0.588416 -5.0783,1.765249 -1.3672,1.176832 -2.0509,3.13822 -2.0509,5.884162 l 0,103.561286 c 0,2.7459 0.6837,4.6093 2.0509,5.8842 1.3673,1.1767 3.1251,1.7652 5.0783,1.7652 l 59.1811,0 c 0.586,0 1.0742,-0.1961 1.4649,-0.4904 0.3906,-0.2942 0.7813,-0.7845 1.0742,-1.5691 0.293,-0.7845 0.586,-1.7652 0.6836,-2.942 0.1954,-1.1769 0.293,-2.746 0.293,-4.6093 0,-1.6672 -0.0976,-3.1383 -0.293,-4.315 -0.0976,-1.1769 -0.3906,-2.1576 -0.6836,-2.8441 -0.2929,-0.7845 -0.6836,-1.373 -1.0742,-1.6671 -0.3907,-0.2943 -0.8789,-0.4904 -1.4649,-0.4904 l -42.2862,0 0,-29.02854 35.743,0 c 0.586,0 1.0743,-0.19614 1.5626,-0.49034 0.4883,-0.39228 0.7813,-0.88263 1.1719,-1.56911 0.293,-0.6865 0.4883,-1.66718 0.6836,-2.84402 0.0977,-1.17683 0.1954,-2.64787 0.1954,-4.41312 0,-1.76525 -0.0977,-3.23629 -0.1954,-4.41312 -0.1953,-1.07877 -0.3906,-2.05946 -0.6836,-2.74594 -0.3906,-0.68649 -0.6836,-1.17684 -1.1719,-1.56912 -0.4883,-0.2942 -0.9766,-0.39227 -1.5626,-0.39227 l -35.743,0 0,-33.53972 42.6768,0 c 0.4884,0 1.0743,-0.19614 1.4649,-0.49036 0.4883,-0.39227 0.8789,-0.88262 1.1719,-1.66717 0.293,-0.68648 0.4883,-1.66718 0.6836,-2.84402 0.1953,-1.17683 0.1953,-2.64787 0.1953,-4.41312 l 0,0 z m 0,0 0,0 z" /><path
             id="path88"
             style="fill:#333399;fill-opacity:1;fill-rule:nonzero;stroke:none"
             d="m 115.0927,201.0618 0,0 c 0,-3.2362 -0.0977,-5.9821 -0.3906,-8.2378 -0.293,-2.1575 -0.6836,-3.9227 -1.2695,-5.1977 -0.586,-1.3729 -1.2696,-2.2555 -2.0509,-2.942 -0.6836,-0.6865 -1.5626,-0.9807 -2.5391,-0.9807 l -68.26342,0 0,-56.3899 64.06412,0 c 0.9766,0 1.8555,-0.1961 2.5391,-0.7845 0.7813,-0.4904 1.4648,-1.471 2.0508,-2.746 0.5859,-1.2749 0.9766,-3.0401 1.2696,-5.1977 0.293,-2.1575 0.3906,-4.8053 0.3906,-8.0417 0,-3.2363 -0.0976,-5.9822 -0.3906,-8.1397 -0.293,-2.1575 -0.6837,-3.92279 -1.2696,-5.29576 -0.586,-1.47102 -1.2695,-2.45168 -2.0508,-3.04014 -0.6836,-0.58841 -1.5625,-0.88262 -2.5391,-0.88262 l -64.06412,0 0,-78.06323 c 0,-1.17683 -0.39064,-2.15753 -0.97659,-3.04015 C 38.91898,11.19958 37.74708,10.51309 36.08688,9.924674 34.42668,9.336261 32.27819,8.845914 29.54375,8.551706 26.90697,8.159428 23.48891,8.06136 19.28958,8.06136 15.18792,8.06136 11.76987,8.159428 9.035432,8.551706 6.300986,8.845914 4.054837,9.336261 2.492298,9.924674 0.8321008,10.51309 -0.3398028,11.19958 -1.023413,12.0822 -1.707024,12.96482 -2,13.94552 -2,15.12235 l 0,189.96035 c 0,4.7073 1.1719037,8.1397 3.61337,10.2973 2.343808,2.0595 5.371227,3.1382 8.88694,3.1382 l 98.34229,0 c 0.9765,0 1.8555,-0.2942 2.5391,-0.8826 0.7813,-0.5884 1.4649,-1.5691 2.0509,-2.942 0.5859,-1.373 0.9765,-3.1383 1.2695,-5.3939 0.2929,-2.2556 0.3906,-5.0015 0.3906,-8.2379 l 0,0 z m 0,0 0,0 z" /><path
             id="path90"
             style="fill:#333399;fill-opacity:1;fill-rule:nonzero;stroke:none"
             d="m 256.1118,52.29065 0,0 c 0,-7.25714 -1.0742,-13.82778 -3.2227,-19.51581 -2.1485,-5.78609 -5.2735,-10.68956 -9.3752,-14.61233 -4.1994,-4.02085 -9.2776,-7.061 -15.4301,-9.120457 -6.0548,-2.059456 -13.0863,-3.13822 -20.9966,-3.13822 -7.5197,0 -14.1606,0.980694 -20.1177,2.844012 -5.8595,1.863325 -10.8401,4.707335 -14.9417,8.532045 -4.1017,3.72663 -7.2269,8.43396 -9.3753,14.12198 -2.2461,5.68803 -3.3204,12.35675 -3.3204,19.90809 l 0,72.27704 c 0,0.5885 0.1954,1.1769 0.5859,1.6673 0.3907,0.4903 0.9766,0.8826 1.9533,1.1768 0.9765,0.2942 2.1484,0.5885 3.711,0.6865 1.5625,0.1961 3.5157,0.2942 5.8595,0.2942 2.3437,0 4.1993,-0.0981 5.7619,-0.2942 1.5624,-0.098 2.7344,-0.3923 3.711,-0.6865 0.8789,-0.2942 1.5625,-0.6865 1.9531,-1.1768 0.3907,-0.4904 0.586,-1.0788 0.586,-1.6673 l 0,-70.21759 c 0,-4.70733 0.5859,-8.72817 1.7578,-12.25867 1.172,-3.43243 2.8321,-6.27644 4.9807,-8.53203 2.1484,-2.2556 4.7852,-4.02085 7.7149,-5.09961 3.0275,-1.17684 6.4455,-1.66719 10.1566,-1.66719 3.8087,0 7.1291,0.49035 10.1565,1.66719 3.0274,1.17682 5.5665,2.94208 7.6174,5.09961 2.0508,2.25559 3.6133,5.00153 4.7852,8.33589 1.1719,3.23629 1.6603,6.96293 1.6603,11.08184 l 0,71.59056 c 0,0.5885 0.1952,1.1769 0.5859,1.6673 0.3906,0.4903 0.9765,0.8826 1.9532,1.1768 0.8789,0.2942 2.1484,0.5885 3.711,0.6865 1.5625,0.1961 3.418,0.2942 5.7618,0.2942 2.3438,0 4.1994,-0.0981 5.7619,-0.2942 1.4649,-0.098 2.6368,-0.3923 3.6134,-0.6865 0.8789,-0.2942 1.5625,-0.6865 1.9531,-1.1768 0.293,-0.4904 0.4883,-1.0788 0.4883,-1.6673 l 0,-71.29635 z m 0,0 0,0 z" /><path
             id="path92"
             style="fill:#333399;fill-opacity:1;fill-rule:nonzero;stroke:none"
             d="m 379.0641,117.0165 0,0 c 0,-1.8634 -0.0977,-3.3344 -0.1953,-4.6093 -0.1954,-1.2749 -0.3907,-2.2556 -0.6837,-3.0402 -0.2929,-0.7845 -0.6835,-1.2749 -1.1719,-1.6671 -0.4882,-0.3924 -0.9765,-0.5885 -1.4649,-0.5885 l -29.6881,0 0,-95.71568 c 0,-0.68649 -0.1954,-1.17683 -0.586,-1.667185 -0.3907,-0.490344 -1.0743,-0.882621 -1.9532,-1.176829 -0.9766,-0.392278 -2.1485,-0.588416 -3.711,-0.784555 -1.5625,-0.196139 -3.5158,-0.294208 -5.8595,-0.294208 -2.3438,0 -4.1994,0.098069 -5.7619,0.294208 -1.5625,0.196139 -2.8321,0.392277 -3.711,0.784555 -0.9766,0.294208 -1.5625,0.686485 -1.9532,1.176829 -0.3907,0.490355 -0.6836,0.980695 -0.6836,1.667185 l 0,95.71568 -29.5906,0 c -0.6836,0 -1.1719,0.1961 -1.5625,0.5885 -0.4884,0.3922 -0.7813,0.8826 -1.0743,1.6671 -0.3906,0.7846 -0.5859,1.7653 -0.6836,3.0402 -0.1953,1.2749 -0.2929,2.7459 -0.2929,4.6093 0,1.7652 0.0976,3.3343 0.2929,4.6092 0.0977,1.2749 0.293,2.3537 0.6836,3.1382 0.293,0.6865 0.5859,1.2749 1.0743,1.6672 0.3906,0.2942 0.8789,0.4903 1.5625,0.4903 l 83.4981,0 c 0.4884,0 0.9767,-0.1961 1.4649,-0.4903 0.4884,-0.3923 0.879,-0.9807 1.1719,-1.6672 0.293,-0.7845 0.4883,-1.8633 0.6837,-3.1382 0.0976,-1.2749 0.1953,-2.844 0.1953,-4.6092 l 0,0 z m 0,0 0,0 z" /><path
             id="path94"
             style="fill:#333399;fill-opacity:1;fill-rule:nonzero;stroke:none"
             d="m 526.138,52.29065 0,0 c 0,-7.25714 -1.0743,-13.82778 -3.2227,-19.51581 -2.1485,-5.78609 -5.2736,-10.68956 -9.3753,-14.61233 -4.1992,-4.02085 -9.3752,-7.061 -15.4301,-9.120457 -6.1524,-2.059456 -13.0861,-3.13822 -21.0942,-3.13822 -7.422,0 -14.0628,0.980694 -20.02,2.844012 -5.9572,1.863325 -10.9378,4.707335 -15.0395,8.532045 -4.1016,3.72663 -7.2267,8.43396 -9.3752,14.12198 -2.1485,5.68803 -3.2227,12.35675 -3.2227,19.90809 l 0,72.27704 c 0,0.5885 0.1953,1.1769 0.586,1.6673 0.293,0.4903 0.9765,0.8826 1.9531,1.1768 0.879,0.2942 2.1485,0.5885 3.711,0.6865 1.4649,0.1961 3.4181,0.2942 5.8596,0.2942 2.2461,0 4.1992,-0.0981 5.7618,-0.2942 1.4649,-0.098 2.7345,-0.3923 3.6133,-0.6865 0.9767,-0.2942 1.5626,-0.6865 1.9533,-1.1768 0.4883,-0.4904 0.6835,-1.0788 0.6835,-1.6673 l 0,-70.21759 c 0,-4.70733 0.4884,-8.72817 1.6603,-12.25867 1.1719,-3.43243 2.8321,-6.27644 4.9805,-8.53203 2.2462,-2.2556 4.7853,-4.02085 7.8128,-5.09961 3.0274,-1.17684 6.4454,-1.66719 10.1564,-1.66719 3.7111,0 7.1292,0.49035 10.1565,1.66719 2.9298,1.17682 5.469,2.94208 7.6174,5.09961 2.0509,2.25559 3.6134,5.00153 4.7853,8.33589 1.0743,3.23629 1.6602,6.96293 1.6602,11.08184 l 0,71.59056 c 0,0.5885 0.1953,1.1769 0.586,1.6673 0.2929,0.4903 0.9765,0.8826 1.8554,1.1768 0.9766,0.2942 2.1486,0.5885 3.7111,0.6865 1.5625,0.1961 3.5157,0.2942 5.8595,0.2942 2.3438,0 4.1993,-0.0981 5.7619,-0.2942 1.4649,-0.098 2.6367,-0.3923 3.6133,-0.6865 0.879,-0.2942 1.4649,-0.6865 1.8556,-1.1768 0.3906,-0.4904 0.5859,-1.0788 0.5859,-1.6673 l 0,-71.29635 z m 0,0 0,0 z" /><path
             id="path96"
             style="fill:#333399;fill-opacity:1;fill-rule:nonzero;stroke:none"
             d="m 658.1725,11.19958 0,0 c 0,-0.68649 -0.1953,-1.274906 -0.3907,-1.76525 -0.2929,-0.392277 -0.7812,-0.784555 -1.7578,-1.078763 -0.8789,-0.294207 -2.2461,-0.588416 -4.004,-0.686486 -1.7579,-0.098069 -4.1993,-0.196138 -7.2267,-0.196138 -2.5391,0 -4.59,0.098069 -6.1526,0.196138 -1.5624,0.09807 -2.7343,0.392279 -3.6133,0.686486 -0.8789,0.392278 -1.4649,0.784556 -1.8555,1.274903 -0.3906,0.49034 -0.6836,1.17683 -0.9766,1.86332 l -10.5471,26.5768 c -1.2696,3.04015 -2.5391,5.68803 -3.8087,8.04168 -1.1719,2.2556 -2.5391,4.21699 -4.004,5.7861 -1.5626,1.56911 -3.2228,2.74594 -5.1759,3.5305 -1.9532,0.78455 -4.297,1.17683 -6.8361,1.17683 l -7.5198,0 0,-45.20998 c 0,-0.68649 -0.1953,-1.17683 -0.5859,-1.667185 -0.3906,-0.490344 -1.0743,-0.882621 -1.9532,-1.176829 -0.8789,-0.392278 -2.1484,-0.588416 -3.6133,-0.784555 -1.5626,-0.196139 -3.5157,-0.294208 -5.8595,-0.294208 -2.3439,0 -4.297,0.098069 -5.8596,0.294208 -1.5625,0.196139 -2.8321,0.392277 -3.711,0.784555 -0.8789,0.294208 -1.5626,0.686485 -1.9531,1.176829 -0.293,0.490355 -0.4884,0.980695 -0.4884,1.667185 l 0,107.87628 c 0,2.6479 0.6836,4.6093 2.0508,5.7862 1.3673,1.2749 3.0275,1.8632 5.0783,1.8632 l 30.6648,0 c 3.1251,0 5.6642,-0.0981 7.715,-0.1961 1.9533,-0.0981 3.8087,-0.2942 5.4689,-0.4904 4.7853,-0.6865 9.0823,-1.8632 12.891,-3.5305 3.8087,-1.569 7.0314,-3.7265 9.6682,-6.3744 2.6368,-2.746 4.6876,-5.8842 6.0549,-9.5127 1.4648,-3.6287 2.1484,-7.84562 2.1484,-12.55295 0,-3.92278 -0.4883,-7.55135 -1.5625,-10.88571 -0.9766,-3.23629 -2.4415,-6.17837 -4.3946,-8.72818 -1.9532,-2.5498 -4.3947,-4.80539 -7.2268,-6.76678 -2.8321,-1.86332 -6.1525,-3.33436 -9.7659,-4.51119 1.7579,-0.88262 3.4181,-1.96139 4.9806,-3.13822 1.5626,-1.27491 3.0275,-2.74595 4.3947,-4.5112 1.3671,-1.66718 2.6367,-3.72663 3.9064,-5.88415 1.1719,-2.25561 2.3438,-4.80541 3.5157,-7.64942 l 9.9611,-23.43858 c 0.9766,-2.25559 1.5626,-4.02084 1.8555,-5.0996 0.293,-1.07877 0.4883,-1.86332 0.4883,-2.45174 l 0,0 z m -31.0555,80.61303 0,0 c 0,3.92276 -0.8789,7.25713 -2.6368,9.90499 -1.7578,2.746 -4.6875,4.6093 -8.6916,5.688 -1.2695,0.2943 -2.6368,0.5884 -4.1992,0.7846 -1.5626,0.1961 -3.7111,0.1961 -6.4455,0.1961 l -10.8402,0 0,-33.63776 12.305,0 c 3.4181,0 6.4455,0.39227 8.9846,1.17683 2.5391,0.88262 4.6877,2.05946 6.3478,3.53049 1.7579,1.47104 3.0275,3.23629 3.9064,5.39382 0.879,2.05946 1.2695,4.41312 1.2695,6.96293 l 0,0 z m 0,0 0,0 z" /><path
             id="path98"
             style="fill:#333399;fill-opacity:1;fill-rule:nonzero;stroke:none"
             d="m 784.0546,17.47602 0,0 c 0,-1.76525 0,-3.23629 -0.1954,-4.41312 -0.0976,-1.17684 -0.3906,-2.15753 -0.6836,-2.94209 C 782.8826,9.43433 782.492,8.845914 782.0037,8.551706 781.613,8.257498 781.1248,8.06136 780.5388,8.06136 l -59.4741,0 c -2.0509,0 -3.711,0.588415 -5.0782,1.765249 -1.3673,1.176831 -2.1485,3.138211 -2.1485,5.884161 l 0,103.56123 c 0,2.6479 0.7812,4.6093 2.1485,5.7862 1.3672,1.2749 3.0273,1.8632 5.0782,1.8632 l 59.0835,0 c 0.5859,0 1.0742,-0.1961 1.4648,-0.4903 0.4883,-0.2942 0.7813,-0.8827 1.0743,-1.5691 0.3906,-0.7846 0.5859,-1.7652 0.6836,-2.9421 0.1953,-1.2749 0.293,-2.7459 0.293,-4.6093 0,-1.6671 -0.0977,-3.1382 -0.293,-4.315 -0.0977,-1.1768 -0.293,-2.1575 -0.6836,-2.9421 -0.293,-0.6865 -0.586,-1.2749 -1.0743,-1.5691 -0.3906,-0.3923 -0.8789,-0.4904 -1.4648,-0.4904 l -42.2862,0 0,-29.02848 35.8407,0 c 0.4883,0 0.9766,-0.19614 1.4649,-0.49035 0.4883,-0.39228 0.8789,-0.88262 1.1719,-1.5691 0.2929,-0.6865 0.4883,-1.66719 0.6836,-2.84402 0.0977,-1.17683 0.1953,-2.64787 0.1953,-4.41312 0,-1.76525 -0.0976,-3.23629 -0.1953,-4.41313 -0.1953,-1.17683 -0.3907,-2.05945 -0.6836,-2.74593 -0.293,-0.6865 -0.6836,-1.27491 -1.1719,-1.56912 -0.4883,-0.2942 -0.9766,-0.39228 -1.4649,-0.39228 l -35.8407,0 0,-33.53972 42.6768,0 c 0.586,0 1.0742,-0.19614 1.4649,-0.49035 0.4883,-0.39227 0.8789,-0.88262 1.1719,-1.66717 0.293,-0.6865 0.586,-1.66719 0.6836,-2.84402 0.1954,-1.17683 0.1954,-2.74594 0.1954,-4.51119 l 0,0 z m 0,0 0,0 z" /></g></g></g><g
       id="g100"><g
         clip-path="url(#clipPath104)"
         id="g102"><g
           clip-path="url(#clipPath110)"
           id="g108"><path
             id="path114"
             style="fill:#999999;fill-opacity:1;fill-rule:nonzero;stroke:none"
             d="m 215.6812,218.8125 0,0 c 0,-6.1784 -0.879,-11.5722 -2.4416,-15.9854 -1.6601,-4.413 -4.0039,-8.0417 -7.0313,-10.8857 -3.0275,-2.7459 -6.7385,-4.8053 -11.0354,-6.1783 -4.3947,-1.2749 -9.5706,-1.9614 -15.5278,-1.9614 l -16.2114,0 c -1.1719,0 -2.1484,0.3922 -2.9297,1.0787 -0.7813,0.6865 -1.1719,1.7653 -1.1719,3.3344 l 0,59.2339 c 0,1.5692 0.3906,2.6479 1.1719,3.3343 0.7813,0.6865 1.7578,1.0788 2.9297,1.0788 l 17.3833,0 c 6.0548,0 11.1331,-0.7845 15.3324,-2.1575 4.2969,-1.4711 7.8127,-3.5305 10.6449,-6.2765 2.9296,-2.844 5.0782,-6.2764 6.6407,-10.3953 1.4649,-4.0208 2.2462,-8.8262 2.2462,-14.22 l 0,0 z m -14.2582,-0.4904 0,0 c 0,3.2363 -0.3907,6.2764 -1.1719,9.0223 -0.6836,2.7461 -1.9532,5.1977 -3.6134,7.1591 -1.6602,2.0595 -3.8087,3.6286 -6.3478,4.8054 -2.6367,1.0788 -6.0549,1.6673 -10.2542,1.6673 l -6.9337,0 0,-46.1908 7.129,0 c 3.8087,0 6.9338,0.4904 9.5706,1.4711 2.5391,0.9807 4.6876,2.4517 6.4455,4.4131 1.7578,1.9614 3.0274,4.4131 3.9063,7.3552 0.7813,2.9421 1.2696,6.3745 1.2696,10.2973 l 0,0 z m 0,0 0,0 z" /><path
             id="path116"
             style="fill:#999999;fill-opacity:1;fill-rule:nonzero;stroke:none"
             d="m 269.2958,210.6727 0,0 c 0,-1.5692 -0.3907,-2.7459 -1.0743,-3.5306 -0.6836,-0.7845 -1.7578,-1.1767 -2.9297,-1.1767 l -28.5164,0 c 0,-1.9614 0.293,-3.8248 0.7812,-5.3938 0.4884,-1.6673 1.172,-3.0402 2.2463,-4.2171 0.9765,-1.0787 2.3438,-1.9613 4.004,-2.5497 1.5624,-0.5884 3.5157,-0.8827 5.7618,-0.8827 2.3438,0 4.3947,0.0981 6.0548,0.4904 1.7579,0.2942 3.3205,0.6865 4.59,1.0788 1.2696,0.3922 2.3438,0.7845 3.125,1.0787 0.879,0.3923 1.5626,0.4904 2.0509,0.4904 0.2929,0 0.5859,0 0.7813,-0.0981 0.1953,-0.1961 0.3906,-0.3923 0.586,-0.6865 0.0975,-0.2942 0.1952,-0.7845 0.2929,-1.373 0,-0.5884 0,-1.2749 0,-2.1575 0,-0.7846 0,-1.4711 0,-1.9614 -0.0977,-0.5884 -0.0977,-0.9807 -0.1954,-1.3729 0,-0.3923 -0.1952,-0.7847 -0.2929,-0.9808 -0.0976,-0.2941 -0.293,-0.5884 -0.586,-0.7845 -0.1953,-0.2942 -0.7812,-0.5884 -1.8554,-0.9807 -0.9767,-0.4903 -2.2462,-0.8827 -3.8087,-1.2749 -1.5626,-0.3923 -3.4181,-0.6865 -5.4689,-0.9807 -1.9532,-0.2942 -4.1017,-0.4903 -6.4455,-0.4903 -4.1993,0 -7.8127,0.4903 -10.9377,1.5691 -3.1251,1.0787 -5.7619,2.6479 -7.8127,4.8054 -2.1486,2.1575 -3.7111,4.8054 -4.6877,8.0417 -1.0742,3.2363 -1.5625,7.0609 -1.5625,11.4741 0,4.2169 0.5859,7.9436 1.6602,11.278 1.0742,3.3343 2.6367,6.1783 4.6876,8.532 2.0508,2.2556 4.59,4.1189 7.5197,5.2957 2.9297,1.2749 6.2502,1.8634 9.9612,1.8634 3.9064,0 7.2267,-0.5885 10.0588,-1.7653 2.7345,-1.1768 5.0783,-2.746 6.8362,-4.8054 1.7578,-2.0595 3.0273,-4.4131 3.9063,-7.2572 0.8789,-2.844 1.2696,-5.8841 1.2696,-9.1204 l 0,-2.1575 z m -12.7933,3.8247 0,0 c 0.0977,3.7266 -0.586,6.5706 -2.2462,8.7281 -1.5625,2.1576 -4.004,3.2363 -7.3244,3.2363 -1.6602,0 -3.125,-0.3922 -4.3946,-0.9806 -1.2695,-0.6865 -2.2462,-1.471 -3.0274,-2.5498 -0.8789,-1.0788 -1.4649,-2.3537 -1.9533,-3.8248 -0.3905,-1.471 -0.6835,-2.942 -0.7812,-4.6092 l 19.7271,0 z m 0,0 0,0 z" /><path
             id="path118"
             style="fill:#999999;fill-opacity:1;fill-rule:nonzero;stroke:none"
             d="m 312.9491,199.1986 0,0 c 0,-2.7459 -0.4882,-5.0996 -1.4648,-7.061 -0.9766,-2.0595 -2.4415,-3.7266 -4.1993,-5.0996 -1.8556,-1.373 -4.004,-2.4518 -6.4455,-3.1382 -2.5391,-0.6865 -5.1759,-0.9807 -8.1057,-0.9807 -1.7578,0 -3.418,0.0981 -4.9806,0.3922 -1.5625,0.2943 -3.0273,0.5885 -4.2969,0.9808 -1.2697,0.3922 -2.2462,0.7845 -3.1251,1.2748 -0.7813,0.3923 -1.4649,0.7846 -1.8556,1.1768 -0.3905,0.2943 -0.6835,0.8826 -0.8789,1.6673 -0.1953,0.7845 -0.293,1.9614 -0.293,3.5304 0,0.9807 0,1.8634 0.0977,2.4518 0.0977,0.5884 0.1953,1.0787 0.293,1.471 0.1953,0.3923 0.3907,0.5885 0.586,0.7846 0.1952,0.098 0.3906,0.098 0.7812,0.098 0.3907,0 0.9766,-0.1961 1.6602,-0.5884 0.7813,-0.4904 1.6602,-0.9806 2.8321,-1.471 1.0743,-0.4904 2.4415,-0.9807 3.9063,-1.471 1.4649,-0.4904 3.1251,-0.6865 5.0783,-0.6865 1.1719,0 2.2462,0.098 3.1251,0.3922 0.8789,0.1962 1.7579,0.5884 2.4414,0.9807 0.6836,0.4904 1.1719,1.0788 1.5626,1.7652 0.293,0.6865 0.4882,1.5692 0.4882,2.4518 0,1.0788 -0.2929,1.9614 -0.9765,2.6479 -0.6836,0.7845 -1.4649,1.471 -2.5391,1.9614 -1.0743,0.5884 -2.3438,1.1768 -3.6134,1.6671 -1.3672,0.4904 -2.7345,0.9808 -4.1993,1.5692 -1.3673,0.5884 -2.7345,1.2749 -4.1016,2.0594 -1.3673,0.7846 -2.5393,1.6672 -3.6135,2.844 -1.0742,1.0788 -1.9531,2.4518 -2.5391,4.0209 -0.6836,1.5691 -0.9766,3.5305 -0.9766,5.688 0,2.2556 0.3907,4.3151 1.2696,6.1784 0.8789,1.8633 2.1484,3.4324 3.8087,4.8054 1.6602,1.373 3.6133,2.3536 5.9571,3.1382 2.3439,0.6864 4.9807,1.0788 7.9104,1.0788 1.4649,0 2.9298,-0.0981 4.297,-0.2942 1.3672,-0.2943 2.6368,-0.4904 3.711,-0.7846 1.1719,-0.3923 2.1485,-0.6865 2.8321,-1.0788 0.7813,-0.3923 1.3673,-0.6864 1.6602,-0.8826 0.3906,-0.2942 0.586,-0.5884 0.7813,-0.8826 0.0977,-0.1962 0.1953,-0.4904 0.293,-0.8826 0.0977,-0.3924 0.0977,-0.8826 0.1952,-1.373 0,-0.5884 0,-1.2749 0,-2.0595 0,-0.8826 0,-1.6672 0,-2.2556 -0.0975,-0.5883 -0.1952,-1.0787 -0.2929,-1.471 -0.0976,-0.2942 -0.293,-0.5885 -0.4883,-0.6865 -0.1953,-0.0981 -0.4883,-0.1961 -0.7812,-0.1961 -0.293,0 -0.7814,0.1961 -1.4649,0.5884 -0.586,0.2942 -1.4649,0.7845 -2.4415,1.1769 -0.9765,0.3922 -2.1485,0.7845 -3.4181,1.1767 -1.3671,0.3923 -2.832,0.5884 -4.4922,0.5884 -1.2696,0 -2.2462,-0.1961 -3.1252,-0.3922 -0.8789,-0.2942 -1.5624,-0.5884 -2.1484,-1.0788 -0.5859,-0.4904 -0.9766,-0.9806 -1.2696,-1.5691 -0.293,-0.6864 -0.3907,-1.2749 -0.3907,-1.9614 0,-1.0788 0.293,-2.0594 0.9767,-2.7459 0.6836,-0.7846 1.5625,-1.373 2.6368,-1.9614 1.0742,-0.5884 2.2461,-1.0788 3.711,-1.5692 1.3672,-0.4902 2.7345,-1.0787 4.1993,-1.569 1.3672,-0.5885 2.7344,-1.2749 4.1017,-2.0595 1.4648,-0.7845 2.6367,-1.7653 3.711,-2.844 1.0742,-1.0788 1.9532,-2.4517 2.6368,-4.0208 0.6836,-1.5692 0.9765,-3.4324 0.9765,-5.4919 l 0,0 z m 0,0 0,0 z" /><path
             id="path120"
             style="fill:#999999;fill-opacity:1;fill-rule:nonzero;stroke:none"
             d="m 336.0942,185.9592 0,0 c 0,-0.3923 -0.0976,-0.6865 -0.2929,-0.9806 -0.293,-0.2943 -0.586,-0.4904 -1.0743,-0.6865 -0.5859,-0.0982 -1.1719,-0.2943 -2.0508,-0.3923 -0.8789,0 -1.8555,-0.0981 -3.2228,-0.0981 -1.2695,0 -2.3438,0.0981 -3.125,0.0981 -0.8789,0.098 -1.5625,0.2941 -2.0508,0.3923 -0.4883,0.1961 -0.879,0.3922 -1.0743,0.6865 -0.1952,0.2941 -0.2929,0.5883 -0.2929,0.9806 l 0,46.681 c 0,0.3923 0.0977,0.6865 0.2929,0.9807 0.1953,0.1962 0.586,0.4903 1.0743,0.6865 0.4883,0.1961 1.1719,0.2942 2.0508,0.3923 0.7812,0.0981 1.8555,0.1962 3.125,0.1962 1.3673,0 2.3439,-0.0981 3.2228,-0.1962 0.8789,-0.0981 1.4649,-0.1962 2.0508,-0.3923 0.4883,-0.1962 0.7813,-0.4903 1.0743,-0.6865 0.1953,-0.2942 0.2929,-0.5884 0.2929,-0.9807 l 0,-46.681 z m 0.9767,62.6663 0,0 c 0,-2.6478 -0.586,-4.5112 -1.6602,-5.4918 -1.0743,-1.0788 -3.0275,-1.5691 -5.9573,-1.5691 -3.0273,0 -4.9805,0.4903 -6.0548,1.471 -0.9765,0.9807 -1.5625,2.7459 -1.4649,5.2958 -0.0976,2.7459 0.4884,4.5111 1.5626,5.5899 1.0742,0.9806 3.0274,1.471 6.0548,1.471 2.9298,0 4.883,-0.3923 5.9572,-1.471 1.0743,-0.9808 1.5626,-2.7459 1.5626,-5.2958 l 0,0 z m 0,0 0,0 z" /><path
             id="path122"
             style="fill:#999999;fill-opacity:1;fill-rule:nonzero;stroke:none"
             d="m 391.6621,229.502 0,0 c 0,-1.6672 -0.1954,-2.9421 -0.586,-3.7266 -0.3906,-0.7846 -0.7813,-1.1769 -1.3673,-1.1769 l -5.4688,0 c 0.7813,-0.8826 1.2696,-1.8632 1.6602,-2.844 0.293,-1.0787 0.4883,-2.2555 0.4883,-3.3343 0,-2.746 -0.4883,-5.1978 -1.3672,-7.3553 -0.9766,-2.0594 -2.2462,-3.9228 -3.9064,-5.2957 -1.7579,-1.471 -3.8087,-2.5497 -6.1525,-3.3344 -2.4414,-0.7845 -5.0782,-1.1767 -8.008,-1.1767 -1.4649,0 -2.9298,0.1961 -4.297,0.5884 -1.3672,0.3922 -2.4415,0.7845 -3.125,1.2748 -0.3907,-0.3922 -0.7813,-0.9807 -1.0743,-1.5691 -0.3906,-0.6865 -0.586,-1.3729 -0.586,-2.1575 0,-0.9806 0.4884,-1.8633 1.3673,-2.4518 0.8789,-0.6864 2.1484,-1.0787 3.711,-1.0787 l 11.426,-0.4903 c 2.6368,-0.0981 4.9806,-0.3923 7.0315,-1.0788 2.1485,-0.6865 3.9064,-1.5691 5.2736,-2.746 1.4649,-1.1767 2.5391,-2.5497 3.2227,-4.2169 0.7813,-1.6672 1.1719,-3.5305 1.1719,-5.59 0,-2.3537 -0.4883,-4.5112 -1.5626,-6.5706 -0.9766,-2.0595 -2.5391,-3.8248 -4.4922,-5.2958 -2.0508,-1.5691 -4.59,-2.7459 -7.6174,-3.6285 -3.1251,-0.8827 -6.6408,-1.2749 -10.7425,-1.2749 -4.004,0 -7.422,0.2941 -10.1565,0.8826 -2.832,0.6865 -5.1759,1.5691 -6.9337,2.6478 -1.8556,1.1769 -3.1251,2.4518 -3.9064,4.0209 -0.879,1.5691 -1.2695,3.3344 -1.2695,5.0996 0,1.1768 0.1953,2.2556 0.4882,3.3344 0.293,1.0787 0.6837,2.0595 1.2696,3.0401 0.586,0.9808 1.2695,1.8633 2.1485,2.7459 0.7813,0.8826 1.7578,1.7653 2.8321,2.5499 -1.4648,0.7845 -2.6367,1.8633 -3.4181,3.2363 -0.8789,1.3729 -1.2695,2.942 -1.2695,4.6093 0,2.0594 0.4883,3.9226 1.4649,5.5899 0.8789,1.6671 2.1484,3.2363 3.6133,4.6093 -1.2695,1.2749 -2.2461,2.7459 -2.9297,4.413 -0.7813,1.7653 -1.0743,3.8248 -1.0743,6.3746 0,2.7459 0.4883,5.1976 1.3672,7.3552 0.9767,2.1575 2.3438,4.0208 4.004,5.4919 1.7579,1.471 3.8087,2.6478 6.1525,3.4324 2.4415,0.7845 4.9806,1.1768 7.9104,1.1768 1.4649,0 2.8321,-0.098 4.1993,-0.2942 1.3673,-0.1961 2.5392,-0.3922 3.7111,-0.6865 l 14.844,0 c 0.586,0 1.0743,-0.3922 1.4649,-1.1769 0.293,-0.7845 0.4884,-2.0594 0.4884,-3.9227 l 0,0 z m -16.895,-11.0818 0,0 c 0,2.5498 -0.6836,4.5112 -2.0508,5.8841 -1.4649,1.373 -3.4181,2.1575 -5.9572,2.1575 -1.2696,0 -2.4415,-0.2941 -3.4181,-0.6864 -0.9765,-0.4904 -1.7579,-1.0787 -2.4414,-1.7652 -0.586,-0.7847 -1.0742,-1.6673 -1.3672,-2.6479 -0.3907,-0.9808 -0.4884,-2.0595 -0.4884,-3.1383 0,-2.3537 0.6837,-4.315 2.0509,-5.688 1.3672,-1.373 3.3204,-2.0595 5.8595,-2.0595 1.2696,0 2.4415,0.1962 3.418,0.6865 0.9767,0.3923 1.7579,0.9807 2.4416,1.6672 0.6835,0.7846 1.1719,1.5691 1.4648,2.5498 0.293,0.9807 0.4883,1.9614 0.4883,3.0402 l 0,0 z m 3.1251,-37.3644 0,0 c 0,1.569 -0.6836,2.7459 -1.9532,3.6285 -1.1719,0.7845 -2.9298,1.2749 -5.1759,1.373 l -9.3753,0.1961 c -0.8789,-0.6865 -1.5624,-1.2748 -2.1484,-1.8633 -0.5859,-0.6865 -0.9766,-1.2749 -1.2696,-1.7653 -0.3907,-0.5884 -0.5859,-1.0788 -0.6836,-1.6671 -0.0976,-0.4904 -0.1953,-1.0788 -0.1953,-1.5692 0,-1.7652 0.8789,-3.1381 2.6368,-4.0208 1.8554,-0.8826 4.2969,-1.373 7.5197,-1.373 1.9531,0 3.6133,0.1962 4.9806,0.5884 1.3672,0.3924 2.5391,0.9808 3.3203,1.5691 0.879,0.6865 1.4649,1.4711 1.7579,2.2557 0.3907,0.8826 0.586,1.6671 0.586,2.6479 l 0,0 z m 0,0 0,0 z" /><path
             id="path124"
             style="fill:#999999;fill-opacity:1;fill-rule:nonzero;stroke:none"
             d="m 445.0813,185.9592 0,0 c 0,-0.3923 -0.0976,-0.6865 -0.3906,-0.9806 -0.1954,-0.2943 -0.4883,-0.4904 -0.9766,-0.6865 -0.4883,-0.0982 -1.1719,-0.2943 -2.0508,-0.3923 -0.879,0 -1.9532,-0.0981 -3.1251,-0.0981 -1.3672,0 -2.4415,0.0981 -3.2227,0.0981 -0.879,0.098 -1.5626,0.2941 -2.0509,0.3923 -0.4882,0.1961 -0.8789,0.3922 -1.0742,0.6865 -0.1953,0.2941 -0.293,0.5883 -0.293,0.9806 l 0,26.6749 c 0,2.2556 -0.1953,4.1189 -0.4882,5.3938 -0.3907,1.2749 -0.7814,2.3536 -1.4649,3.3344 -0.586,0.8826 -1.4649,1.6671 -2.4415,2.1575 -0.9767,0.4904 -2.1486,0.7845 -3.4181,0.7845 -1.7578,0 -3.418,-0.6864 -5.0783,-1.8633 -1.7578,-1.2749 -3.5157,-3.0401 -5.3711,-5.3938 l 0,-31.088 c 0,-0.3923 -0.0977,-0.6865 -0.293,-0.9806 -0.293,-0.2943 -0.586,-0.4904 -1.0742,-0.6865 -0.586,-0.0982 -1.1719,-0.2943 -2.0509,-0.3923 -0.8789,0 -1.8555,-0.0981 -3.2227,-0.0981 -1.2696,0 -2.3438,0.0981 -3.1251,0.0981 -0.8789,0.098 -1.5626,0.2941 -2.0508,0.3923 -0.4884,0.1961 -0.8789,0.3922 -1.0743,0.6865 -0.1953,0.2941 -0.293,0.5883 -0.293,0.9806 l 0,46.7791 c 0,0.3923 0.0977,0.6864 0.1954,0.9807 0.1953,0.1961 0.4882,0.4904 0.9765,0.5884 0.4884,0.1961 1.0743,0.2942 1.7579,0.3923 0.6836,0.0981 1.6602,0.1962 2.7344,0.1962 1.0743,0 2.0509,-0.0981 2.7344,-0.1962 0.7814,-0.0981 1.2696,-0.1962 1.6603,-0.3923 0.4883,-0.098 0.7812,-0.3923 0.8789,-0.5884 0.1953,-0.2943 0.293,-0.5884 0.293,-0.9807 l 0,-5.3939 c 2.5391,2.8441 5.1759,4.9036 7.9103,6.2765 2.6368,1.4711 5.4689,2.1576 8.301,2.1576 3.2228,0 5.8595,-0.5885 8.1057,-1.5691 2.1484,-1.0788 3.9063,-2.5499 5.2735,-4.3151 1.3673,-1.7652 2.2462,-3.9228 2.9298,-6.2764 0.5859,-2.4518 0.8789,-5.3939 0.8789,-8.7282 l 0,-28.9305 z m 0,0 0,0 z" /><path
             id="path126"
             style="fill:#999999;fill-opacity:1;fill-rule:nonzero;stroke:none"
             d="m 521.0597,246.468 0,0 c 0,-1.0788 0,-1.9614 -0.0976,-2.6479 -0.0976,-0.7845 -0.2929,-1.3729 -0.4883,-1.7652 -0.1953,-0.3923 -0.3906,-0.6865 -0.586,-0.9807 -0.2929,-0.1961 -0.5859,-0.2942 -0.8789,-0.2942 l -22.1685,0 0,-18.2409 20.8013,0 c 0.293,0 0.586,-0.0981 0.8789,-0.2942 0.1953,-0.1961 0.3907,-0.4904 0.6837,-0.8826 0.0976,-0.3923 0.293,-0.9808 0.3906,-1.6672 0.0977,-0.6865 0.0977,-1.5691 0.0977,-2.6479 0,-1.0787 0,-1.9614 -0.0977,-2.6479 -0.0976,-0.6865 -0.293,-1.2749 -0.3906,-1.6671 -0.293,-0.4904 -0.4884,-0.7846 -0.6837,-0.9808 -0.2929,-0.1961 -0.5859,-0.2941 -0.8789,-0.2941 l -20.8013,0 0,-25.302 c 0,-0.3922 -0.0976,-0.7845 -0.2929,-1.0787 -0.1954,-0.1962 -0.586,-0.4904 -1.0743,-0.6865 -0.586,-0.1962 -1.2696,-0.2942 -2.1485,-0.3923 -0.8789,-0.098 -1.9531,-0.1961 -3.3204,-0.1961 -1.3672,0 -2.4414,0.0981 -3.3204,0.1961 -0.9766,0.0981 -1.6601,0.1961 -2.1485,0.3923 -0.5859,0.1961 -0.8789,0.4903 -1.1719,0.6865 -0.1953,0.2942 -0.293,0.6865 -0.293,1.0787 l 0,61.5876 c 0,1.5691 0.3907,2.6479 1.1719,3.3344 0.7814,0.6865 1.7579,0.9807 2.9298,0.9807 l 31.8367,0 c 0.293,0 0.586,-0.0981 0.8789,-0.2942 0.1954,-0.0981 0.3907,-0.4904 0.586,-0.8827 0.1954,-0.4903 0.3907,-1.0787 0.4883,-1.7652 0.0976,-0.7845 0.0976,-1.6672 0.0976,-2.6479 l 0,0 z m 0,0 0,0 z" /><path
             id="path128"
             style="fill:#999999;fill-opacity:1;fill-rule:nonzero;stroke:none"
             d="m 578.776,209.79 0,0 c 0,-4.0208 -0.5859,-7.6494 -1.6601,-10.8857 -0.9767,-3.3343 -2.6368,-6.1783 -4.6877,-8.5319 -2.1485,-2.3537 -4.8829,-4.2171 -8.0079,-5.492 -3.2228,-1.2748 -7.0315,-1.9613 -11.3285,-1.9613 -4.1016,0 -7.7151,0.5883 -10.8401,1.7652 -3.0274,1.0788 -5.5666,2.844 -7.6174,5.0016 -2.0509,2.2555 -3.5157,4.9034 -4.4923,8.1397 -0.9766,3.2362 -1.4648,6.8649 -1.4648,11.0818 0,3.9228 0.4882,7.5514 1.5625,10.8857 1.0742,3.3344 2.6367,6.1784 4.7853,8.5321 2.1485,2.3536 4.7852,4.2169 8.0079,5.4919 3.2228,1.2749 6.9338,1.9614 11.2308,1.9614 4.1993,0 7.8127,-0.5885 10.9378,-1.7653 3.0274,-1.0787 5.5666,-2.746 7.6174,-5.0015 1.9531,-2.1575 3.5156,-4.9035 4.4922,-8.1398 0.9767,-3.2363 1.4649,-6.8648 1.4649,-11.0819 l 0,0 z m -13.5745,-0.4903 0,0 c 0,2.2556 -0.1953,4.4131 -0.586,6.3745 -0.3906,1.9614 -0.9766,3.6286 -1.8555,5.0997 -0.8789,1.3729 -2.0509,2.5497 -3.5157,3.3343 -1.4649,0.7846 -3.2227,1.1768 -5.4689,1.1768 -1.9532,0 -3.6133,-0.2942 -5.0782,-1.0787 -1.4649,-0.6865 -2.7345,-1.7653 -3.6134,-3.1383 -0.9766,-1.3729 -1.6602,-3.0401 -2.1485,-5.0015 -0.4883,-1.9614 -0.6836,-4.1189 -0.6836,-6.5706 0,-2.3538 0.1953,-4.5113 0.5859,-6.4727 0.3907,-1.8632 0.9767,-3.6285 1.8556,-5.0015 0.7812,-1.471 1.9531,-2.5498 3.418,-3.3343 1.4649,-0.7846 3.3204,-1.1769 5.4689,-1.1769 1.9531,0 3.711,0.2943 5.1759,1.0788 1.4649,0.6865 2.6368,1.7652 3.6134,3.1382 0.9765,1.2749 1.6602,2.9421 2.1484,4.9035 0.3907,1.9614 0.6837,4.1189 0.6837,6.6687 l 0,0 z m 0,0 0,0 z" /><path
             id="path130"
             style="fill:#999999;fill-opacity:1;fill-rule:nonzero;stroke:none"
             d="m 619.2068,228.4232 0,0 c 0,-1.2749 0,-2.3536 -0.0977,-3.1382 -0.0977,-0.7846 -0.1953,-1.373 -0.293,-1.8633 -0.1953,-0.4903 -0.3907,-0.7846 -0.586,-0.9807 -0.1952,-0.0981 -0.4882,-0.1961 -0.8789,-0.1961 -0.293,0 -0.5859,0 -0.8789,0.1961 -0.3907,0.0981 -0.7813,0.1961 -1.2696,0.3923 -0.3906,0.0981 -0.879,0.1961 -1.3672,0.3922 -0.586,0.0981 -1.1719,0.0981 -1.7579,0.0981 -0.6836,0 -1.4649,-0.0981 -2.1484,-0.3922 -0.7814,-0.2943 -1.5626,-0.7846 -2.3438,-1.373 -0.7814,-0.6865 -1.5626,-1.471 -2.4415,-2.5498 -0.879,-1.0788 -1.7579,-2.3536 -2.7345,-3.9228 l 0,-29.1266 c 0,-0.3923 -0.0976,-0.6865 -0.2929,-0.9806 -0.293,-0.2943 -0.586,-0.4904 -1.0743,-0.6865 -0.586,-0.0982 -1.1719,-0.2943 -2.0509,-0.3923 -0.8789,0 -1.9531,-0.0981 -3.2227,-0.0981 -1.2695,0 -2.3438,0.0981 -3.1251,0.0981 -0.8789,0.098 -1.5624,0.2941 -2.0508,0.3923 -0.4883,0.1961 -0.8789,0.3922 -1.0742,0.6865 -0.1953,0.2941 -0.293,0.5883 -0.293,0.9806 l 0,46.7791 c 0,0.3923 0,0.6864 0.1953,0.9807 0.1954,0.1961 0.4884,0.4904 0.9766,0.5884 0.4883,0.1961 1.0742,0.2942 1.7579,0.3923 0.6836,0.0981 1.6602,0.1962 2.7344,0.1962 1.0743,0 2.0508,-0.0981 2.7345,-0.1962 0.7812,-0.0981 1.2696,-0.1962 1.6601,-0.3923 0.4884,-0.098 0.6837,-0.3923 0.879,-0.5884 0.1953,-0.2943 0.2929,-0.5884 0.2929,-0.9807 l 0,-5.7861 c 1.1719,1.7652 2.3438,3.1383 3.4181,4.315 1.0743,1.1769 2.1485,2.0595 3.1251,2.746 0.9765,0.5884 1.9532,1.0788 2.9298,1.3729 0.9765,0.1962 1.9531,0.3924 2.9297,0.3924 0.4883,0 0.9766,0 1.4648,-0.0981 0.4884,0 1.0744,-0.0981 1.6603,-0.2943 0.4883,-0.098 0.9765,-0.1961 1.4649,-0.3922 0.3906,-0.1961 0.6835,-0.2942 0.8789,-0.4904 0.1953,-0.1961 0.293,-0.3923 0.3906,-0.5884 0.0977,-0.1961 0.1954,-0.4904 0.293,-0.8826 0,-0.3923 0.0977,-0.8826 0.0977,-1.6672 0.0977,-0.6865 0.0977,-1.6671 0.0977,-2.9421 l 0,0 z m 0,0 0,0 z" /></g></g></g><g
       id="g132"><g
         clip-path="url(#clipPath136)"
         id="g134"><g
           transform="translate(809,81)"
           id="g140"><text
             id="text142"
             style="font-variant:normal;font-weight:bold;font-size:62px;font-family:Arial;-inkscape-font-specification:Arial-BoldMT;writing-mode:lr-tb;fill:#000000;fill-opacity:1;fill-rule:nonzero;stroke:none"
             transform="scale(1,-1)"><tspan
               id="tspan144"
               y="0"
               x="0 44.776402 82.646004 130.8696 148.0932 189.4472 213.57761 230.80119 268.67081 292.80121 310.02481 330.67081 365.15521 382.37881 423.73279 447.86319 485.73279 523.60242 547.73279 582.21722 637.3476 692.47803 726.9624 744.18597 778.67041 813.15479 847.63922 882.1236">DFG Priority Programme 1593 </tspan></text>
</g><g
           transform="translate(809,14)"
           id="g146"><text
             id="text148"
             style="font-variant:normal;font-weight:normal;font-size:62px;font-family:Arial;-inkscape-font-specification:ArialMT;writing-mode:lr-tb;fill:#000000;fill-opacity:1;fill-rule:nonzero;stroke:none"
             transform="scale(1,-1)"><tspan
               id="tspan150"
               y="0"
               x="0 44.776402 79.260803 110.2608 124.0372 158.52161 193.006 210.2296 248.0992 282.58359 303.22961 320.45319 358.32281 392.80719 410.03079 444.5152 465.16119 499.6456 516.8692 537.5152 554.73877 606.38483 640.8692 675.35358 709.83801 744.32239 778.80682 813.2912 830.51477 871.86877 906.35321 923.57678 940.80042 985.57678 1020.0612 1040.7072 1075.1917 1092.4152 1133.7692 1164.7692 1199.2535 1213.03 1247.5144 1264.738 1278.5144 1312.9988">Design For Future - Managed Software Evolution</tspan></text>
</g></g></g></g></svg>